<?xml version="1.0" standalone="no"?>
<!DOCTYPE svg PUBLIC "-//W3C//DTD SVG 1.1//EN" "http://www.w3.org/Graphics/SVG/1.1/DTD/svg11.dtd" >
<svg xmlns="http://www.w3.org/2000/svg" xmlns:xlink="http://www.w3.org/1999/xlink" version="1.1">
<metadata>
Created by FontForge 20170731 at Tue Oct 17 18:51:27 2017
 By Aleksey,,,
(c) 2009 Microsoft Corporation. All Rights Reserved.
</metadata>
<defs>
<font id="Constantia-Bold" horiz-adv-x="0" >
  <font-face 
    font-family="Constantia"
    font-weight="700"
    font-stretch="normal"
    units-per-em="2048"
    panose-1="2 3 7 2 6 3 6 3 3 3"
    ascent="1538"
    descent="-510"
    x-height="932"
    cap-height="1400"
    bbox="-976 -515 2697 2109"
    underline-thickness="102"
    underline-position="-307"
    unicode-range="U+000D-FB04"
  />
<missing-glyph horiz-adv-x="995" 
d="M995 1396v-1396h-995v1396h995zM898 98v1201h-800v-1201h800zM437 455l-2 33q0 133 41 187t73 84q61 62 78.5 94t17.5 73q0 75 -44.5 118.5t-102.5 43.5q-62 0 -105.5 -42.5t-55.5 -141.5l-96 15q15 136 87 201.5t175 65.5q104 0 173 -66t69 -185q0 -66 -24 -115
t-97 -120q-73 -65 -85.5 -106t-12.5 -134zM416 291q0 29 20 49.5t49 20.5t49.5 -20.5t20.5 -49.5q0 -30 -20.5 -49.5t-49.5 -19.5t-49 19.5t-20 49.5z" />
    <glyph glyph-name="uniFB00" unicode="ff" horiz-adv-x="1430" 
d="M1188 813v-531q0 -94 2 -164q2 -28 26 -35l137 -38l3 -48q-161 3 -307 3q-149 0 -294 -3l-5 48l123 33q28 8 29 32q3 62 3 131v572h-422v-531q0 -94 2 -164q2 -28 26 -35l137 -38l3 -48q-161 3 -307 3q-149 0 -294 -3l-5 48l123 33q28 8 29 32q3 62 3 131v577l-146 32
l-9 54l156 13q0 265 126.5 420t351.5 155q119 0 217 -28q-32 -141 -53 -283l-55 -11l-62 224q-15 3 -35 3q-105 0 -156.5 -99.5t-51.5 -366.5v-12h423q0 278 126.5 433t351.5 155q119 0 217 -28q-32 -141 -53 -283l-55 -11l-62 224q-15 3 -35 3q-105 0 -156.5 -99.5
t-51.5 -366.5v-27h242v-106h-242z" />
    <glyph glyph-name="uniFB01" unicode="fi" horiz-adv-x="1384" 
d="M483 813v-534q0 -94 2 -164q2 -28 26 -35l122 -35l3 -48q-146 3 -292 3q-149 0 -294 -3l-5 48l123 33q28 8 29 32q3 62 3 131v577l-146 32l-9 54l156 13q0 280 151 435t448 155q173 0 298 -31q-39 -139 -65 -280l-60 -11l-67 217q-26 7 -71 7q-193 0 -272.5 -96.5
t-79.5 -366.5v-27h497q110 20 204 40l11 -8q-6 -138 -6 -294v-377q0 -119 2 -166q2 -27 25 -34l125 -35l3 -48q-148 3 -294 3q-149 0 -288 -3l-5 48l121 33q23 6 25 30q2 39 2 131v574h-422z" />
    <glyph glyph-name="uniFB02" unicode="fl" horiz-adv-x="1389" 
d="M1200 1499q-6 -149 -6 -447v-772q0 -119 2 -166q2 -27 25 -34l125 -35l3 -48q-148 3 -294 3q-149 0 -294 -3l-5 48l127 35q23 6 25 30q2 39 2 131v709q0 219 -4 447q-53 12 -112 12q-156 0 -233.5 -98t-77.5 -365v-27h252v-109h-252v-528q0 -94 2 -164q2 -28 26 -35
l137 -38l3 -48q-161 3 -307 3q-149 0 -294 -3l-5 48l123 33q28 8 29 32q3 62 3 131v574l-146 35l-9 54l156 13q0 280 142.5 435t432.5 155q151 0 259 -31q81 15 154 31z" />
    <glyph glyph-name="uniFB03" unicode="ffi" horiz-adv-x="2089" 
d="M1188 813v-534q0 -94 2 -164q2 -28 26 -35l122 -35l3 -48q-146 3 -292 3q-149 0 -294 -3l-5 48l123 33q28 8 29 32q3 62 3 131v572h-422v-531q0 -94 2 -164q2 -28 26 -35l137 -38l3 -48q-161 3 -307 3q-149 0 -294 -3l-5 48l123 33q28 8 29 32q3 62 3 131v577l-146 32
l-9 54l156 13q0 265 126.5 420t351.5 155q119 0 217 -28q-32 -141 -53 -283l-55 -11l-62 224q-15 3 -35 3q-105 0 -156.5 -99.5t-51.5 -366.5v-12h423q0 278 151 433t448 155q173 0 298 -31q-39 -139 -65 -280l-60 -11l-67 217q-26 7 -71 7q-193 0 -272.5 -96.5
t-79.5 -366.5v-27h497q110 20 204 40l11 -8q-6 -138 -6 -294v-377q0 -119 2 -166q2 -27 25 -34l125 -35l3 -48q-148 3 -294 3q-149 0 -288 -3l-5 48l121 33q23 6 25 30q2 39 2 131v574h-422z" />
    <glyph glyph-name="uniFB04" unicode="ffl" horiz-adv-x="2094" 
d="M1905 1499q-6 -149 -6 -447v-772q0 -119 2 -166q2 -27 25 -34l125 -35l3 -48q-148 3 -294 3q-149 0 -294 -3l-5 48l127 35q23 6 25 30q2 39 2 131v709q0 219 -4 447q-53 12 -112 12q-156 0 -233.5 -98t-77.5 -365v-27h252v-109h-252v-528q0 -94 2 -164q2 -28 26 -35
l137 -38l3 -48q-161 3 -307 3q-149 0 -294 -3l-5 48l123 33q28 8 29 32q3 62 3 131v572h-422v-531q0 -94 2 -164q2 -28 26 -35l137 -38l3 -48q-161 3 -307 3q-149 0 -294 -3l-5 48l123 33q28 8 29 32q3 62 3 131v577l-146 32l-9 54l156 13q0 265 126.5 420t351.5 155
q119 0 217 -28q-32 -141 -53 -283l-55 -11l-62 224q-15 3 -35 3q-105 0 -156.5 -99.5t-51.5 -366.5v-12h423q0 278 142.5 433t432.5 155q151 0 259 -31q81 15 154 31z" />
    <glyph glyph-name="f_b.liga" unicode="fb" horiz-adv-x="1982" 
d="M1200 1499q-6 -149 -6 -447v-191q153 94 298 94q190 0 300.5 -126.5t110.5 -330.5q0 -249 -157.5 -387t-436.5 -138q-175 0 -401 65q2 119 2 319v593q0 219 -4 447q-53 12 -112 12q-156 0 -233.5 -98t-77.5 -365v-27h252v-109h-252v-528q0 -94 2 -164q2 -28 26 -35
l137 -38l3 -48q-161 3 -307 3q-149 0 -294 -3l-5 48l123 33q28 8 29 32q3 62 3 131v574l-146 35l-9 54l156 13q0 280 142.5 435t432.5 155q151 0 259 -31q81 15 154 31zM1194 90q66 -18 132 -18q136 0 203.5 100.5t67.5 286.5q0 170 -63 265t-186 95q-78 0 -154 -33v-696z
" />
    <glyph glyph-name="f_f_b.liga" unicode="ffb" horiz-adv-x="2687" 
d="M1905 1499q-6 -149 -6 -447v-191q153 94 298 94q190 0 300.5 -126.5t110.5 -330.5q0 -249 -157.5 -387t-436.5 -138q-175 0 -401 65q2 119 2 319v593q0 219 -4 447q-53 12 -112 12q-156 0 -233.5 -98t-77.5 -365v-27h252v-106h-252v-531q0 -94 2 -164q2 -28 26 -35
l137 -38l3 -48q-161 3 -307 3q-149 0 -294 -3l-5 48l123 33q28 8 29 32q3 62 3 131v572h-422v-531q0 -94 2 -164q2 -28 26 -35l137 -38l3 -48q-161 3 -307 3q-149 0 -294 -3l-5 48l123 33q28 8 29 32q3 62 3 131v577l-146 32l-9 54l156 13q0 265 126.5 420t351.5 155
q119 0 217 -28q-32 -141 -53 -283l-55 -11l-62 224q-15 3 -35 3q-105 0 -156.5 -99.5t-51.5 -366.5v-12h423q0 278 142.5 433t432.5 155q151 0 259 -31q81 15 154 31zM1899 90q66 -18 132 -18q136 0 203.5 100.5t67.5 286.5q0 170 -63 265t-186 95q-78 0 -154 -33v-696z" />
    <glyph glyph-name="f_h.liga" unicode="fh" horiz-adv-x="2020" 
d="M1200 1499q-6 -149 -6 -447v-198q169 101 334 101q146 0 229 -79.5t83 -225.5v-351q0 -125 2 -185q1 -27 26 -34l121 -35l3 -48q-143 3 -288 3q-150 0 -270 -3l-4 48l100 30q23 7 25 30q1 15 1 63v419q0 123 -48 176.5t-143 53.5q-83 0 -171 -38v-440q0 -125 2 -229
q1 -27 23 -33l104 -32l2 -48q-124 3 -270 3q-149 0 -293 -3l-5 48l129 35q22 6 23 30q1 64 1 123v717q0 219 -4 447q-53 12 -112 12q-156 0 -233.5 -98t-77.5 -365v-27h252v-109h-252v-528q0 -94 2 -164q2 -28 26 -35l137 -38l3 -48q-161 3 -307 3q-149 0 -294 -3l-5 48
l123 33q28 8 29 32q3 62 3 131v574l-146 35l-9 54l156 13q0 280 142.5 435t432.5 155q151 0 259 -31q81 15 154 31z" />
    <glyph glyph-name="f_f_h.liga" unicode="ffh" horiz-adv-x="2725" 
d="M1905 1499q-6 -149 -6 -447v-198q169 101 334 101q146 0 229 -79.5t83 -225.5v-351q0 -125 2 -185q1 -27 26 -34l121 -35l3 -48q-143 3 -288 3q-150 0 -270 -3l-4 48l100 30q23 7 25 30q1 15 1 63v419q0 123 -48 176.5t-143 53.5q-83 0 -171 -38v-440q0 -125 2 -229
q1 -27 23 -33l104 -32l2 -48q-124 3 -270 3q-149 0 -293 -3l-5 48l129 35q22 6 23 30q1 64 1 123v717q0 219 -4 447q-53 12 -112 12q-156 0 -233.5 -98t-77.5 -365v-27h252v-106h-252v-531q0 -94 2 -164q2 -28 26 -35l137 -38l3 -48q-161 3 -307 3q-149 0 -294 -3l-5 48
l123 33q28 8 29 32q3 62 3 131v572h-422v-531q0 -94 2 -164q2 -28 26 -35l137 -38l3 -48q-161 3 -307 3q-149 0 -294 -3l-5 48l123 33q28 8 29 32q3 62 3 131v577l-146 32l-9 54l156 13q0 265 126.5 420t351.5 155q119 0 217 -28q-32 -141 -53 -283l-55 -11l-62 224
q-15 3 -35 3q-105 0 -156.5 -99.5t-51.5 -366.5v-12h423q0 278 142.5 433t432.5 155q151 0 259 -31q81 15 154 31z" />
    <glyph glyph-name="f_j.liga" unicode="fj" horiz-adv-x="1364" 
d="M483 813v-534q0 -94 2 -164q2 -28 26 -35l122 -35l3 -48q-146 3 -292 3q-149 0 -294 -3l-5 48l123 33q28 8 29 32q3 62 3 131v577l-146 32l-9 54l156 13q0 280 151 435t448 155q173 0 298 -31q-39 -139 -65 -280l-60 -11l-67 217q-26 7 -71 7q-193 0 -272.5 -96.5
t-79.5 -366.5v-27h497q109 19 203 40l12 -8q-6 -130 -6 -285v-535q0 -200 -108 -333t-315 -302l-57 49q140 188 168 281t28 258v729h-422z" />
    <glyph glyph-name="f_f_j.liga" unicode="ffj" horiz-adv-x="2069" 
d="M1188 813v-534q0 -94 2 -164q2 -28 26 -35l122 -35l3 -48q-146 3 -292 3q-149 0 -294 -3l-5 48l123 33q28 8 29 32q3 62 3 131v572h-422v-531q0 -94 2 -164q2 -28 26 -35l137 -38l3 -48q-161 3 -307 3q-149 0 -294 -3l-5 48l123 33q28 8 29 32q3 62 3 131v577l-146 32
l-9 54l156 13q0 265 126.5 420t351.5 155q119 0 217 -28q-32 -141 -53 -283l-55 -11l-62 224q-15 3 -35 3q-105 0 -156.5 -99.5t-51.5 -366.5v-12h423q0 278 151 433t448 155q173 0 298 -31q-39 -139 -65 -280l-60 -11l-67 217q-26 7 -71 7q-193 0 -272.5 -96.5
t-79.5 -366.5v-27h497q109 19 203 40l12 -8q-6 -130 -6 -285v-535q0 -200 -108 -333t-315 -302l-57 49q140 188 168 281t28 258v729h-422z" />
    <glyph glyph-name="f_k.liga" unicode="fk" horiz-adv-x="1963" 
d="M1200 1499q-6 -149 -6 -447v-774q0 -119 2 -166q2 -27 25 -34l108 -33l4 -48q-132 3 -278 3q-149 0 -294 -3l-5 48l127 35q23 6 25 30q2 39 2 131v709q0 219 -4 447q-53 12 -112 12q-156 0 -233.5 -98t-77.5 -365v-27h252v-109h-252v-528q0 -94 2 -164q2 -28 26 -35
l137 -38l3 -48q-161 3 -307 3q-149 0 -294 -3l-5 48l123 33q28 8 29 32q3 62 3 131v574l-146 35l-9 54l156 13q0 280 142.5 435t432.5 155q151 0 259 -31q81 15 154 31zM1963 -3q-182 3 -270 3q-62 0 -150 -2q-33 57 -78 125q-115 177 -253 357l384 376l-110 29l-5 47
q122 -3 209 -3q71 0 232 3l5 -48q-124 -28 -170.5 -52t-102.5 -76l-183 -175l305 -428q32 -43 59.5 -63t123.5 -45z" />
    <glyph glyph-name="f_f_k.liga" unicode="ffk" horiz-adv-x="2668" 
d="M1905 1499q-6 -149 -6 -447v-774q0 -119 2 -166q2 -27 25 -34l108 -33l4 -48q-132 3 -278 3q-149 0 -294 -3l-5 48l127 35q23 6 25 30q2 39 2 131v709q0 219 -4 447q-53 12 -112 12q-156 0 -233.5 -98t-77.5 -365v-27h252v-109h-252v-528q0 -94 2 -164q2 -28 26 -35
l137 -38l3 -48q-161 3 -307 3q-149 0 -294 -3l-5 48l123 33q28 8 29 32q3 62 3 131v572h-422v-531q0 -94 2 -164q2 -28 26 -35l137 -38l3 -48q-161 3 -307 3q-149 0 -294 -3l-5 48l123 33q28 8 29 32q3 62 3 131v577l-146 32l-9 54l156 13q0 265 126.5 420t351.5 155
q119 0 217 -28q-32 -141 -53 -283l-55 -11l-62 224q-15 3 -35 3q-105 0 -156.5 -99.5t-51.5 -366.5v-12h423q0 278 142.5 433t432.5 155q151 0 259 -31q81 15 154 31zM2668 -3q-182 3 -270 3q-62 0 -150 -2q-33 57 -78 125q-115 177 -253 357l384 376l-110 29l-5 47
q122 -3 209 -3q71 0 232 3l5 -48q-124 -28 -170.5 -52t-102.5 -76l-183 -175l305 -428q32 -43 59.5 -63t123.5 -45z" />
    <glyph glyph-name=".notdef" horiz-adv-x="995" 
d="M995 1396v-1396h-995v1396h995zM898 98v1201h-800v-1201h800zM437 455l-2 33q0 133 41 187t73 84q61 62 78.5 94t17.5 73q0 75 -44.5 118.5t-102.5 43.5q-62 0 -105.5 -42.5t-55.5 -141.5l-96 15q15 136 87 201.5t175 65.5q104 0 173 -66t69 -185q0 -66 -24 -115
t-97 -120q-73 -65 -85.5 -106t-12.5 -134zM416 291q0 29 20 49.5t49 20.5t49.5 -20.5t20.5 -49.5q0 -30 -20.5 -49.5t-49.5 -19.5t-49 19.5t-20 49.5z" />
    <glyph glyph-name="glyph1" 
 />
    <glyph glyph-name="glyph1" 
 />
    <glyph glyph-name="uni000D" unicode="&#xd;" 
 />
    <glyph glyph-name="space" unicode=" " horiz-adv-x="490" 
 />
    <glyph glyph-name="space" unicode="&#xa0;" horiz-adv-x="490" 
 />
    <glyph glyph-name="exclam" unicode="!" horiz-adv-x="624" 
d="M321 416l-114 940l312 12l9 -8l-129 -940zM359 275q67 0 110 -41t43 -109t-43 -110.5t-110 -42.5q-69 0 -111.5 42.5t-42.5 110.5t42.5 109t111.5 41z" />
    <glyph glyph-name="quotedbl" unicode="&#x22;" horiz-adv-x="746" 
d="M90 1487h226l-100 -485h-75zM420 1487h226l-100 -485h-75z" />
    <glyph glyph-name="numbersign" unicode="#" horiz-adv-x="1130" 
d="M925 1294l-58 -382h201v-145h-223l-38 -251h199v-145h-221l-57 -381h-127l58 381h-269l-58 -381h-127l58 381h-200v145h222l38 251h-198v145h220l58 382h127l-58 -382h269l58 382h126zM412 516h269l38 251h-269z" />
    <glyph glyph-name="dollar" unicode="$" horiz-adv-x="891" 
d="M646 959q-58 19 -144 22l-7 -326q183 -70 261.5 -146t78.5 -193q0 -131 -98.5 -222t-272.5 -115l-3 -130l-92 -8l3 133h-7q-154 0 -303 52l-6 7l45 286l56 9l51 -239q65 -24 166 -26l8 347q-183 68 -253.5 144t-70.5 185q0 123 96.5 211t257.5 110l3 114l92 8l-3 -117
q124 -1 287 -42l5 -7l-52 -251l-49 -8zM620 214q0 98 -147 160l-7 -305q154 30 154 145zM272 839q0 -87 132 -147l6 284q-138 -27 -138 -137z" />
    <glyph glyph-name="percent" unicode="%" horiz-adv-x="1682" 
d="M269 1079q0 -370 118 -370q48 1 80 74t32 285q0 187 -30.5 272t-87.5 85q-51 0 -81.5 -73t-30.5 -273zM703 1085q0 -219 -91 -331t-235 -112q-143 0 -227.5 106.5t-84.5 310.5q0 210 89 320.5t237 110.5q145 0 228.5 -102t83.5 -303zM323 10l946 1477l95 -67l-947 -1477z
M1198 421q0 -370 118 -370q48 1 80 74t32 285q0 187 -30.5 272t-87.5 85q-51 0 -81.5 -73t-30.5 -273zM1632 427q0 -219 -91 -331t-235 -112q-143 0 -227.5 106.5t-84.5 310.5q0 210 89 320.5t237 110.5q145 0 228.5 -102t83.5 -303z" />
    <glyph glyph-name="ampersand" unicode="&#x26;" horiz-adv-x="1487" 
d="M957 779q57 -2 114.5 -3t125.5 -1q58 0 103.5 1t85.5 3l4 -52l-129 -31q-21 -5 -18 -23q6 -34 6 -86q0 -184 -107 -339q77 -99 134 -146q27 -22 60.5 -31t69.5 -9q28 0 61 6l9 -55q-108 -45 -223 -45q-178 0 -298 105q-167 -101 -364 -101q-211 0 -357 102t-146 275
q0 241 288 382q-89 100 -127.5 179t-38.5 171q0 144 119 229.5t288 85.5q154 0 260.5 -75t106.5 -203q0 -199 -298 -346l379 -435q65 114 65 234q0 61 -5 91q-3 19 -12.5 27t-28.5 12l-124 25zM441 656q-68 -89 -68 -229q0 -141 78.5 -232t213.5 -91q109 0 212 52zM626 841
q103 97 103 264q0 89 -35 142t-96 53t-97 -44.5t-36 -114.5q0 -114 108 -239z" />
    <glyph glyph-name="quotesingle" unicode="'" horiz-adv-x="416" 
d="M90 1487h226l-100 -485h-75z" />
    <glyph glyph-name="parenleft" unicode="(" horiz-adv-x="790" 
d="M644 -379q-494 385 -494 974q0 593 494 978l46 -40q-319 -355 -319 -934q0 -583 319 -938z" />
    <glyph glyph-name="parenright" unicode=")" horiz-adv-x="790" 
d="M146 1573q494 -385 494 -974q0 -593 -494 -978l-46 40q319 355 319 934q0 583 -319 938z" />
    <glyph glyph-name="asterisk" unicode="*" horiz-adv-x="902" 
d="M827 1103l-320 -27l212 -228l-136 -96l-124 292l-151 -271l-136 98l243 210l-305 60l51 160l274 -166l-37 308h168l-73 -312l282 131z" />
    <glyph glyph-name="plus" unicode="+" horiz-adv-x="1130" 
d="M83 532h412v412h141v-412h411v-141h-411v-411h-141v411h-412v141z" />
    <glyph glyph-name="comma" unicode="," horiz-adv-x="586" 
d="M100 -269q180 133 180 266q0 118 -131 184q0 74 43 115t110 41q72 0 119 -56t47 -141q0 -130 -79.5 -245.5t-237.5 -224.5z" />
    <glyph glyph-name="hyphen" unicode="-" horiz-adv-x="716" 
d="M80 570h556v-146h-556v146z" />
    <glyph glyph-name="hyphen" unicode="&#x2010;" horiz-adv-x="716" 
d="M80 570h556v-146h-556v146z" />
    <glyph glyph-name="hyphen" unicode="&#xad;" horiz-adv-x="716" 
d="M80 570h556v-146h-556v146z" />
    <glyph glyph-name="period" unicode="." horiz-adv-x="586" 
d="M299 285q68 0 112.5 -42.5t44.5 -112.5q0 -69 -44.5 -113t-112.5 -44q-71 0 -115 44t-44 113q0 70 44 112.5t115 42.5z" />
    <glyph glyph-name="slash" unicode="/" horiz-adv-x="825" 
d="M100 -226l505 1652h140l-505 -1652h-140z" />
    <glyph glyph-name="zero" unicode="0" horiz-adv-x="1182" 
d="M380 476q0 -199 55 -303t160 -104q110 0 158.5 97t48.5 298q0 204 -55 299t-161 95q-105 0 -155.5 -88.5t-50.5 -293.5zM1102 485q0 -240 -143 -375.5t-380 -135.5q-233 0 -366 126t-133 350q0 233 140.5 366.5t383.5 133.5q234 0 366 -122t132 -343z" />
    <glyph glyph-name="one" unicode="1" horiz-adv-x="748" 
d="M41 834l-5 50q258 32 493 66l9 -8q-12 -176 -12 -361v-246q0 -66 0.5 -119t1.5 -94q2 -29 28 -36l159 -41l3 -48q-185 3 -328 3q-144 0 -328 -3l-4 48l163 41q27 8 27 32q1 41 1.5 85.5t0.5 94.5v160q0 101 -1 189.5t-3 166.5z" />
    <glyph glyph-name="two" unicode="2" horiz-adv-x="993" 
d="M865 347l58 8l-20 -351l-7 -7q-196 3 -427 3q-212 0 -422 -3l-7 122q85 57 163 108.5t136 92.5q62 43 103 80.5t65 73t34 70t10 72.5q0 88 -65.5 139t-164.5 51q-101 0 -217 -63l-38 80q187 127 385 127q165 0 272 -81.5t107 -201.5q0 -73 -32.5 -128t-98 -106.5
t-164.5 -107t-232 -128.5l1 -5h487z" />
    <glyph glyph-name="three" unicode="3" horiz-adv-x="935" 
d="M168 333q182 22 273 88.5t91 180.5q0 95 -65.5 154t-168.5 59q-117 0 -247 -75l-38 80q181 130 422 130q172 0 279.5 -76.5t107.5 -202.5q0 -223 -348 -328v-4q200 0 309.5 -79t109.5 -219q0 -112 -58 -204t-170.5 -157.5t-278.5 -102t-382 -37.5l-8 88q166 10 280 43
t184.5 82.5t101.5 113t31 133.5q0 120 -84.5 188t-213.5 68q-64 0 -121 -12z" />
    <glyph glyph-name="four" unicode="4" horiz-adv-x="1072" 
d="M180 134h391v500q-49 -58 -100 -120.5t-101 -126.5t-98.5 -128t-91.5 -125zM847 -123q0 -159 5 -277q-147 -14 -269 -31l-14 7q2 120 2 286v133h-248q-125 0 -306 -3l-7 93q81 98 167 205t172.5 216.5t170.5 219t162 214.5l171 10q-6 -224 -6 -418v-398h219l4 -142
q-101 3 -223 3v-118z" />
    <glyph glyph-name="five" unicode="5" horiz-adv-x="957" 
d="M68 -460l-8 88q127 4 231 30.5t177 72.5t113 109.5t40 142.5q0 129 -83 205.5t-226 76.5q-113 0 -213 -22l-6 7l58 679q173 -4 370 -4q205 0 357 4l6 -8l-25 -235h-606l-23 -233q98 14 204 14q217 0 350 -109.5t133 -282.5q0 -111 -48.5 -207.5t-151.5 -168.5
t-263.5 -114.5t-385.5 -44.5z" />
    <glyph glyph-name="six" unicode="6" horiz-adv-x="1123" 
d="M963 1302q-546 -85 -611 -578l1 -1q114 130 312 130q163 0 280 -111t117 -299q0 -208 -147 -338.5t-356 -130.5q-227 0 -371.5 156.5t-144.5 399.5q0 370 244 600t663 263zM770 362q0 179 -63 277.5t-162 98.5q-92 0 -146.5 -75.5t-54.5 -209.5q0 -183 60.5 -287.5
t176.5 -104.5q95 0 142 82.5t47 218.5z" />
    <glyph glyph-name="seven" unicode="7" horiz-adv-x="967" 
d="M161 -403l620 1068h-604l-65 -204l-65 -7l-17 466l7 8q118 -2 230 -3t220 -1h56q108 0 217 1t201 3l4 -153q-85 -153 -164.5 -306.5t-148.5 -303t-125.5 -292t-94.5 -273.5l-266 -10z" />
    <glyph glyph-name="eight" unicode="8" horiz-adv-x="1095" 
d="M695 791q180 -84 260 -182t80 -224q0 -182 -147 -296.5t-358 -114.5q-208 0 -339 93t-131 253q0 110 72.5 190.5t227.5 157.5q-235 130 -235 346q0 159 126 258.5t315 99.5q168 0 280 -78t112 -207q0 -91 -69 -161t-194 -135zM443 620q-123 -137 -123 -290
q0 -114 63 -188.5t166 -74.5q95 0 155 63t60 166q0 94 -64.5 163t-256.5 161zM614 835q93 126 93 227q0 103 -50 160t-132 57q-68 0 -114.5 -47.5t-46.5 -123.5q0 -78 53 -136.5t197 -136.5z" />
    <glyph glyph-name="nine" unicode="9" horiz-adv-x="1119" 
d="M160 -369q548 80 611 569l-1 1q-115 -130 -312 -130q-162 0 -279.5 110.5t-117.5 299.5q0 208 147.5 338.5t355.5 130.5q227 0 371.5 -156t144.5 -400q0 -357 -230.5 -585.5t-676.5 -268.5zM353 562q0 -181 63.5 -278.5t161.5 -97.5q93 0 147 75.5t54 209.5
q0 192 -62.5 292t-174.5 100q-91 0 -140 -80.5t-49 -220.5z" />
    <glyph glyph-name="colon" unicode=":" horiz-adv-x="586" 
d="M344 285q68 0 112.5 -42.5t44.5 -112.5q0 -69 -44.5 -113t-112.5 -44q-71 0 -115 44t-44 113q0 70 44 112.5t115 42.5zM344 929q68 0 112.5 -42.5t44.5 -112.5q0 -69 -44.5 -113t-112.5 -44q-71 0 -115 44t-44 113q0 70 44 112.5t115 42.5z" />
    <glyph glyph-name="semicolon" unicode=";" horiz-adv-x="586" 
d="M133 -269q180 133 180 266q0 118 -131 184q0 74 43 115t110 41q72 0 119 -56t47 -141q0 -130 -79.5 -245.5t-237.5 -224.5zM344 929q68 0 112.5 -42.5t44.5 -112.5q0 -69 -44.5 -113t-112.5 -44q-71 0 -115 44t-44 113q0 70 44 112.5t115 42.5z" />
    <glyph glyph-name="less" unicode="&#x3c;" horiz-adv-x="1130" 
d="M83 532l964 400v-147l-794 -324l794 -323v-147l-964 400v141z" />
    <glyph glyph-name="equal" unicode="=" horiz-adv-x="1130" 
d="M83 712h964v-141h-964v141zM83 352h964v-141h-964v141z" />
    <glyph glyph-name="greater" unicode="&#x3e;" horiz-adv-x="1130" 
d="M1047 391l-964 -400v147l796 323l-796 324v147l964 -400v-141z" />
    <glyph glyph-name="question" unicode="?" horiz-adv-x="930" 
d="M252 1024l-55 -9l-67 306l6 9q203 58 357 58q173 0 275 -78t102 -222q0 -62 -17 -110.5t-46 -88.5t-67.5 -74.5t-81.5 -67.5t-75 -58t-53 -47t-31.5 -44.5t-10.5 -51.5q0 -43 44 -105l-60 -38q-193 174 -193 277q0 35 11.5 64t34.5 56.5t56 56.5t77 65q48 40 81 68.5
t54 53.5t30 50t9 58q0 64 -50.5 103t-128.5 39q-68 0 -138 -26zM466 275q67 0 110 -41t43 -109t-43 -110.5t-110 -42.5q-69 0 -111.5 42.5t-42.5 110.5t42.5 109t111.5 41z" />
    <glyph glyph-name="at" unicode="@" horiz-adv-x="1805" 
d="M1330 865q-30 -99 -69 -294l-63 -306q-6 -29 -6 -47q0 -34 17.5 -51t46.5 -17q84 0 162.5 118t78.5 318q0 241 -151.5 389.5t-377.5 148.5q-284 0 -460.5 -202t-176.5 -512q0 -288 178 -467t457 -179q159 0 315.5 64.5t273.5 170.5l50 -57q-316 -298 -710 -298
q-353 0 -569 203t-216 535q0 363 250.5 597.5t629.5 234.5q292 0 496 -172.5t204 -445.5q0 -247 -170 -402t-369 -155q-182 0 -206 139q-159 -135 -241 -135q-109 0 -174 83t-65 211q0 227 144 383t358 156q79 0 189 -32q74 6 162 28zM1049 759q-46 31 -94 31
q-103 0 -165 -133t-62 -274q0 -96 20 -150t65 -54q47 0 134 82z" />
    <glyph glyph-name="A" unicode="A" horiz-adv-x="1371" 
d="M380 444l-71 -187q-21 -55 -32.5 -88.5t-11.5 -51.5q0 -17 9 -26t28 -14l96 -28l3 -52q-145 3 -236 3q-95 0 -217 -3l-5 50l107 32q38 11 56 36.5t40 77.5l498 1213l108 16l431 -1216q25 -70 45.5 -94.5t58.5 -35.5l98 -29l3 -50q-135 3 -272 3q-181 0 -353 -3l-5 50
l99 29q20 6 29 15t9 27q0 20 -10 52.5t-29 85.5l-66 188h-410zM596 1018q-18 -52 -39 -108l-137 -362h334l-123 361q-19 57 -35 109z" />
    <glyph glyph-name="B" unicode="B" horiz-adv-x="1354" 
d="M87 1400q140 -4 288 -4q54 2 169 6t158 4q253 0 381.5 -81.5t128.5 -234.5q0 -240 -284 -332q165 -23 254.5 -115t89.5 -230q0 -200 -161 -309.5t-456 -109.5q-58 0 -121.5 3t-158.5 3q-146 0 -283 -3l-5 50l134 37q25 7 27 31q1 40 1.5 89.5t0.5 109.5v797q0 50 -0.5 91
t-1.5 75q-1 26 -24 33l-134 39zM548 692v-598q56 -9 118 -9q137 0 208 79.5t71 230.5t-72 224.5t-233 73.5q-47 0 -92 -1zM548 782q51 -1 97 -1q128 0 189.5 61.5t61.5 208.5q0 138 -63.5 198t-183.5 60q-19 0 -44.5 -1.5t-56.5 -5.5v-520z" />
    <glyph glyph-name="C" unicode="C" horiz-adv-x="1351" 
d="M1198 1022l-55 -9l-76 287q-79 25 -171 25q-221 0 -342 -165.5t-121 -433.5q0 -286 142.5 -456t395.5 -170q141 0 297 57l13 -57q-200 -136 -452 -136q-327 0 -528.5 197t-201.5 519q0 343 221 543t577 200q176 0 360 -41l6 -10z" />
    <glyph glyph-name="D" unicode="D" horiz-adv-x="1617" 
d="M358 0q-129 0 -266 -3l-5 50l134 37q26 8 27 31q1 40 1.5 89.5t0.5 109.5v797q0 50 -0.5 91t-1.5 75q-1 26 -24 33l-134 39l-3 51q140 -4 268 -4q108 0 207 5t205 5q373 0 561 -159.5t188 -473.5q0 -370 -208.5 -574.5t-586.5 -204.5q-104 0 -185 3t-178 3zM550 102
q48 -9 94 -11.5t93 -2.5q217 0 330 153t113 466q0 305 -108 452.5t-340 147.5q-86 0 -182 -8v-1197z" />
    <glyph glyph-name="E" unicode="E" horiz-adv-x="1233" 
d="M353 1396h253q243 0 504 4l7 -8l-62 -333l-54 -8l-64 243h-387v-531h54q87 0 187 2q26 1 34 27l36 137l66 3q-3 -145 -3 -217q0 -70 3 -214l-66 -5l-37 141q-8 27 -31 28q-102 2 -190 2h-53v-343q0 -110 2 -218h400l126 263l61 9l-24 -374l-7 -7q-249 3 -485 3h-265
q-129 0 -266 -3l-5 50l134 37q25 7 27 31q1 40 1.5 89.5t0.5 109.5v797q0 50 -0.5 91t-1.5 75q-1 26 -24 33l-134 39l-3 51q140 -4 266 -4z" />
    <glyph glyph-name="F" unicode="F" horiz-adv-x="1153" 
d="M550 644v-330q0 -118 2 -193q1 -24 26 -32l147 -42l3 -50q-155 3 -324 3q-173 0 -312 -3l-5 50l134 37q26 8 27 31q2 81 2 199v797q0 50 -0.5 91t-1.5 75q-1 26 -24 33l-134 39l-3 51q140 -4 266 -4h253q243 0 504 4l7 -8l-62 -333l-54 -8l-64 243h-387v-554h57
q88 0 187 2q27 1 34 27l36 137l66 3q-3 -145 -3 -217q0 -70 3 -214l-66 -6l-37 142q-7 26 -31 28q-101 2 -190 2h-56z" />
    <glyph glyph-name="G" unicode="G" horiz-adv-x="1516" 
d="M1230 1031l-56 -8l-70 276q-84 27 -196 27q-224 0 -349.5 -166.5t-125.5 -457.5q0 -304 126 -474t353 -170q54 0 116 9v263q0 50 -0.5 91t-1.5 75q-1 26 -25 33l-136 39l-3 50q142 -3 308 -3q171 0 293 3l6 -50l-119 -33q-24 -7 -26 -30q-1 -40 -1.5 -81.5t-0.5 -89.5
v-315l-7 -7q-215 -49 -409 -49q-364 0 -585.5 186t-221.5 519q0 354 221.5 554.5t604.5 200.5q184 0 362 -41l7 -9z" />
    <glyph glyph-name="H" unicode="H" horiz-adv-x="1695" 
d="M550 685v-371q0 -118 2 -197q1 -28 26 -35l116 -35l3 -50q-124 3 -293 3q-173 0 -312 -3l-5 50l134 37q26 8 27 31q2 81 2 199v797q0 100 -2 166q-1 26 -24 33l-134 39l-3 51q139 -4 308 -4q174 0 296 4l6 -51l-119 -34q-25 -7 -26 -31q-2 -72 -2 -169v-324h596v324
q0 97 -2 169q-1 24 -26 31l-117 34l-3 51q127 -4 300 -4q169 0 305 4l5 -51l-136 -39q-23 -7 -25 -33q-2 -66 -2 -166v-797q0 -118 2 -199q2 -23 28 -31l130 -37l3 -50q-143 3 -316 3q-169 0 -289 -3l-5 50l120 35q25 7 26 35q2 79 2 197v371h-596z" />
    <glyph glyph-name="I" unicode="I" horiz-adv-x="800" 
d="M550 314q0 -60 0.5 -109t1.5 -88q1 -26 34 -35l123 -35l3 -50q-139 3 -308 3q-175 0 -312 -3l-5 50l134 37q25 7 27 31q1 40 1.5 89.5t0.5 109.5v797q0 50 -0.5 91t-1.5 75q-1 26 -24 33l-134 39l-3 51q139 -4 308 -4q174 0 312 4l5 -51l-134 -37q-24 -6 -26 -30
q-1 -36 -1.5 -77.5t-0.5 -89.5v-801z" />
    <glyph glyph-name="J" unicode="J" horiz-adv-x="744" 
d="M71 1400q140 -4 309 -4q173 0 312 4l5 -51l-134 -37q-25 -6 -27 -30q-1 -36 -1.5 -77.5t-0.5 -89.5v-904q0 -99 -9 -179t-31 -143t-61 -112.5t-100.5 -88.5t-149 -69t-205.5 -52l-19 59q97 43 151 95.5t82 119.5t35.5 151t7.5 189v930q0 50 -0.5 91t-1.5 75q-1 26 -24 33
l-135 39z" />
    <glyph glyph-name="K" unicode="K" horiz-adv-x="1497" 
d="M550 1115v-801q0 -60 0.5 -109t1.5 -88q1 -27 26 -35l116 -35l3 -50q-124 3 -293 3q-175 0 -312 -3l-5 50l134 37q26 8 27 31q1 40 1.5 89.5t0.5 109.5v797q0 50 -0.5 91t-1.5 75q-1 26 -24 33l-134 39l-3 51q139 -4 308 -4q173 0 296 4l6 -51l-119 -34q-24 -7 -26 -31
q-1 -37 -1.5 -79t-0.5 -90zM573 699l410 451q49 53 77 89.5t28 58.5q0 19 -27 27l-87 22l-3 53q106 -4 232 -4q124 0 236 4l5 -51l-113 -31q-49 -15 -84 -46t-74 -73l-343 -383l440 -647q32 -45 57 -63.5t60 -28.5l97 -30l3 -50q-111 3 -229 3q-110 0 -237 -2
q-30 66 -163 268z" />
    <glyph glyph-name="L" unicode="L" horiz-adv-x="1181" 
d="M550 1115v-791q0 -110 2 -218h391l137 284l61 9l-25 -395l-7 -7q-247 3 -483 3h-248q-149 0 -276 -3l-5 50l124 37q25 7 27 31q1 40 1.5 89.5t0.5 109.5v797q0 50 -0.5 91t-1.5 75q-1 26 -24 33l-124 39l-3 51q129 -4 298 -4q174 0 302 4l5 -51l-124 -37q-24 -6 -26 -30
q-1 -36 -1.5 -102.5t-0.5 -64.5z" />
    <glyph glyph-name="M" unicode="M" horiz-adv-x="1915" 
d="M1340 1400q138 -4 249 -4q99 0 233 4l6 -51l-137 -39q-23 -7 -24 -33q-2 -66 -2 -166v-797q0 -118 2 -199q1 -23 27 -31l130 -37l4 -50q-143 3 -317 3q-169 0 -283 -3l-5 50l115 35q24 7 25 36q3 78 3 196v640q0 52 3 199q-34 -86 -72 -178l-398 -975l-90 -8l-380 947
q-34 81 -70 181q2 -142 2 -187v-619q0 -118 2 -196q1 -29 26 -36l110 -35l3 -50q-118 3 -205 3q-86 0 -225 -3l-5 50l134 37q26 8 27 31q2 81 2 199v797q0 100 -2 166q-1 26 -24 33l-134 39l-3 51q166 -4 249 -4q114 0 233 4l349 -881q23 -57 41 -108q20 51 42 108z" />
    <glyph glyph-name="N" unicode="N" horiz-adv-x="1548" 
d="M358 119q1 -29 25 -35l128 -35l3 -52q-135 3 -222 3q-86 0 -225 -3l-5 50l134 37q26 8 27 31q2 81 2 199v797q0 100 -2 166q-1 26 -24 33l-134 39l-3 51q140 -4 215 -4q98 0 186 4l665 -833q40 -50 82 -106q-2 69 -2 133v521q0 97 -2 167q-1 23 -26 30l-128 35l-3 53
q138 -4 224 -4q88 0 223 4l5 -51l-136 -39q-23 -7 -24 -33q-3 -66 -3 -166v-1111l-115 -11l-788 987q-35 45 -81 107q2 -74 2 -136v-633q0 -118 2 -195z" />
    <glyph glyph-name="O" unicode="O" horiz-adv-x="1697" 
d="M435 717q0 -320 108 -489.5t317 -169.5q206 0 304.5 154t98.5 484q0 310 -104 476.5t-322 166.5q-211 0 -306.5 -154.5t-95.5 -467.5zM1599 730q0 -346 -204 -556.5t-568 -210.5q-348 0 -538 194.5t-190 526.5q0 346 205 547.5t567 201.5q348 0 538 -188.5t190 -514.5z
" />
    <glyph glyph-name="P" unicode="P" horiz-adv-x="1314" 
d="M550 682q57 -11 113 -11q131 0 199.5 80.5t68.5 243.5q0 158 -65 235.5t-205 77.5q-55 0 -111 -8v-618zM550 314q0 -60 0.5 -107.5t1.5 -85.5q1 -23 26 -32l147 -42l3 -50q-155 3 -324 3q-175 0 -312 -3l-5 50l134 37q26 8 27 31q1 40 1.5 89.5t0.5 109.5v797
q0 50 -0.5 91t-1.5 75q-1 26 -24 33l-134 39l-3 51q140 -4 277 -4q94 0 182.5 4t161.5 4q270 0 409 -93.5t139 -277.5q0 -217 -144.5 -337.5t-407.5 -120.5q-71 0 -154 11v-272z" />
    <glyph glyph-name="Q" unicode="Q" horiz-adv-x="1696" 
d="M1627 -172l15 -55q-204 -228 -337 -228q-168 0 -297 100t-201 318q-335 7 -521.5 198.5t-186.5 522.5q0 346 205 547.5t567 201.5q348 0 538 -188.5t190 -514.5q0 -323 -176 -525.5t-466 -233.5q96 -194 421 -194q139 0 249 51zM435 717q0 -320 108 -489.5t317 -169.5
q206 0 304.5 154t98.5 484q0 310 -104 476.5t-322 166.5q-211 0 -306.5 -154.5t-95.5 -467.5z" />
    <glyph glyph-name="R" unicode="R" horiz-adv-x="1444" 
d="M547 314q0 -60 0.5 -107.5t1.5 -86.5q1 -32 23 -39l104 -34l3 -50q-111 3 -275 3q-175 0 -312 -3l-5 50l134 37q25 7 27 31q1 40 1.5 89.5t0.5 109.5v797q0 50 -0.5 91t-1.5 75q-1 26 -24 33l-134 39l-3 51q140 -4 287 -4q31 0 77 1.5t112 3.5q60 2 100.5 3t63.5 1
q257 0 385.5 -86t128.5 -251q0 -149 -78.5 -240.5t-230.5 -140.5q84 -124 129.5 -201t91.5 -151.5t83.5 -131.5t70.5 -90q18 -15 34.5 -26t34.5 -19t38.5 -13.5t45.5 -10.5l4 -51q-98 -14 -224 -14q-100 0 -140 13t-71 37q-46 36 -84.5 94t-81.5 131t-88.5 155t-95.5 162
q-15 23 -24.5 38t-19 22.5t-20 11t-26.5 4.5l-42 1v-334zM547 735q53 -3 96 -3q142 0 208 71.5t66 223.5q0 147 -63.5 214.5t-197.5 67.5q-23 0 -49.5 -2t-59.5 -6v-566z" />
    <glyph glyph-name="S" unicode="S" horiz-adv-x="1080" 
d="M772 1305q-64 25 -139 25q-106 0 -179.5 -62t-73.5 -160q0 -59 24 -101t64 -75t91.5 -59t106.5 -52q61 -29 123 -63.5t111 -82t79.5 -113.5t30.5 -160q0 -203 -153 -319t-404 -116q-181 0 -357 57l-6 9l53 360l62 10l75 -306q72 -33 160 -33q127 0 204.5 64.5t77.5 172.5
q0 61 -24 103.5t-65 76t-93 59.5t-108 52q-61 30 -122 63t-109 80t-78 112.5t-30 158.5q0 191 146 304t379 113q148 0 337 -46l6 -9l-61 -322l-55 -9z" />
    <glyph glyph-name="T" unicode="T" horiz-adv-x="1272" 
d="M641 0q-176 0 -336 -3l-5 50l160 44q25 8 26 32q2 75 2 193v977h-288l-92 -266l-56 -9l-26 374l7 8q246 -4 471 -4h279q225 0 474 4l6 -8l-66 -366l-56 -9l-65 276h-289v-977q0 -118 2 -193q1 -24 27 -32l157 -44l3 -50q-166 3 -335 3z" />
    <glyph glyph-name="U" unicode="U" horiz-adv-x="1570" 
d="M50 1400q139 -4 308 -4q174 0 308 4l5 -51l-130 -37q-24 -6 -26 -30q-1 -36 -1.5 -77.5t-0.5 -89.5v-551q0 -273 82 -377.5t266 -104.5q181 0 271.5 110.5t90.5 358.5v564q0 48 -1 89.5t-2 77.5q-1 23 -26 30l-124 35l-3 53q133 -4 230 -4q90 0 226 4l5 -51l-136 -39
q-24 -7 -25 -33q-1 -34 -1.5 -75t-0.5 -91v-508q0 -344 -141.5 -493.5t-411.5 -149.5q-307 0 -453 142.5t-146 456.5v552q0 50 -0.5 91t-1.5 75q-1 26 -24 33l-134 39z" />
    <glyph glyph-name="V" unicode="V" horiz-adv-x="1358" 
d="M736 498q19 -57 35 -110q18 53 38 109l241 642q20 56 31.5 89t11.5 52q0 17 -9.5 26t-28.5 14l-95 27l-3 53q145 -4 236 -4q95 0 216 4l6 -51l-108 -31q-37 -12 -55 -37t-40 -78l-491 -1208l-105 -10l-429 1206q-25 69 -45.5 93.5t-58.5 36.5l-97 28l-4 51q136 -4 272 -4
q181 0 353 4l5 -51l-98 -28q-20 -6 -29 -15t-9 -27q0 -20 10 -52.5t29 -86.5z" />
    <glyph glyph-name="W" unicode="W" horiz-adv-x="2009" 
d="M1425 543q17 -54 27 -107q16 55 33 104l208 599q20 59 28.5 90.5t8.5 50.5q0 17 -9.5 26t-28.5 14l-96 27l-3 53q145 -4 236 -4q95 0 217 4l5 -51l-107 -31q-38 -12 -57.5 -37t-38.5 -78l-431 -1203l-109 -9l-253 793q-20 63 -41 136q-24 -72 -46 -135l-276 -785l-108 -9
l-390 1200q-23 69 -44.5 93.5t-59.5 36.5l-97 28l-3 51q135 -4 272 -4q180 0 352 4l6 -51l-99 -28q-20 -6 -29 -15t-9 -27q0 -20 7.5 -52t24.5 -87l186 -597q16 -54 27 -107q16 55 32 104l296 861l101 9z" />
    <glyph glyph-name="X" unicode="X" horiz-adv-x="1404" 
d="M1436 -3q-139 3 -309 3q-159 0 -351 -3l-7 50l89 24q21 6 30 15.5t9 23.5q0 24 -18 56.5t-39 66.5l-217 343l-197 -307q-31 -47 -55 -88t-24 -69q0 -14 7 -23.5t28 -15.5l86 -24l3 -52q-112 3 -241 3q-116 0 -235 -3l-5 50l115 32q37 12 64 35.5t58 71.5l331 492
l-342 543q-33 52 -56.5 72.5t-55.5 28.5l-104 27l-4 51q141 -4 325 -4q159 0 336 4l6 -51l-88 -24q-21 -5 -30 -14.5t-9 -24.5q0 -24 18.5 -56.5t39.5 -66.5l171 -272l154 237q32 46 56 89t24 67q0 27 -40 39l-88 24l-3 53q111 -4 239 -4q124 0 234 4l6 -51l-112 -31
q-39 -12 -62.5 -36t-63.5 -83l-280 -410l380 -601q41 -65 62.5 -84.5t58.5 -28.5l103 -28z" />
    <glyph glyph-name="Y" unicode="Y" horiz-adv-x="1264" 
d="M744 757l192 382q27 50 43 85t16 57q0 30 -45 42l-90 24l-3 53q111 -4 233 -4q111 0 219 4l5 -51l-106 -31q-36 -12 -55.5 -35.5t-39.5 -59.5l-316 -585v-324q0 -60 0.5 -109t1.5 -88q1 -26 35 -35l112 -35l3 -50q-129 3 -298 3q-174 0 -302 -3l-5 50l124 37q25 7 27 31
q1 40 2 89.5t1 109.5v300l-325 582q-37 61 -60.5 87.5t-62.5 38.5l-96 27l-4 51q99 -4 281 -4q200 0 379 4l5 -51l-102 -25q-23 -5 -34 -14.5t-11 -24.5q0 -21 14 -51t39 -71z" />
    <glyph glyph-name="Z" unicode="Z" horiz-adv-x="1207" 
d="M70 -3l-5 50l693 1248h-489l-74 -243l-56 -8l-53 348l6 8q255 -4 480 -4h262q143 0 287 4l5 -51l-691 -1246h503l141 292l58 9l-27 -400l-6 -7q-284 3 -504 3h-268q-140 0 -262 -3z" />
    <glyph glyph-name="bracketleft" unicode="[" horiz-adv-x="727" 
d="M388 -248l247 -57l2 -51h-427v1905h425l2 -51l-249 -57v-1689z" />
    <glyph glyph-name="backslash" unicode="\" horiz-adv-x="825" 
d="M585 -226l-505 1652h140l505 -1652h-140z" />
    <glyph glyph-name="bracketright" unicode="]" horiz-adv-x="727" 
d="M339 1441l-247 57l-2 51h427v-1905h-425l-2 51l249 57v1689z" />
    <glyph glyph-name="asciicircum" unicode="^" horiz-adv-x="1130" 
d="M636 1396l390 -834h-149l-314 678l-313 -678h-145l390 834h141z" />
    <glyph glyph-name="underscore" unicode="_" horiz-adv-x="1024" 
d="M1024 -268h-1024v90h1024v-90z" />
    <glyph glyph-name="grave" unicode="`" horiz-adv-x="840" 
d="M481 1044h-84l-248 378h242zM0 930z" />
    <glyph glyph-name="a" unicode="a" horiz-adv-x="1097" 
d="M635 445q-157 0 -224 -40t-67 -137q0 -88 47.5 -125.5t112.5 -37.5q74 0 129 38zM146 858q213 97 410 97q180 0 269.5 -80.5t88.5 -231.5l-5 -416q-2 -51 2 -82t18.5 -47.5t43 -23.5t82.5 -8l6 -46q-140 -48 -241 -48q-136 0 -179 107q-127 -107 -269 -107
q-139 0 -229 69.5t-90 195.5q0 157 145.5 230t436.5 73l1 75q1 107 -51.5 157.5t-163.5 50.5q-103 0 -247 -45z" />
    <glyph glyph-name="b" unicode="b" horiz-adv-x="1247" 
d="M459 90q66 -18 132 -18q136 0 203.5 100.5t67.5 286.5q0 170 -63 265t-186 95q-78 0 -154 -33v-696zM465 1499q-6 -149 -6 -447v-191q153 94 298 94q190 0 300.5 -126.5t110.5 -330.5q0 -249 -157.5 -387t-436.5 -138q-175 0 -401 65q2 119 2 319v593q0 221 -4 399
l-147 40l-6 41q249 37 436 77z" />
    <glyph glyph-name="c" unicode="c" horiz-adv-x="992" 
d="M922 66q-166 -94 -343 -94q-219 0 -360 127t-141 339q0 231 153.5 374t391.5 143q151 0 291 -57q-36 -141 -63 -296l-55 -9l-77 250q-27 10 -73 10q-114 0 -187 -99.5t-73 -266.5q0 -195 92.5 -287.5t263.5 -92.5q82 0 172 19z" />
    <glyph glyph-name="d" unicode="d" horiz-adv-x="1270" 
d="M787 831q-54 19 -121 19q-137 0 -209 -94.5t-72 -284.5q0 -165 64 -264t180 -99q86 0 158 37v686zM629 1430q244 37 436 77l12 -8q-7 -214 -7 -460v-544q0 -131 1 -270q0 -51 4 -82t17.5 -47.5t41.5 -22.5t82 -7l6 -44q-146 -50 -249 -50q-134 0 -176 109
q-131 -109 -290 -109q-198 0 -313 130.5t-115 326.5q0 250 148.5 386.5t415.5 136.5q66 0 144 -11q0 211 -4 408l-147 40z" />
    <glyph glyph-name="e" unicode="e" horiz-adv-x="1101" 
d="M1022 66q-185 -94 -390 -94q-244 0 -398.5 120.5t-154.5 355.5q0 224 148.5 365.5t378.5 141.5q201 0 310.5 -108.5t109.5 -299.5q0 -29 -3 -60h-639q0 -201 98.5 -289t323.5 -88q109 0 208 19zM722 584v24q0 136 -34.5 195t-105.5 59q-85 0 -135.5 -81.5t-58.5 -196.5
h334z" />
    <glyph glyph-name="f" unicode="f" horiz-adv-x="725" 
d="M483 810v-528q0 -94 2 -164q2 -28 26 -35l137 -38l3 -48q-161 3 -307 3q-149 0 -294 -3l-5 48l123 33q28 8 29 32q3 62 3 131v574l-146 35l-9 54l156 13q0 280 126.5 435t351.5 155q119 0 217 -28q-32 -141 -53 -283l-55 -11l-62 224q-15 3 -35 3q-105 0 -156.5 -99.5
t-51.5 -366.5v-27h242v-109h-242z" />
    <glyph glyph-name="g" unicode="g" horiz-adv-x="1117" 
d="M1107 877l-232 -59q74 -85 74 -192q0 -161 -116.5 -256.5t-306.5 -95.5q-118 0 -208 34q-39 -71 -39 -118q0 -26 26.5 -35t109.5 -9q60 0 147 1.5t158 1.5q169 0 260 -62.5t91 -189.5q0 -187 -185.5 -299.5t-419.5 -112.5q-193 0 -305.5 57.5t-112.5 148.5q0 118 156 244
q-103 42 -103 124q0 99 151 280q-152 89 -152 265q0 156 116.5 251t314.5 95q52 0 141 -12q86 -14 133 -14q164 0 296 3zM291 -78q-48 -89 -48 -165q0 -78 72.5 -122.5t197.5 -44.5q150 0 260 58.5t110 157.5q0 54 -45 86t-198 32q-60 1 -130 -2t-130 -3q-43 0 -89 3z
M384 621q0 -130 33 -201t112 -71q80 0 109.5 66.5t29.5 194.5q0 123 -32 194t-114 71q-80 0 -109 -65t-29 -189z" />
    <glyph glyph-name="h" unicode="h" horiz-adv-x="1305" 
d="M813 955q146 0 229 -79.5t83 -225.5v-351q0 -125 2 -185q1 -27 26 -34l121 -35l3 -48q-143 3 -288 3q-150 0 -270 -3l-4 48l100 30q23 7 25 30q1 15 1 63v419q0 123 -48 176.5t-143 53.5q-83 0 -171 -38v-440q0 -125 2 -229q1 -27 23 -33l104 -32l2 -48q-124 3 -270 3
q-149 0 -293 -3l-5 48l129 35q22 6 23 30q1 64 1 123v875q0 131 -4 241l-147 40l-6 41q250 37 436 77l11 -8q-6 -138 -6 -294v-351q169 101 334 101z" />
    <glyph glyph-name="i" unicode="i" horiz-adv-x="679" 
d="M487 1290q0 -69 -44.5 -112t-116.5 -43q-66 0 -108.5 40.5t-42.5 105.5q0 71 45 112t117 41q66 0 108 -37.5t42 -106.5zM47 882q246 37 432 77l11 -8q-6 -138 -6 -294v-377q0 -119 2 -166q2 -27 25 -34l125 -35l3 -48q-148 3 -294 3q-149 0 -294 -3l-5 48l127 35
q23 6 25 30q2 39 2 131v322q0 131 -4 241l-143 37z" />
    <glyph glyph-name="j" unicode="j" horiz-adv-x="644" 
d="M32 882q246 37 431 77l12 -8q-6 -130 -6 -285v-535q0 -200 -108 -333t-315 -302l-57 49q140 188 168 281t28 258v484q0 121 -4 236l-143 37zM472 1290q0 -69 -44.5 -112t-116.5 -43q-66 0 -108.5 40.5t-42.5 105.5q0 71 44.5 112t117.5 41q66 0 108 -37.5t42 -106.5z" />
    <glyph glyph-name="k" unicode="k" horiz-adv-x="1248" 
d="M38 1430q250 37 436 77l11 -8q-6 -138 -6 -294v-927q0 -119 2 -166q2 -27 25 -34l108 -33l4 -48q-132 3 -278 3q-149 0 -294 -3l-5 48l127 35q23 6 25 30q2 39 2 131v867q0 131 -4 241l-147 40zM1248 -3q-182 3 -270 3q-62 0 -150 -2q-33 57 -78 125q-115 177 -253 357
l384 376l-110 29l-5 47q122 -3 209 -3q71 0 232 3l5 -48q-124 -28 -170.5 -52t-102.5 -76l-183 -175l305 -428q32 -43 59.5 -63t123.5 -45z" />
    <glyph glyph-name="l" unicode="l" horiz-adv-x="674" 
d="M38 1430q250 37 436 77l11 -8q-6 -138 -6 -294v-925q0 -119 2 -166q2 -27 25 -34l125 -35l3 -48q-148 3 -294 3q-149 0 -294 -3l-5 48l127 35q23 6 25 30q2 39 2 131v867q0 131 -4 241l-147 40z" />
    <glyph glyph-name="m" unicode="m" horiz-adv-x="1917" 
d="M1737 299q0 -125 2 -185q1 -27 26 -34l121 -35l3 -48q-143 3 -288 3q-150 0 -264 -3l-5 48l95 30q23 7 25 30q1 15 1 63v419q0 123 -45.5 176.5t-136.5 53.5q-82 0 -174 -58q14 -49 14 -109v-351q0 -125 2 -189q1 -27 23 -33l100 -32l2 -48q-118 3 -263 3q-150 0 -264 -3
l-4 48l94 30q23 7 25 30q1 15 1 63v419q0 123 -45.5 176.5t-135.5 53.5q-78 0 -162 -48v-430q0 -125 2 -229q1 -27 23 -33l100 -32l2 -48q-120 3 -266 3q-149 0 -293 -3l-5 48l129 35q22 6 23 30q1 64 1 123v329q0 131 -4 242l-143 37l-6 41q231 34 422 76l15 -8v-107
q164 112 324 112q182 0 263 -132q186 132 363 132q141 0 222 -79.5t81 -225.5v-351z" />
    <glyph glyph-name="n" unicode="n" horiz-adv-x="1310" 
d="M47 882q231 34 422 76l15 -8v-107q169 112 334 112q146 0 229 -79.5t83 -225.5v-351q0 -125 2 -185q1 -27 26 -34l121 -35l3 -48q-143 3 -288 3q-150 0 -270 -3l-4 48l100 30q23 7 25 30q1 15 1 63v419q0 123 -48 176.5t-143 53.5q-83 0 -171 -48v-430q0 -125 2 -229
q1 -27 23 -33l104 -32l2 -48q-124 3 -270 3q-149 0 -293 -3l-5 48l129 35q22 6 23 30q1 64 1 123v329q0 131 -4 242l-143 37z" />
    <glyph glyph-name="o" unicode="o" horiz-adv-x="1226" 
d="M390 475q0 -182 54.5 -295.5t174.5 -113.5q112 0 164.5 100t52.5 297q0 185 -55.5 291.5t-173.5 106.5q-110 0 -163.5 -96t-53.5 -290zM1146 483q0 -228 -152 -369.5t-396 -141.5q-237 0 -378 133.5t-141 349.5q0 219 148 359.5t400 140.5q239 0 379 -129.5t140 -342.5z
" />
    <glyph glyph-name="p" unicode="p" horiz-adv-x="1252" 
d="M33 841l-6 41q231 34 423 76l15 -8v-94q155 99 299 99q188 0 298.5 -124.5t110.5 -325.5q0 -249 -155.5 -391t-410.5 -142q-68 0 -142 14v-211q0 -99 2 -139q2 -31 27 -37l141 -37l3 -48q-166 3 -312 3q-150 0 -294 -3l-5 48l126 35q24 6 25 30q2 74 2 222v399
q0 436 -4 556zM465 86q70 -15 135 -15q132 0 200 101t68 289q0 177 -64 267.5t-185 90.5q-87 0 -154 -33v-700z" />
    <glyph glyph-name="q" unicode="q" horiz-adv-x="1239" 
d="M786 838q-64 16 -124 16q-141 0 -209.5 -101t-68.5 -283q0 -168 62.5 -265t181.5 -97q84 0 158 34v696zM1076 951q-7 -195 -7 -461v-654q0 -165 1 -205q1 -27 24 -33l123 -36l4 -48q-145 3 -291 3q-149 0 -293 -3l-5 48l126 35q25 7 26 30q2 121 2 304v136
q-139 -95 -289 -95q-190 0 -304.5 130.5t-114.5 326.5q0 248 151.5 387t415.5 139q114 0 240 -31q76 12 179 35z" />
    <glyph glyph-name="r" unicode="r" horiz-adv-x="889" 
d="M47 882q231 34 422 76l15 -8v-108q177 113 370 113l5 -7q-32 -159 -61 -340l-58 -10q-26 99 -51 152t-78 53q-51 0 -127 -34v-429q0 -155 2 -222q1 -28 25 -35l143 -38l3 -48q-166 3 -317 3q-144 0 -288 -3l-5 48l127 35q24 7 25 30q1 43 1 123v334q0 163 -4 237l-143 37
z" />
    <glyph glyph-name="s" unicode="s" horiz-adv-x="935" 
d="M654 842q-63 15 -136 15q-91 0 -148.5 -32t-57.5 -91q0 -45 25 -69.5t86 -45.5l160 -56q143 -49 209 -118.5t66 -162.5q0 -147 -123.5 -228.5t-324.5 -81.5q-168 0 -330 69q34 134 56 260l51 8l72 -218q61 -21 153 -21q87 0 141 33t54 92q0 49 -32.5 82.5t-129.5 66.5
l-122 42q-117 41 -176 106.5t-59 160.5q0 146 115 224t317 78q166 0 300 -49q-30 -131 -51 -248l-55 -8z" />
    <glyph glyph-name="t" unicode="t" horiz-adv-x="798" 
d="M453 810q-6 -312 -6 -529q0 -101 31 -139.5t119 -38.5q68 0 148 8l8 -60q-159 -78 -297 -78q-140 0 -216.5 58.5t-76.5 176.5q0 208 6 607l-135 35l-9 54l167 15l95 235q85 15 155 29l14 -7q-3 -121 -3 -257h280v-109h-280z" />
    <glyph glyph-name="u" unicode="u" horiz-adv-x="1284" 
d="M816 80q-147 -108 -320 -108q-162 0 -244 80t-82 225v212q0 214 -4 315l-143 37l-6 41q245 37 432 77l11 -8q-6 -125 -6 -309v-308q0 -119 46.5 -172.5t131.5 -53.5q95 0 174 41v426q0 140 -4 231l-135 35l-6 41q237 37 423 77l12 -8q-7 -128 -7 -315q0 -363 1 -443
q1 -40 6 -64.5t19 -37.5t41.5 -18.5t78.5 -6.5l5 -44q-144 -50 -248 -50q-134 0 -176 108z" />
    <glyph glyph-name="v" unicode="v" horiz-adv-x="1061" 
d="M-26 932q131 -3 276 -3q138 0 264 3l6 -48l-107 -30q64 -187 151 -409q23 -59 47 -130q25 69 50 130q80 201 157 409l-104 30l-5 48q73 -3 182 -3q90 0 179 3l5 -48l-108 -29q-25 -8 -39 -39q-78 -182 -183.5 -436.5t-158.5 -388.5l-128 -14q-55 147 -159.5 401
t-177.5 433q-16 35 -44 45l-100 28z" />
    <glyph glyph-name="w" unicode="w" horiz-adv-x="1563" 
d="M918 934q59 -177 164 -485q21 -62 43 -133q23 69 47 133q74 199 144 405l-104 30l-5 48q73 -3 183 -3q89 0 178 3l5 -48l-108 -29q-25 -8 -39 -39q-74 -181 -174.5 -434t-151.5 -386l-128 -14q-53 146 -143 401q-26 80 -48 146q-26 -68 -53 -146q-97 -254 -149 -387
l-128 -14q-53 146 -152 398.5t-169 430.5q-16 35 -44 45l-100 28l-3 48q131 -3 276 -3q138 0 264 3l6 -48l-107 -30q58 -185 139 -405q21 -62 43 -133q23 69 48 133q98 275 166 476z" />
    <glyph glyph-name="x" unicode="x" horiz-adv-x="1093" 
d="M277 650l-104 164q-20 31 -53 43l-98 27l-5 48q132 -3 281 -3q114 0 237 3l5 -48l-80 -22q47 -79 148 -245q97 136 170 243l-75 24l-6 48q79 -3 156 -3q95 0 177 3l5 -48l-105 -26q-26 -8 -48 -37q-101 -128 -219 -293q145 -232 266 -416q19 -29 52 -40l96 -27l6 -48
q-132 3 -281 3q-113 0 -236 -3l-5 48l79 22q-62 101 -172 272q-101 -140 -188 -270l75 -24l5 -48q-76 3 -153 3q-96 0 -189 -3l-5 48l108 26q32 10 59 44q107 136 234 313z" />
    <glyph glyph-name="y" unicode="y" horiz-adv-x="1049" 
d="M-36 932q133 -3 241 -3q140 0 298 3l5 -48l-125 -32q39 -98 74 -187t93 -225q26 -57 56 -133q30 78 61 155q81 213 149 392l-104 30l-5 48q78 -3 184 -3q92 0 176 3l5 -48l-96 -26q-32 -10 -46 -41q-35 -83 -78 -184q-130 -311 -202 -516q-46 -133 -83 -271.5t-59 -243.5
q-11 -57 -41 -78t-135 -21q-110 0 -210 8l-5 46q116 15 162 64q66 69 203 372l7 19l-53 15q-180 445 -327 789q-12 31 -45 41l-96 27z" />
    <glyph glyph-name="z" unicode="z" horiz-adv-x="1041" 
d="M75 9q153 245 248 404t252 420h-315l-65 -204l-49 -7q-22 156 -49 301l3 9q200 -3 377 -3q274 0 467 3l8 -11q-132 -213 -245 -403.5t-247 -418.5h318l125 210l53 7q-18 -157 -25 -312l-7 -7q-172 3 -383 3q-295 0 -459 -3z" />
    <glyph glyph-name="braceleft" unicode="{" horiz-adv-x="740" 
d="M70 618q89 16 131 56.5t42 156.5v442q0 151 80.5 219t299.5 67l2 -54q-70 -15 -108 -35.5t-55.5 -50t-20.5 -70.5t-3 -98v-324q0 -151 -44.5 -223t-159.5 -104v-6q115 -32 159.5 -104t44.5 -223v-324q0 -57 3 -98t20.5 -70.5t55.5 -50t106 -35.5l2 -54q-221 -1 -301.5 67
t-80.5 219v442q0 116 -42 156.5t-129 56.5z" />
    <glyph glyph-name="bar" unicode="|" horiz-adv-x="722" 
d="M432 1525v-2033h-142v2033h142z" />
    <glyph glyph-name="braceright" unicode="}" horiz-adv-x="740" 
d="M670 576q-89 -16 -131 -56.5t-42 -156.5v-442q0 -151 -80.5 -219t-299.5 -67l-2 54q70 15 108 35.5t55.5 50t20.5 70.5t3 98v324q0 151 44.5 223t159.5 104v6q-115 32 -159.5 104t-44.5 223v324q0 57 -3 98t-20.5 70.5t-55.5 50t-106 35.5l-2 54q221 1 301.5 -67
t80.5 -219v-442q0 -116 42 -156.5t129 -56.5z" />
    <glyph glyph-name="asciitilde" unicode="~" horiz-adv-x="1130" 
d="M83 507q138 88 259 88q66 0 127.5 -20t122.5 -44q57 -23 111 -42t112 -19q98 0 232 87v-141q-130 -83 -251 -83q-66 0 -128.5 20t-123.5 44q-58 22 -112 40t-111 18q-100 0 -238 -89v141z" />
    <glyph glyph-name="exclamdown" unicode="&#xa1;" horiz-adv-x="564" 
d="M286 511l114 -950l-312 -12l-9 8l129 950zM248 652q-67 0 -110 41t-43 109t43 110.5t110 42.5q69 0 111.5 -42.5t42.5 -110.5t-42.5 -109t-111.5 -41z" />
    <glyph glyph-name="cent" unicode="&#xa2;" horiz-adv-x="929" 
d="M637 1085l-4 -146q123 -6 250 -55q-17 -69 -32 -135.5t-29 -142.5l-51 -8l-72 232q-31 8 -68 9l-18 -713q45 -9 97 -9q77 0 173 24l7 -59q-135 -77 -280 -88l-3 -145l-92 -8l3 152q-199 15 -315 136.5t-116 308.5q0 202 124 340t330 159l4 140zM377 485q0 -247 145 -327
l17 668q-162 -61 -162 -341z" />
    <glyph glyph-name="sterling" unicode="&#xa3;" horiz-adv-x="1083" 
d="M131 493v105h149l-3 94q-2 169 116.5 271t314.5 102q131 0 268 -39l6 -10l-56 -282l-46 -9l-63 224q-49 23 -105 23q-83 0 -132.5 -69.5t-47.5 -196.5l2 -108h257v-105h-255q-3 -188 -183 -305l1 -6h519l74 175l58 8l-22 -361l-7 -7q-174 3 -427 3q-305 0 -484 -3l-5 80
q67 22 111.5 42.5t70.5 51.5t36 78.5t8 125.5l-3 118h-152z" />
    <glyph glyph-name="currency" unicode="&#xa4;" horiz-adv-x="1142" 
d="M165 1197l153 -154q109 75 252 75q147 0 253 -75l154 154l100 -99l-155 -155q75 -111 75 -249t-77 -252l156 -156l-99 -100l-158 158q-113 -73 -249 -73q-142 0 -248 72l-157 -157l-99 100l155 155q-77 108 -77 253t74 250l-153 154zM292 694q0 -132 76.5 -217.5
t201.5 -85.5t202 86t77 217q0 133 -78 218.5t-201 85.5q-121 0 -199.5 -83.5t-78.5 -220.5z" />
    <glyph glyph-name="yen" unicode="&#xa5;" horiz-adv-x="1076" 
d="M160 263v95h254v112h-255v95h198l-173 285q-17 28 -29.5 47.5t-24.5 32.5t-27 22t-37 17l-68 26l-3 48q48 -2 108 -3t148 -1q94 0 176 1t152 3l5 -48l-76 -24q-24 -8 -34 -19t-10 -27q0 -20 13.5 -46.5t31.5 -59.5l138 -242l111 217q23 47 38.5 77.5t15.5 51.5
q0 16 -10.5 27.5t-34.5 19.5l-65 23l-3 50q43 -2 90.5 -3t100.5 -1q54 0 100.5 1t86.5 3l5 -48l-63 -26q-20 -8 -34 -17.5t-25 -21.5t-20.5 -27.5t-21.5 -36.5l-170 -301h197v-95h-248v-112h248v-95h-248q0 -45 0.5 -83t1.5 -69q1 -13 9.5 -20.5t23.5 -12.5l106 -34l3 -47
q-122 3 -282 3q-165 0 -286 -3l-4 47l112 36q13 4 21 10.5t10 26.5q2 22 2 42v41v63h-254z" />
    <glyph glyph-name="brokenbar" unicode="&#xa6;" horiz-adv-x="742" 
d="M290 854v671h162v-671h-162zM290 -68v671h162v-671h-162z" />
    <glyph glyph-name="section" unicode="&#xa7;" horiz-adv-x="1154" 
d="M777 1305q-68 25 -150 25q-112 0 -192 -49.5t-80 -128.5q0 -45 25 -78.5t66 -59t95 -47t111 -42.5q66 -24 130.5 -52.5t116 -68.5t83.5 -95.5t32 -133.5q0 -190 -199 -300q156 -95 156 -254q0 -182 -147 -283t-395 -101q-182 0 -357 57l-6 9l53 360l62 10l75 -306
q72 -33 160 -33q124 0 203 51t79 141q0 46 -25 80t-66 60t-95 47.5t-111 42.5q-65 24 -129.5 52.5t-116 68t-83.5 94t-32 132.5q0 187 216 290q-173 96 -173 263q0 170 146 268.5t382 98.5q156 0 349 -46l6 -9l-61 -322l-55 -9zM767 456q0 37 -14.5 67t-39.5 54t-59 44
t-74 37q-52 23 -109 43.5t-114 43.5q-71 -50 -71 -123q0 -38 15 -67.5t41 -53.5t61 -44t76 -37q54 -23 113 -44t116 -46q59 52 59 126z" />
    <glyph glyph-name="dieresis" unicode="&#xa8;" horiz-adv-x="840" 
d="M348 1294q0 -64 -40.5 -102.5t-104.5 -38.5q-60 0 -98.5 36.5t-38.5 95.5q0 64 40.5 101.5t105.5 37.5q60 0 98 -34.5t38 -95.5zM774 1294q0 -64 -40.5 -102.5t-104.5 -38.5q-60 0 -98.5 36.5t-38.5 95.5q0 64 40.5 101.5t105.5 37.5q60 0 98 -34.5t38 -95.5zM0 930z" />
    <glyph glyph-name="copyright" unicode="&#xa9;" horiz-adv-x="1631" 
d="M818 1386q307 0 511 -201t204 -510q0 -296 -204 -494.5t-514 -198.5t-514.5 198.5t-204.5 499.5q0 308 207 507t515 199zM816 1291q-267 0 -433 -171t-166 -436q0 -266 167.5 -436.5t434.5 -170.5q262 0 428 168t166 434q0 271 -168 441.5t-429 170.5zM1076 781l-40 -6
l-56 211q-42 18 -89 18q-116 0 -179.5 -81.5t-63.5 -215.5q0 -145 84.5 -227t224.5 -82q81 0 170 42l12 -44q-136 -99 -303 -99q-183 0 -308 104t-125 280q0 186 135 290.5t348 104.5q114 0 234 -30l4 -7z" />
    <glyph glyph-name="ordfeminine" unicode="&#xaa;" horiz-adv-x="723" 
d="M402 913q-81 0 -115 -20t-34 -69q0 -44 22 -63t55 -19q39 0 71 29zM99 1143q144 69 275 69q121 0 180 -42t59 -120l-4 -216q-2 -38 1 -61.5t14 -36t32.5 -18t62.5 -5.5l4 -35q-105 -36 -181 -36q-103 0 -135 76q-80 -76 -169 -76q-85 0 -141.5 42t-56.5 117
q0 96 90.5 140t271.5 44l1 35q1 48 -31.5 71t-100.5 23q-63 0 -151 -31zM50 402v91h645v-91h-645z" />
    <glyph glyph-name="guillemotleft" unicode="&#xab;" horiz-adv-x="1058" 
d="M466 61q-192 232 -377 390l-4 37q190 159 381 391l56 -29q-85 -186 -205 -375q120 -196 206 -386zM886 61q-192 232 -377 390l-4 37q190 159 381 391l56 -29q-85 -186 -205 -375q120 -196 206 -386z" />
    <glyph glyph-name="logicalnot" unicode="&#xac;" horiz-adv-x="1130" 
d="M83 532h964v-542h-141v401h-823v141z" />
    <glyph glyph-name="registered" unicode="&#xae;" horiz-adv-x="848" 
d="M436 1409q161 0 259 -93t98 -253q0 -163 -99.5 -259.5t-263.5 -96.5q-160 0 -257.5 96.5t-97.5 256.5q0 158 102.5 253.5t258.5 95.5zM431 1357q-125 0 -203.5 -79t-78.5 -217q0 -140 78 -221t206 -81q130 0 207.5 77.5t77.5 224.5q0 136 -79 216t-208 80zM390 1021v-44
t1 -36q1 -15 9 -17l40 -11l1 -19q-25 1 -47.5 1h-45.5h-54.5t-53.5 -1l-2 19l49 14q10 4 11 13q1 16 1 37v45v102v39t-1 31q-1 12 -12 15l-47 13l-1 21q26 -1 51 -1.5t50 -0.5q15 0 47.5 2t54.5 2q147 0 147 -88q0 -61 -79 -91q29 -43 47.5 -75.5t41.5 -54.5
q12 -12 21 -16.5t30 -8.5l2 -18q-28 -6 -60 -6q-28 0 -45 4.5t-32 16.5q-13 11 -32.5 43.5l-37.5 62.5q-11 22 -17 27t-20 5h-17v-25zM390 1080q9 -1 25 -1q80 0 80 66q0 34 -18 50t-58 16q-11 0 -29 -2v-129z" />
    <glyph glyph-name="macron" unicode="&#xaf;" horiz-adv-x="840" 
d="M133 1184v122h573v-122h-573zM0 930z" />
    <glyph glyph-name="macron" unicode="&#x2c9;" horiz-adv-x="840" 
d="M133 1184v122h573v-122h-573zM0 930z" />
    <glyph glyph-name="degree" unicode="&#xb0;" horiz-adv-x="702" 
d="M165 1095q0 -90 54 -147v1q55 -55 142 -55q43 0 79 15t62 41.5t40.5 63.5t14.5 81q0 45 -14.5 82t-40 64t-62 42t-79.5 15q-44 0 -80 -15t-62 -41.5t-40 -64t-14 -82.5zM50 1094q0 67 24 124.5t66 99t98.5 65t122.5 23.5t122.5 -22.5t98.5 -63.5t66 -98t24 -126
q0 -136 -90 -223h1q-45 -45 -100.5 -66t-121.5 -21q-65 0 -121.5 23t-98.5 64t-66.5 97.5t-24.5 123.5z" />
    <glyph glyph-name="plusminus" unicode="&#xb1;" horiz-adv-x="1130" 
d="M83 703h412v322h141v-322h411v-141h-411v-321h-141v321h-412v141zM83 141h964v-141h-964v141z" />
    <glyph glyph-name="uni00B2" unicode="&#xb2;" horiz-adv-x="738" 
d="M616 1261q0 -63 -23.5 -118t-73.5 -110t-127 -115t-185 -134l1 -4h370l57 121l37 7l-13 -243l-8 -9q-91 2 -300 2q-218 0 -301 -2l-4 79q63 48 120.5 96.5t102.5 88.5q46 41 76 78t47.5 72t24.5 69.5t7 71.5q0 90 -45 137.5t-127 47.5q-81 0 -163 -41l-28 56
q56 34 118.5 56.5t146.5 22.5q127 0 208.5 -62t81.5 -167z" />
    <glyph glyph-name="uni00B3" unicode="&#xb3;" horiz-adv-x="738" 
d="M141 1124q134 5 205.5 43.5t71.5 110.5q0 56 -37.5 89.5t-107.5 33.5q-104 0 -201 -47l-28 57q142 79 300 79q135 0 203.5 -46t68.5 -127q0 -62 -57 -112.5t-166 -74.5v-4q127 -2 197.5 -52t70.5 -130q0 -66 -37 -122.5t-113.5 -97.5t-193.5 -64t-276 -22l-5 63
q124 0 205.5 20t129.5 51t67 70.5t19 78.5q0 70 -50.5 108.5t-155.5 38.5q-44 0 -105 -9z" />
    <glyph glyph-name="acute" unicode="&#xb4;" horiz-adv-x="840" 
d="M445 1422h242l-248 -378h-84zM0 930z" />
    <glyph glyph-name="mu" unicode="&#xb5;" horiz-adv-x="1267" 
d="M170 -494v1136q0 142 -11 263q152 22 285 54l12 -8q-7 -131 -7 -285v-318q0 -105 45 -149.5t119 -44.5q52 0 101 25t84 70v393q0 144 -12 263q153 22 286 54l12 -8q-7 -131 -7 -285v-184q0 -201 3 -290q3 -57 21 -78q20 -20 59 -27t108 -8l6 -49q-168 -55 -279 -55
q-88 0 -137.5 36.5t-59.5 121.5q-38 -81 -95 -124t-119 -43q-93 0 -160 95q8 -233 43 -524q-149 -16 -283 -38z" />
    <glyph glyph-name="paragraph" unicode="&#xb6;" horiz-adv-x="1228" 
d="M949 -308l-190 -10l-9 8l61 1614l-90 3l-35 -810q-39 -4 -82 -4q-276 0 -430 125t-154 354q0 207 135.5 319.5t392.5 112.5q71 0 153 -4t167 -4q61 0 126.5 1t126.5 3l5 -51l-170 -42q-24 -5 -26 -32q-1 -31 -1 -67.5v-88.5z" />
    <glyph glyph-name="periodcentered" unicode="&#xb7;" horiz-adv-x="585" 
d="M294 665q69 0 115 -44t46 -116q0 -70 -46 -115.5t-115 -45.5q-73 0 -118.5 45.5t-45.5 115.5q0 72 45.5 116t118.5 44z" />
    <glyph glyph-name="periodcentered" unicode="&#x2219;" horiz-adv-x="585" 
d="M294 665q69 0 115 -44t46 -116q0 -70 -46 -115.5t-115 -45.5q-73 0 -118.5 45.5t-45.5 115.5q0 72 45.5 116t118.5 44z" />
    <glyph glyph-name="cedilla" unicode="&#xb8;" horiz-adv-x="840" 
d="M239 -192l148 192h91l-78 -105q117 -50 117 -134q0 -112 -213 -255l-38 41q98 80 98 148q0 74 -121 105z" />
    <glyph glyph-name="uni00B9" unicode="&#xb9;" horiz-adv-x="738" 
d="M468 744q0 -16 17 -21l139 -29l2 -38q-129 2 -253 2q-132 0 -251 -2l-2 38l143 29q15 4 15 19q1 29 1 67.5v73.5v228q0 79 -0.5 140.5t-2.5 121.5l-171 20l-4 43q197 21 364 41l9 -9q-4 -66 -5.5 -136.5t-1.5 -145.5v-280v-91t1 -71z" />
    <glyph glyph-name="ordmasculine" unicode="&#xba;" horiz-adv-x="791" 
d="M68 401v91h653v-91h-653zM277 933q0 -98 28.5 -159t92.5 -61q60 0 88 53.5t28 160.5q0 99 -30 156.5t-91 57.5q-60 0 -88 -52t-28 -156zM742 938q0 -132 -99.5 -214t-255.5 -82q-155 0 -246.5 77.5t-91.5 202.5q0 127 96.5 208.5t258.5 81.5q156 0 247 -75.5t91 -198.5z
" />
    <glyph glyph-name="guillemotright" unicode="&#xbb;" horiz-adv-x="1058" 
d="M172 879q192 -232 377 -390l4 -37q-190 -159 -381 -391l-56 29q85 186 205 375q-120 196 -206 386zM592 879q192 -232 377 -390l4 -37q-190 -159 -381 -391l-56 29q85 186 205 375q-120 196 -206 386z" />
    <glyph glyph-name="onequarter" unicode="&#xbc;" horiz-adv-x="1687" 
d="M488 744q0 -16 17 -21l139 -29l2 -38q-129 2 -253 2q-132 0 -251 -2l-2 38l143 29q15 4 15 19q1 29 1 67.5v73.5v228q0 79 -0.5 140.5t-2.5 121.5l-171 20l-4 43q197 21 364 41l9 -9q-4 -66 -5.5 -136.5t-1.5 -145.5v-280v-91t1 -71zM388 10l946 1477l95 -67l-947 -1477z
M1316 310v295q-27 -31 -59.5 -69.5t-65.5 -78t-63 -78t-53 -69.5h241zM1523 62q27 -6 55 -13t55 -13l1 -38q-99 2 -223 2q-138 0 -223 -2l-5 38l117 26q15 3 15 19q1 33 1 67v70h-161h-90t-108 -1l-4 65q51 58 107.5 126.5t113 140.5t110.5 143t99 134l126 5q-2 -64 -3 -127
t-1 -119v-275h135l3 -93q-30 1 -66 1h-72v-76t1 -59q2 -17 17 -21z" />
    <glyph glyph-name="onehalf" unicode="&#xbd;" horiz-adv-x="1687" 
d="M488 744q0 -16 17 -21l139 -29l2 -38q-129 2 -253 2q-132 0 -251 -2l-2 38l143 29q15 4 15 19q1 29 1 67.5v73.5v228q0 79 -0.5 140.5t-2.5 121.5l-171 20l-4 43q197 21 364 41l9 -9q-4 -66 -5.5 -136.5t-1.5 -145.5v-280v-91t1 -71zM338 10l946 1477l95 -67l-947 -1477z
M1565 603q0 -63 -23.5 -118t-73.5 -110t-127 -115t-185 -134l1 -4h370l57 121l37 7l-13 -243l-8 -9q-91 2 -300 2q-218 0 -301 -2l-4 79q63 48 120.5 96.5t102.5 88.5q46 41 76 78t47.5 72t24.5 69.5t7 71.5q0 90 -45 137.5t-127 47.5q-81 0 -163 -41l-28 56
q56 34 118.5 56.5t146.5 22.5q127 0 208.5 -62t81.5 -167z" />
    <glyph glyph-name="threequarters" unicode="&#xbe;" horiz-adv-x="1687" 
d="M161 1124q134 5 205.5 43.5t71.5 110.5q0 56 -37.5 89.5t-107.5 33.5q-104 0 -201 -47l-28 57q142 79 300 79q135 0 203.5 -46t68.5 -127q0 -62 -57 -112.5t-166 -74.5v-4q127 -2 197.5 -52t70.5 -130q0 -66 -37 -122.5t-113.5 -97.5t-193.5 -64t-276 -22l-5 63
q124 0 205.5 20t129.5 51t67 70.5t19 78.5q0 70 -50.5 108.5t-155.5 38.5q-44 0 -105 -9zM368 10l946 1477l95 -67l-947 -1477zM1316 310v295q-27 -31 -59.5 -69.5t-65.5 -78t-63 -78t-53 -69.5h241zM1523 62q27 -6 55 -13t55 -13l1 -38q-99 2 -223 2q-138 0 -223 -2l-5 38
l117 26q15 3 15 19q1 33 1 67v70h-161h-90t-108 -1l-4 65q51 58 107.5 126.5t113 140.5t110.5 143t99 134l126 5q-2 -64 -3 -127t-1 -119v-275h135l3 -93q-30 1 -66 1h-72v-76t1 -59q2 -17 17 -21z" />
    <glyph glyph-name="questiondown" unicode="&#xbf;" horiz-adv-x="915" 
d="M678 -97l55 9l67 -306l-6 -9q-203 -58 -357 -58q-173 0 -275 78t-102 222q0 62 17 110.5t46 88.5t67.5 74.5t81.5 67.5t75 58t53 47t31.5 44.5t10.5 51.5q0 43 -44 105l60 38q193 -174 193 -277q0 -35 -11.5 -64t-34.5 -56.5t-56 -56.5t-77 -65q-48 -40 -81 -68.5
t-54 -53.5t-30 -50t-9 -58q0 -64 50.5 -103t128.5 -39q68 0 138 26zM464 652q-67 0 -110 41t-43 109t43 110.5t110 42.5q69 0 111.5 -42.5t42.5 -110.5t-42.5 -109t-111.5 -41z" />
    <glyph glyph-name="Agrave" unicode="&#xc0;" horiz-adv-x="1371" 
d="M380 444l-71 -187q-21 -55 -32.5 -88.5t-11.5 -51.5q0 -17 9 -26t28 -14l96 -28l3 -52q-145 3 -236 3q-95 0 -217 -3l-5 50l107 32q38 11 56 36.5t40 77.5l498 1213l108 16l431 -1216q25 -70 45.5 -94.5t58.5 -35.5l98 -29l3 -50q-135 3 -272 3q-181 0 -353 -3l-5 50
l99 29q20 6 29 15t9 27q0 20 -10 52.5t-29 85.5l-66 188h-410zM596 1018q-18 -52 -39 -108l-137 -362h334l-123 361q-19 57 -35 109zM413 1662l156 138l350 -275l-31 -52l-475 174v15zM275 1400z" />
    <glyph glyph-name="Aacute" unicode="&#xc1;" horiz-adv-x="1371" 
d="M380 444l-71 -187q-21 -55 -32.5 -88.5t-11.5 -51.5q0 -17 9 -26t28 -14l96 -28l3 -52q-145 3 -236 3q-95 0 -217 -3l-5 50l107 32q38 11 56 36.5t40 77.5l498 1213l108 16l431 -1216q25 -70 45.5 -94.5t58.5 -35.5l98 -29l3 -50q-135 3 -272 3q-181 0 -353 -3l-5 50
l99 29q20 6 29 15t9 27q0 20 -10 52.5t-29 85.5l-66 188h-410zM596 1018q-18 -52 -39 -108l-137 -362h334l-123 361q-19 57 -35 109zM977 1647l-475 -174l-31 52l350 275l156 -138v-15zM275 1400z" />
    <glyph glyph-name="Acircumflex" unicode="&#xc2;" horiz-adv-x="1371" 
d="M380 444l-71 -187q-21 -55 -32.5 -88.5t-11.5 -51.5q0 -17 9 -26t28 -14l96 -28l3 -52q-145 3 -236 3q-95 0 -217 -3l-5 50l107 32q38 11 56 36.5t40 77.5l498 1213l108 16l431 -1216q25 -70 45.5 -94.5t58.5 -35.5l98 -29l3 -50q-135 3 -272 3q-181 0 -353 -3l-5 50
l99 29q20 6 29 15t9 27q0 20 -10 52.5t-29 85.5l-66 188h-410zM596 1018q-18 -52 -39 -108l-137 -362h334l-123 361q-19 57 -35 109zM695 1620l-324 -147l-32 52l272 251h168l272 -251l-32 -52zM275 1400z" />
    <glyph glyph-name="Atilde" unicode="&#xc3;" horiz-adv-x="1371" 
d="M380 444l-71 -187q-21 -55 -32.5 -88.5t-11.5 -51.5q0 -17 9 -26t28 -14l96 -28l3 -52q-145 3 -236 3q-95 0 -217 -3l-5 50l107 32q38 11 56 36.5t40 77.5l498 1213l108 16l431 -1216q25 -70 45.5 -94.5t58.5 -35.5l98 -29l3 -50q-135 3 -272 3q-181 0 -353 -3l-5 50
l99 29q20 6 29 15t9 27q0 20 -10 52.5t-29 85.5l-66 188h-410zM596 1018q-18 -52 -39 -108l-137 -362h334l-123 361q-19 57 -35 109zM1041 1736q-116 -213 -228 -213q-38 0 -70 15t-72 38q-18 11 -32 19t-27 14t-25 9t-24 3q-30 0 -54.5 -16.5t-83.5 -80.5l-51 43
q71 114 120.5 160.5t104.5 46.5q30 0 57 -10q27 -11 76 -39q22 -12 38.5 -21.5t30 -15.5t25.5 -9t25 -3q32 0 54.5 16t81.5 81zM275 1400z" />
    <glyph glyph-name="Adieresis" unicode="&#xc4;" horiz-adv-x="1371" 
d="M380 444l-71 -187q-21 -55 -32.5 -88.5t-11.5 -51.5q0 -17 9 -26t28 -14l96 -28l3 -52q-145 3 -236 3q-95 0 -217 -3l-5 50l107 32q38 11 56 36.5t40 77.5l498 1213l108 16l431 -1216q25 -70 45.5 -94.5t58.5 -35.5l98 -29l3 -50q-135 3 -272 3q-181 0 -353 -3l-5 50
l99 29q20 6 29 15t9 27q0 20 -10 52.5t-29 85.5l-66 188h-410zM596 1018q-18 -52 -39 -108l-137 -362h334l-123 361q-19 57 -35 109zM618 1655q0 -61 -37.5 -97.5t-97.5 -36.5q-58 0 -94 34.5t-36 90.5q0 61 38 95.5t99 34.5q57 0 92.5 -31.5t35.5 -89.5zM1037 1655
q0 -61 -38 -97.5t-98 -36.5q-57 0 -93 34.5t-36 90.5q0 61 37.5 95.5t98.5 34.5q58 0 93.5 -31.5t35.5 -89.5zM275 1400z" />
    <glyph glyph-name="Aring" unicode="&#xc5;" horiz-adv-x="1371" 
d="M380 444l-71 -187q-21 -55 -32.5 -88.5t-11.5 -51.5q0 -17 9 -26t28 -14l96 -28l3 -52q-145 3 -236 3q-95 0 -217 -3l-5 50l107 32q38 11 56 36.5t40 77.5l498 1213l108 16l431 -1216q25 -70 45.5 -94.5t58.5 -35.5l98 -29l3 -50q-135 3 -272 3q-181 0 -353 -3l-5 50
l99 29q20 6 29 15t9 27q0 20 -10 52.5t-29 85.5l-66 188h-410zM596 1018q-18 -52 -39 -108l-137 -362h334l-123 361q-19 57 -35 109zM690 1468q-101 0 -161 45.5t-60 128.5q0 88 68 141t163 53t158 -49.5t63 -133.5q0 -85 -65 -135t-166 -50zM695 1534q43 0 71 27t28 85
t-27.5 91t-71.5 33t-71.5 -28.5t-27.5 -85.5q0 -58 27.5 -90t71.5 -32zM275 1400z" />
    <glyph glyph-name="AE" unicode="&#xc6;" horiz-adv-x="1897" 
d="M384 -3q-149 3 -239 3q-48 0 -106.5 -0.5t-107.5 -2.5l-5 50l105 32q24 7 40 16.5t28 23t22.5 31.5t22.5 41l573 1073q6 11 7.5 15.5t1.5 8.5q0 14 -19 20l-141 41l-3 51q70 -2 136.5 -3t129.5 -1h461q112 0 232 1t252 3l7 -8l-62 -333l-54 -8l-64 243h-367v-551h34
q45 0 90.5 0.5t96.5 1.5q26 1 34 27l36 137l66 3q-3 -146 -3 -217q0 -70 3 -214l-66 -5l-37 141q-8 27 -31 28q-51 1 -98 1.5t-92 0.5h-33v-323q0 -55 0.5 -109.5t1.5 -108.5h380l126 263l61 9l-24 -374l-7 -7q-249 3 -485 3h-245q-130 0 -266 -3l-5 50l134 37q25 7 27 31
q1 40 1.5 89.5t0.5 109.5v333h-415l-218 -432q-20 -38 -30.5 -63t-10.5 -41q0 -14 7.5 -21.5t24.5 -12.5l89 -28zM934 1294h-87l-279 -551h366v551z" />
    <glyph glyph-name="Ccedilla" unicode="&#xc7;" horiz-adv-x="1351" 
d="M649 -192l121 158q-301 18 -486 211t-185 503q0 343 221 543t577 200q176 0 360 -41l6 -10l-65 -350l-55 -9l-76 287q-79 25 -171 25q-221 0 -342 -165.5t-121 -433.5q0 -286 142.5 -456t395.5 -170q141 0 297 57l13 -57q-187 -127 -419 -135l-52 -70q117 -50 117 -134
q0 -112 -213 -255l-38 41q98 80 98 148q0 74 -121 105z" />
    <glyph glyph-name="Egrave" unicode="&#xc8;" horiz-adv-x="1233" 
d="M353 1396h253q243 0 504 4l7 -8l-62 -333l-54 -8l-64 243h-387v-531h54q87 0 187 2q26 1 34 27l36 137l66 3q-3 -145 -3 -217q0 -70 3 -214l-66 -5l-37 141q-8 27 -31 28q-102 2 -190 2h-53v-343q0 -110 2 -218h400l126 263l61 9l-24 -374l-7 -7q-249 3 -485 3h-265
q-129 0 -266 -3l-5 50l134 37q25 7 27 31q1 40 1.5 89.5t0.5 109.5v797q0 50 -0.5 91t-1.5 75q-1 26 -24 33l-134 39l-3 51q140 -4 266 -4zM355 1662l156 138l350 -275l-31 -52l-475 174v15zM217 1400z" />
    <glyph glyph-name="Eacute" unicode="&#xc9;" horiz-adv-x="1233" 
d="M353 1396h253q243 0 504 4l7 -8l-62 -333l-54 -8l-64 243h-387v-531h54q87 0 187 2q26 1 34 27l36 137l66 3q-3 -145 -3 -217q0 -70 3 -214l-66 -5l-37 141q-8 27 -31 28q-102 2 -190 2h-53v-343q0 -110 2 -218h400l126 263l61 9l-24 -374l-7 -7q-249 3 -485 3h-265
q-129 0 -266 -3l-5 50l134 37q25 7 27 31q1 40 1.5 89.5t0.5 109.5v797q0 50 -0.5 91t-1.5 75q-1 26 -24 33l-134 39l-3 51q140 -4 266 -4zM919 1647l-475 -174l-31 52l350 275l156 -138v-15zM217 1400z" />
    <glyph glyph-name="Ecircumflex" unicode="&#xca;" horiz-adv-x="1233" 
d="M353 1396h253q243 0 504 4l7 -8l-62 -333l-54 -8l-64 243h-387v-531h54q87 0 187 2q26 1 34 27l36 137l66 3q-3 -145 -3 -217q0 -70 3 -214l-66 -5l-37 141q-8 27 -31 28q-102 2 -190 2h-53v-343q0 -110 2 -218h400l126 263l61 9l-24 -374l-7 -7q-249 3 -485 3h-265
q-129 0 -266 -3l-5 50l134 37q25 7 27 31q1 40 1.5 89.5t0.5 109.5v797q0 50 -0.5 91t-1.5 75q-1 26 -24 33l-134 39l-3 51q140 -4 266 -4zM637 1620l-324 -147l-32 52l272 251h168l272 -251l-32 -52zM217 1400z" />
    <glyph glyph-name="Edieresis" unicode="&#xcb;" horiz-adv-x="1233" 
d="M353 1396h253q243 0 504 4l7 -8l-62 -333l-54 -8l-64 243h-387v-531h54q87 0 187 2q26 1 34 27l36 137l66 3q-3 -145 -3 -217q0 -70 3 -214l-66 -5l-37 141q-8 27 -31 28q-102 2 -190 2h-53v-343q0 -110 2 -218h400l126 263l61 9l-24 -374l-7 -7q-249 3 -485 3h-265
q-129 0 -266 -3l-5 50l134 37q25 7 27 31q1 40 1.5 89.5t0.5 109.5v797q0 50 -0.5 91t-1.5 75q-1 26 -24 33l-134 39l-3 51q140 -4 266 -4zM560 1655q0 -61 -37.5 -97.5t-97.5 -36.5q-58 0 -94 34.5t-36 90.5q0 61 38 95.5t99 34.5q57 0 92.5 -31.5t35.5 -89.5zM979 1655
q0 -61 -38 -97.5t-98 -36.5q-57 0 -93 34.5t-36 90.5q0 61 37.5 95.5t98.5 34.5q58 0 93.5 -31.5t35.5 -89.5zM217 1400z" />
    <glyph glyph-name="Igrave" unicode="&#xcc;" horiz-adv-x="800" 
d="M550 314q0 -60 0.5 -109t1.5 -88q1 -26 34 -35l123 -35l3 -50q-139 3 -308 3q-175 0 -312 -3l-5 50l134 37q25 7 27 31q1 40 1.5 89.5t0.5 109.5v797q0 50 -0.5 91t-1.5 75q-1 26 -24 33l-134 39l-3 51q139 -4 308 -4q174 0 312 4l5 -51l-134 -37q-24 -6 -26 -30
q-1 -36 -1.5 -77.5t-0.5 -89.5v-801zM119 1662l156 138l350 -275l-31 -52l-475 174v15zM-19 1400z" />
    <glyph glyph-name="Iacute" unicode="&#xcd;" horiz-adv-x="800" 
d="M550 314q0 -60 0.5 -109t1.5 -88q1 -26 34 -35l123 -35l3 -50q-139 3 -308 3q-175 0 -312 -3l-5 50l134 37q25 7 27 31q1 40 1.5 89.5t0.5 109.5v797q0 50 -0.5 91t-1.5 75q-1 26 -24 33l-134 39l-3 51q139 -4 308 -4q174 0 312 4l5 -51l-134 -37q-24 -6 -26 -30
q-1 -36 -1.5 -77.5t-0.5 -89.5v-801zM683 1647l-475 -174l-31 52l350 275l156 -138v-15zM-19 1400z" />
    <glyph glyph-name="Icircumflex" unicode="&#xce;" horiz-adv-x="800" 
d="M550 314q0 -60 0.5 -109t1.5 -88q1 -26 34 -35l123 -35l3 -50q-139 3 -308 3q-175 0 -312 -3l-5 50l134 37q25 7 27 31q1 40 1.5 89.5t0.5 109.5v797q0 50 -0.5 91t-1.5 75q-1 26 -24 33l-134 39l-3 51q139 -4 308 -4q174 0 312 4l5 -51l-134 -37q-24 -6 -26 -30
q-1 -36 -1.5 -77.5t-0.5 -89.5v-801zM401 1620l-324 -147l-32 52l272 251h168l272 -251l-32 -52zM-19 1400z" />
    <glyph glyph-name="Idieresis" unicode="&#xcf;" horiz-adv-x="800" 
d="M550 314q0 -60 0.5 -109t1.5 -88q1 -26 34 -35l123 -35l3 -50q-139 3 -308 3q-175 0 -312 -3l-5 50l134 37q25 7 27 31q1 40 1.5 89.5t0.5 109.5v797q0 50 -0.5 91t-1.5 75q-1 26 -24 33l-134 39l-3 51q139 -4 308 -4q174 0 312 4l5 -51l-134 -37q-24 -6 -26 -30
q-1 -36 -1.5 -77.5t-0.5 -89.5v-801zM324 1655q0 -61 -37.5 -97.5t-97.5 -36.5q-58 0 -94 34.5t-36 90.5q0 61 38 95.5t99 34.5q57 0 92.5 -31.5t35.5 -89.5zM743 1655q0 -61 -38 -97.5t-98 -36.5q-57 0 -93 34.5t-36 90.5q0 61 37.5 95.5t98.5 34.5q58 0 93.5 -31.5
t35.5 -89.5zM-19 1400z" />
    <glyph glyph-name="Eth" unicode="&#xd0;" horiz-adv-x="1569" 
d="M358 0q-129 0 -266 -3l-5 50l134 37q26 8 27 31q1 40 1.5 89.5t0.5 109.5v371h-160v106h160v320q0 50 -0.5 91t-1.5 75q-1 26 -24 33l-134 39l-3 51q140 -4 268 -4q108 0 207 5t205 5q373 0 561 -159.5t188 -473.5q0 -370 -208.5 -574.5t-586.5 -204.5q-104 0 -185 3
t-178 3zM550 102q48 -9 94 -11.5t93 -2.5q217 0 330 153t113 466q0 305 -108 452.5t-340 147.5q-36 0 -81 -2t-101 -6v-508h273v-106h-273v-583z" />
    <glyph glyph-name="Ntilde" unicode="&#xd1;" horiz-adv-x="1548" 
d="M358 119q1 -29 25 -35l128 -35l3 -52q-135 3 -222 3q-86 0 -225 -3l-5 50l134 37q26 8 27 31q2 81 2 199v797q0 100 -2 166q-1 26 -24 33l-134 39l-3 51q140 -4 215 -4q98 0 186 4l665 -833q40 -50 82 -106q-2 69 -2 133v521q0 97 -2 167q-1 23 -26 30l-128 35l-3 53
q138 -4 224 -4q88 0 223 4l5 -51l-136 -39q-23 -7 -24 -33q-3 -66 -3 -166v-1111l-115 -11l-788 987q-35 45 -81 107q2 -74 2 -136v-633q0 -118 2 -195zM1131 1736q-116 -213 -228 -213q-38 0 -70 15t-72 38q-18 11 -32 19t-27 14t-25 9t-24 3q-30 0 -54.5 -16.5
t-83.5 -80.5l-51 43q71 114 120.5 160.5t104.5 46.5q30 0 57 -10q27 -11 76 -39q22 -12 38.5 -21.5t30 -15.5t25.5 -9t25 -3q32 0 54.5 16t81.5 81zM365 1400z" />
    <glyph glyph-name="Ograve" unicode="&#xd2;" horiz-adv-x="1697" 
d="M435 717q0 -320 108 -489.5t317 -169.5q206 0 304.5 154t98.5 484q0 310 -104 476.5t-322 166.5q-211 0 -306.5 -154.5t-95.5 -467.5zM1599 730q0 -346 -204 -556.5t-568 -210.5q-348 0 -538 194.5t-190 526.5q0 346 205 547.5t567 201.5q348 0 538 -188.5t190 -514.5z
M568 1662l156 138l350 -275l-31 -52l-475 174v15zM430 1400z" />
    <glyph glyph-name="Oacute" unicode="&#xd3;" horiz-adv-x="1697" 
d="M435 717q0 -320 108 -489.5t317 -169.5q206 0 304.5 154t98.5 484q0 310 -104 476.5t-322 166.5q-211 0 -306.5 -154.5t-95.5 -467.5zM1599 730q0 -346 -204 -556.5t-568 -210.5q-348 0 -538 194.5t-190 526.5q0 346 205 547.5t567 201.5q348 0 538 -188.5t190 -514.5z
M1132 1647l-475 -174l-31 52l350 275l156 -138v-15zM430 1400z" />
    <glyph glyph-name="Ocircumflex" unicode="&#xd4;" horiz-adv-x="1697" 
d="M435 717q0 -320 108 -489.5t317 -169.5q206 0 304.5 154t98.5 484q0 310 -104 476.5t-322 166.5q-211 0 -306.5 -154.5t-95.5 -467.5zM1599 730q0 -346 -204 -556.5t-568 -210.5q-348 0 -538 194.5t-190 526.5q0 346 205 547.5t567 201.5q348 0 538 -188.5t190 -514.5z
M850 1620l-324 -147l-32 52l272 251h168l272 -251l-32 -52zM430 1400z" />
    <glyph glyph-name="Otilde" unicode="&#xd5;" horiz-adv-x="1697" 
d="M435 717q0 -320 108 -489.5t317 -169.5q206 0 304.5 154t98.5 484q0 310 -104 476.5t-322 166.5q-211 0 -306.5 -154.5t-95.5 -467.5zM1599 730q0 -346 -204 -556.5t-568 -210.5q-348 0 -538 194.5t-190 526.5q0 346 205 547.5t567 201.5q348 0 538 -188.5t190 -514.5z
M1196 1736q-116 -213 -228 -213q-38 0 -70 15t-72 38q-18 11 -32 19t-27 14t-25 9t-24 3q-30 0 -54.5 -16.5t-83.5 -80.5l-51 43q71 114 120.5 160.5t104.5 46.5q30 0 57 -10q27 -11 76 -39q22 -12 38.5 -21.5t30 -15.5t25.5 -9t25 -3q32 0 54.5 16t81.5 81zM430 1400z" />
    <glyph glyph-name="Odieresis" unicode="&#xd6;" horiz-adv-x="1697" 
d="M435 717q0 -320 108 -489.5t317 -169.5q206 0 304.5 154t98.5 484q0 310 -104 476.5t-322 166.5q-211 0 -306.5 -154.5t-95.5 -467.5zM1599 730q0 -346 -204 -556.5t-568 -210.5q-348 0 -538 194.5t-190 526.5q0 346 205 547.5t567 201.5q348 0 538 -188.5t190 -514.5z
M773 1655q0 -61 -37.5 -97.5t-97.5 -36.5q-58 0 -94 34.5t-36 90.5q0 61 38 95.5t99 34.5q57 0 92.5 -31.5t35.5 -89.5zM1192 1655q0 -61 -38 -97.5t-98 -36.5q-57 0 -93 34.5t-36 90.5q0 61 37.5 95.5t98.5 34.5q58 0 93.5 -31.5t35.5 -89.5zM430 1400z" />
    <glyph glyph-name="multiply" unicode="&#xd7;" horiz-adv-x="1130" 
d="M199 927l366 -366l366 366l100 -99l-366 -367l365 -365l-99 -100l-366 366l-366 -366l-99 100l365 365l-366 367z" />
    <glyph glyph-name="Oslash" unicode="&#xd8;" horiz-adv-x="1697" 
d="M1599 730q0 -346 -204 -556.5t-568 -210.5q-243 0 -408 94l-127 -165l-86 67l123 161q-230 197 -230 564q0 346 205 547.5t567 201.5q235 0 398 -86l110 143l90 -62l-108 -141q238 -193 238 -557zM860 58q206 0 304.5 154t98.5 484q0 233 -59 386l-658 -859
q108 -165 314 -165zM435 717q0 -232 57 -385l656 857q-104 150 -311 150q-211 0 -306.5 -154.5t-95.5 -467.5z" />
    <glyph glyph-name="Ugrave" unicode="&#xd9;" horiz-adv-x="1570" 
d="M50 1400q139 -4 308 -4q174 0 308 4l5 -51l-130 -37q-24 -6 -26 -30q-1 -36 -1.5 -77.5t-0.5 -89.5v-551q0 -273 82 -377.5t266 -104.5q181 0 271.5 110.5t90.5 358.5v564q0 48 -1 89.5t-2 77.5q-1 23 -26 30l-124 35l-3 53q133 -4 230 -4q90 0 226 4l5 -51l-136 -39
q-24 -7 -25 -33q-1 -34 -1.5 -75t-0.5 -91v-508q0 -344 -141.5 -493.5t-411.5 -149.5q-307 0 -453 142.5t-146 456.5v552q0 50 -0.5 91t-1.5 75q-1 26 -24 33l-134 39zM558 1662l156 138l350 -275l-31 -52l-475 174v15zM420 1400z" />
    <glyph glyph-name="Uacute" unicode="&#xda;" horiz-adv-x="1570" 
d="M50 1400q139 -4 308 -4q174 0 308 4l5 -51l-130 -37q-24 -6 -26 -30q-1 -36 -1.5 -77.5t-0.5 -89.5v-551q0 -273 82 -377.5t266 -104.5q181 0 271.5 110.5t90.5 358.5v564q0 48 -1 89.5t-2 77.5q-1 23 -26 30l-124 35l-3 53q133 -4 230 -4q90 0 226 4l5 -51l-136 -39
q-24 -7 -25 -33q-1 -34 -1.5 -75t-0.5 -91v-508q0 -344 -141.5 -493.5t-411.5 -149.5q-307 0 -453 142.5t-146 456.5v552q0 50 -0.5 91t-1.5 75q-1 26 -24 33l-134 39zM1122 1647l-475 -174l-31 52l350 275l156 -138v-15zM420 1400z" />
    <glyph glyph-name="Ucircumflex" unicode="&#xdb;" horiz-adv-x="1570" 
d="M50 1400q139 -4 308 -4q174 0 308 4l5 -51l-130 -37q-24 -6 -26 -30q-1 -36 -1.5 -77.5t-0.5 -89.5v-551q0 -273 82 -377.5t266 -104.5q181 0 271.5 110.5t90.5 358.5v564q0 48 -1 89.5t-2 77.5q-1 23 -26 30l-124 35l-3 53q133 -4 230 -4q90 0 226 4l5 -51l-136 -39
q-24 -7 -25 -33q-1 -34 -1.5 -75t-0.5 -91v-508q0 -344 -141.5 -493.5t-411.5 -149.5q-307 0 -453 142.5t-146 456.5v552q0 50 -0.5 91t-1.5 75q-1 26 -24 33l-134 39zM840 1620l-324 -147l-32 52l272 251h168l272 -251l-32 -52zM420 1400z" />
    <glyph glyph-name="Udieresis" unicode="&#xdc;" horiz-adv-x="1570" 
d="M50 1400q139 -4 308 -4q174 0 308 4l5 -51l-130 -37q-24 -6 -26 -30q-1 -36 -1.5 -77.5t-0.5 -89.5v-551q0 -273 82 -377.5t266 -104.5q181 0 271.5 110.5t90.5 358.5v564q0 48 -1 89.5t-2 77.5q-1 23 -26 30l-124 35l-3 53q133 -4 230 -4q90 0 226 4l5 -51l-136 -39
q-24 -7 -25 -33q-1 -34 -1.5 -75t-0.5 -91v-508q0 -344 -141.5 -493.5t-411.5 -149.5q-307 0 -453 142.5t-146 456.5v552q0 50 -0.5 91t-1.5 75q-1 26 -24 33l-134 39zM763 1655q0 -61 -37.5 -97.5t-97.5 -36.5q-58 0 -94 34.5t-36 90.5q0 61 38 95.5t99 34.5
q57 0 92.5 -31.5t35.5 -89.5zM1182 1655q0 -61 -38 -97.5t-98 -36.5q-57 0 -93 34.5t-36 90.5q0 61 37.5 95.5t98.5 34.5q58 0 93.5 -31.5t35.5 -89.5zM420 1400z" />
    <glyph glyph-name="Yacute" unicode="&#xdd;" horiz-adv-x="1264" 
d="M744 757l192 382q27 50 43 85t16 57q0 30 -45 42l-90 24l-3 53q111 -4 233 -4q111 0 219 4l5 -51l-106 -31q-36 -12 -55.5 -35.5t-39.5 -59.5l-316 -585v-324q0 -60 0.5 -109t1.5 -88q1 -26 35 -35l112 -35l3 -50q-129 3 -298 3q-174 0 -302 -3l-5 50l124 37q25 7 27 31
q1 40 2 89.5t1 109.5v300l-325 582q-37 61 -60.5 87.5t-62.5 38.5l-96 27l-4 51q99 -4 281 -4q200 0 379 4l5 -51l-102 -25q-23 -5 -34 -14.5t-11 -24.5q0 -21 14 -51t39 -71zM971 1647l-475 -174l-31 52l350 275l156 -138v-15zM269 1400z" />
    <glyph glyph-name="Thorn" unicode="&#xde;" horiz-adv-x="1326" 
d="M550 314q0 -60 0.5 -109t1.5 -88q1 -26 34 -35l123 -35l3 -50q-139 3 -308 3q-175 0 -312 -3l-5 50l134 37q25 7 27 31q1 40 1.5 89.5t0.5 109.5v797q0 50 -0.5 91t-1.5 75q-1 26 -24 33l-134 39l-3 51q139 -4 308 -4q174 0 312 4l5 -51l-134 -37q-24 -6 -26 -30
q-1 -36 -2 -78v-56q86 4 158 4q270 0 409 -93.5t139 -277.5q0 -217 -144.5 -337.5t-407.5 -120.5q-71 0 -154 13v-22zM550 430q57 -11 113 -11q131 0 199.5 80.5t68.5 243.5q0 158 -65 235.5t-205 77.5q-43 0 -111 -6v-620z" />
    <glyph glyph-name="germandbls" unicode="&#xdf;" horiz-adv-x="1386" 
d="M631 290l46 8l72 -207q57 -21 144 -21q83 0 133.5 33t50.5 99q0 35 -15.5 63t-42 52t-60.5 45.5t-71 42.5q-45 26 -90.5 54.5t-82 64.5t-59.5 82t-23 106q0 184 247 288q7 61 7 95q0 143 -48.5 230t-136.5 87q-112 0 -165.5 -91.5t-53.5 -379.5v-625q0 -81 1 -160t3 -157
q-65 1 -143 1q-149 0 -294 -3l-5 48l123 33q27 7 29 32q3 61 3 131v574l-146 35l-9 54l156 13q-3 278 129 434t377 156q219 0 332.5 -101.5t113.5 -300.5q0 -48 -8 -96q-250 -65 -250 -214q0 -40 18.5 -71t47.5 -56.5t65 -47t72 -42.5q43 -26 86 -54.5t76.5 -64t54 -80
t20.5 -102.5q0 -140 -120.5 -222.5t-320.5 -82.5q-165 0 -319 69q17 67 31 129t25 120z" />
    <glyph glyph-name="agrave" unicode="&#xe0;" horiz-adv-x="1097" 
d="M635 445q-157 0 -224 -40t-67 -137q0 -88 47.5 -125.5t112.5 -37.5q74 0 129 38zM146 858q213 97 410 97q180 0 269.5 -80.5t88.5 -231.5l-5 -416q-2 -51 2 -82t18.5 -47.5t43 -23.5t82.5 -8l6 -46q-140 -48 -241 -48q-136 0 -179 107q-127 -107 -269 -107
q-139 0 -229 69.5t-90 195.5q0 157 145.5 230t436.5 73l1 75q1 107 -51.5 157.5t-163.5 50.5q-103 0 -247 -45zM596 1044h-84l-248 378h242zM115 930z" />
    <glyph glyph-name="aacute" unicode="&#xe1;" horiz-adv-x="1097" 
d="M635 445q-157 0 -224 -40t-67 -137q0 -88 47.5 -125.5t112.5 -37.5q74 0 129 38zM146 858q213 97 410 97q180 0 269.5 -80.5t88.5 -231.5l-5 -416q-2 -51 2 -82t18.5 -47.5t43 -23.5t82.5 -8l6 -46q-140 -48 -241 -48q-136 0 -179 107q-127 -107 -269 -107
q-139 0 -229 69.5t-90 195.5q0 157 145.5 230t436.5 73l1 75q1 107 -51.5 157.5t-163.5 50.5q-103 0 -247 -45zM560 1422h242l-248 -378h-84zM115 930z" />
    <glyph glyph-name="acircumflex" unicode="&#xe2;" horiz-adv-x="1097" 
d="M635 445q-157 0 -224 -40t-67 -137q0 -88 47.5 -125.5t112.5 -37.5q74 0 129 38zM146 858q213 97 410 97q180 0 269.5 -80.5t88.5 -231.5l-5 -416q-2 -51 2 -82t18.5 -47.5t43 -23.5t82.5 -8l6 -46q-140 -48 -241 -48q-136 0 -179 107q-127 -107 -269 -107
q-139 0 -229 69.5t-90 195.5q0 157 145.5 230t436.5 73l1 75q1 107 -51.5 157.5t-163.5 50.5q-103 0 -247 -45zM837 1044h-90l-214 224l-214 -224h-90l200 378h208zM115 930z" />
    <glyph glyph-name="atilde" unicode="&#xe3;" horiz-adv-x="1097" 
d="M635 445q-157 0 -224 -40t-67 -137q0 -88 47.5 -125.5t112.5 -37.5q74 0 129 38zM146 858q213 97 410 97q180 0 269.5 -80.5t88.5 -231.5l-5 -416q-2 -51 2 -82t18.5 -47.5t43 -23.5t82.5 -8l6 -46q-140 -48 -241 -48q-136 0 -179 107q-127 -107 -269 -107
q-139 0 -229 69.5t-90 195.5q0 157 145.5 230t436.5 73l1 75q1 107 -51.5 157.5t-163.5 50.5q-103 0 -247 -45zM895 1332q-120 -220 -236 -220q-39 0 -72 15.5t-74 39.5q-19 11 -33.5 19.5t-28 14.5t-25.5 9t-25 3q-31 0 -56 -17t-86 -83l-53 44q73 118 124.5 166t107.5 48
q31 0 59 -10q28 -11 79 -40q23 -13 40 -22.5t31 -16t26 -9.5t26 -3q33 0 56 16.5t84 83.5zM115 930z" />
    <glyph glyph-name="adieresis" unicode="&#xe4;" horiz-adv-x="1097" 
d="M635 445q-157 0 -224 -40t-67 -137q0 -88 47.5 -125.5t112.5 -37.5q74 0 129 38zM146 858q213 97 410 97q180 0 269.5 -80.5t88.5 -231.5l-5 -416q-2 -51 2 -82t18.5 -47.5t43 -23.5t82.5 -8l6 -46q-140 -48 -241 -48q-136 0 -179 107q-127 -107 -269 -107
q-139 0 -229 69.5t-90 195.5q0 157 145.5 230t436.5 73l1 75q1 107 -51.5 157.5t-163.5 50.5q-103 0 -247 -45zM463 1294q0 -64 -40.5 -102.5t-104.5 -38.5q-60 0 -98.5 36.5t-38.5 95.5q0 64 40.5 101.5t105.5 37.5q60 0 98 -34.5t38 -95.5zM889 1294q0 -64 -40.5 -102.5
t-104.5 -38.5q-60 0 -98.5 36.5t-38.5 95.5q0 64 40.5 101.5t105.5 37.5q60 0 98 -34.5t38 -95.5zM115 930z" />
    <glyph glyph-name="aring" unicode="&#xe5;" horiz-adv-x="1097" 
d="M635 445q-157 0 -224 -40t-67 -137q0 -88 47.5 -125.5t112.5 -37.5q74 0 129 38zM146 858q213 97 410 97q180 0 269.5 -80.5t88.5 -231.5l-5 -416q-2 -51 2 -82t18.5 -47.5t43 -23.5t82.5 -8l6 -46q-140 -48 -241 -48q-136 0 -179 107q-127 -107 -269 -107
q-139 0 -229 69.5t-90 195.5q0 157 145.5 230t436.5 73l1 75q1 107 -51.5 157.5t-163.5 50.5q-103 0 -247 -45zM530 1044q-105 0 -168 48.5t-63 137.5q0 93 71 149.5t170 56.5t165 -53t66 -142q0 -90 -68 -143.5t-173 -53.5zM535 1114q45 0 74 28.5t29 91.5q0 61 -28.5 96.5
t-74.5 35.5t-74.5 -30t-28.5 -92q0 -61 28.5 -95.5t74.5 -34.5zM115 930z" />
    <glyph glyph-name="ae" unicode="&#xe6;" horiz-adv-x="1640" 
d="M146 858q213 97 409 97q191 0 280 -102q133 102 318 102q197 0 304.5 -113.5t107.5 -313.5q0 -31 -3 -63h-639q0 -190 98.5 -272.5t323.5 -82.5q109 0 208 19l8 -63q-182 -94 -383 -94q-281 0 -438 150q-167 -150 -355 -150q-151 0 -241.5 72.5t-90.5 203.5
q0 163 145.5 238.5t436.5 75.5l1 69q1 99 -51.5 145.5t-163.5 46.5q-103 0 -247 -45zM635 465q-157 0 -224 -42.5t-67 -146.5q0 -94 48.5 -132.5t113.5 -38.5q107 0 191 72q-62 108 -62 271v17zM1261 562v26q0 147 -35 210.5t-105 63.5q-85 0 -135.5 -87.5t-58.5 -212.5h334
z" />
    <glyph glyph-name="ccedilla" unicode="&#xe7;" horiz-adv-x="992" 
d="M401 -192l128 166q-195 13 -323 137.5t-128 326.5q0 231 153.5 374t391.5 143q151 0 291 -57q-36 -141 -63 -296l-55 -9l-77 250q-27 10 -73 10q-114 0 -187 -99.5t-73 -266.5q0 -195 92.5 -287.5t263.5 -92.5q82 0 172 19l8 -60q-147 -83 -303 -92l-57 -79
q117 -50 117 -134q0 -112 -213 -255l-38 41q98 80 98 148q0 74 -121 105z" />
    <glyph glyph-name="egrave" unicode="&#xe8;" horiz-adv-x="1101" 
d="M1022 66q-185 -94 -390 -94q-244 0 -398.5 120.5t-154.5 355.5q0 224 148.5 365.5t378.5 141.5q201 0 310.5 -108.5t109.5 -299.5q0 -29 -3 -60h-639q0 -201 98.5 -289t323.5 -88q109 0 208 19zM722 584v24q0 136 -34.5 195t-105.5 59q-85 0 -135.5 -81.5t-58.5 -196.5
h334zM651 1044h-84l-248 378h242zM170 930z" />
    <glyph glyph-name="eacute" unicode="&#xe9;" horiz-adv-x="1101" 
d="M1022 66q-185 -94 -390 -94q-244 0 -398.5 120.5t-154.5 355.5q0 224 148.5 365.5t378.5 141.5q201 0 310.5 -108.5t109.5 -299.5q0 -29 -3 -60h-639q0 -201 98.5 -289t323.5 -88q109 0 208 19zM722 584v24q0 136 -34.5 195t-105.5 59q-85 0 -135.5 -81.5t-58.5 -196.5
h334zM615 1422h242l-248 -378h-84zM170 930z" />
    <glyph glyph-name="ecircumflex" unicode="&#xea;" horiz-adv-x="1101" 
d="M1022 66q-185 -94 -390 -94q-244 0 -398.5 120.5t-154.5 355.5q0 224 148.5 365.5t378.5 141.5q201 0 310.5 -108.5t109.5 -299.5q0 -29 -3 -60h-639q0 -201 98.5 -289t323.5 -88q109 0 208 19zM722 584v24q0 136 -34.5 195t-105.5 59q-85 0 -135.5 -81.5t-58.5 -196.5
h334zM892 1044h-90l-214 224l-214 -224h-90l200 378h208zM170 930z" />
    <glyph glyph-name="edieresis" unicode="&#xeb;" horiz-adv-x="1101" 
d="M1022 66q-185 -94 -390 -94q-244 0 -398.5 120.5t-154.5 355.5q0 224 148.5 365.5t378.5 141.5q201 0 310.5 -108.5t109.5 -299.5q0 -29 -3 -60h-639q0 -201 98.5 -289t323.5 -88q109 0 208 19zM722 584v24q0 136 -34.5 195t-105.5 59q-85 0 -135.5 -81.5t-58.5 -196.5
h334zM518 1294q0 -64 -40.5 -102.5t-104.5 -38.5q-60 0 -98.5 36.5t-38.5 95.5q0 64 40.5 101.5t105.5 37.5q60 0 98 -34.5t38 -95.5zM944 1294q0 -64 -40.5 -102.5t-104.5 -38.5q-60 0 -98.5 36.5t-38.5 95.5q0 64 40.5 101.5t105.5 37.5q60 0 98 -34.5t38 -95.5zM170 930z
" />
    <glyph glyph-name="igrave" unicode="&#xec;" horiz-adv-x="679" 
d="M47 882q246 37 432 77l11 -8q-6 -138 -6 -294v-377q0 -119 2 -166q2 -27 25 -34l125 -35l3 -48q-148 3 -294 3q-149 0 -294 -3l-5 48l127 35q23 6 25 30q2 39 2 131v322q0 131 -4 241l-143 37zM392 1044h-84l-248 378h242zM-89 930z" />
    <glyph glyph-name="iacute" unicode="&#xed;" horiz-adv-x="679" 
d="M47 882q246 37 432 77l11 -8q-6 -138 -6 -294v-377q0 -119 2 -166q2 -27 25 -34l125 -35l3 -48q-148 3 -294 3q-149 0 -294 -3l-5 48l127 35q23 6 25 30q2 39 2 131v322q0 131 -4 241l-143 37zM356 1422h242l-248 -378h-84zM-89 930z" />
    <glyph glyph-name="icircumflex" unicode="&#xee;" horiz-adv-x="679" 
d="M47 882q246 37 432 77l11 -8q-6 -138 -6 -294v-377q0 -119 2 -166q2 -27 25 -34l125 -35l3 -48q-148 3 -294 3q-149 0 -294 -3l-5 48l127 35q23 6 25 30q2 39 2 131v322q0 131 -4 241l-143 37zM633 1044h-90l-214 224l-214 -224h-90l200 378h208zM-89 930z" />
    <glyph glyph-name="idieresis" unicode="&#xef;" horiz-adv-x="679" 
d="M47 882q246 37 432 77l11 -8q-6 -138 -6 -294v-377q0 -119 2 -166q2 -27 25 -34l125 -35l3 -48q-148 3 -294 3q-149 0 -294 -3l-5 48l127 35q23 6 25 30q2 39 2 131v322q0 131 -4 241l-143 37zM259 1294q0 -64 -40.5 -102.5t-104.5 -38.5q-60 0 -98.5 36.5t-38.5 95.5
q0 64 40.5 101.5t105.5 37.5q60 0 98 -34.5t38 -95.5zM685 1294q0 -64 -40.5 -102.5t-104.5 -38.5q-60 0 -98.5 36.5t-38.5 95.5q0 64 40.5 101.5t105.5 37.5q60 0 98 -34.5t38 -95.5zM-89 930z" />
    <glyph glyph-name="eth" unicode="&#xf0;" horiz-adv-x="1234" 
d="M350 1026l-47 83l254 126q-129 123 -329 222l2 19h352q105 -58 194 -132l242 121l48 -80l-217 -109q289 -310 289 -718q0 -273 -145.5 -429.5t-401.5 -156.5q-225 0 -368.5 131t-143.5 346q0 220 135.5 358.5t343.5 138.5q147 0 243 -91l8 3q-62 174 -183 306zM833 502
q0 170 -56.5 258t-155.5 88q-109 0 -170 -96.5t-61 -274.5q0 -187 57.5 -299t164.5 -112q112 0 166.5 116.5t54.5 319.5z" />
    <glyph glyph-name="ntilde" unicode="&#xf1;" horiz-adv-x="1310" 
d="M47 882q231 34 422 76l15 -8v-107q169 112 334 112q146 0 229 -79.5t83 -225.5v-351q0 -125 2 -185q1 -27 26 -34l121 -35l3 -48q-143 3 -288 3q-150 0 -270 -3l-4 48l100 30q23 7 25 30q1 15 1 63v419q0 123 -48 176.5t-143 53.5q-83 0 -171 -48v-430q0 -125 2 -229
q1 -27 23 -33l104 -32l2 -48q-124 3 -270 3q-149 0 -293 -3l-5 48l129 35q22 6 23 30q1 64 1 123v329q0 131 -4 242l-143 37zM1010 1332q-120 -220 -236 -220q-39 0 -72 15.5t-74 39.5q-19 11 -33.5 19.5t-28 14.5t-25.5 9t-25 3q-31 0 -56 -17t-86 -83l-53 44
q73 118 124.5 166t107.5 48q31 0 59 -10q28 -11 79 -40q23 -13 40 -22.5t31 -16t26 -9.5t26 -3q33 0 56 16.5t84 83.5zM230 930z" />
    <glyph glyph-name="ograve" unicode="&#xf2;" horiz-adv-x="1226" 
d="M390 475q0 -182 54.5 -295.5t174.5 -113.5q112 0 164.5 100t52.5 297q0 185 -55.5 291.5t-173.5 106.5q-110 0 -163.5 -96t-53.5 -290zM1146 483q0 -228 -152 -369.5t-396 -141.5q-237 0 -378 133.5t-141 349.5q0 219 148 359.5t400 140.5q239 0 379 -129.5t140 -342.5z
M675 1044h-84l-248 378h242zM194 930z" />
    <glyph glyph-name="oacute" unicode="&#xf3;" horiz-adv-x="1226" 
d="M390 475q0 -182 54.5 -295.5t174.5 -113.5q112 0 164.5 100t52.5 297q0 185 -55.5 291.5t-173.5 106.5q-110 0 -163.5 -96t-53.5 -290zM1146 483q0 -228 -152 -369.5t-396 -141.5q-237 0 -378 133.5t-141 349.5q0 219 148 359.5t400 140.5q239 0 379 -129.5t140 -342.5z
M639 1422h242l-248 -378h-84zM194 930z" />
    <glyph glyph-name="ocircumflex" unicode="&#xf4;" horiz-adv-x="1226" 
d="M390 475q0 -182 54.5 -295.5t174.5 -113.5q112 0 164.5 100t52.5 297q0 185 -55.5 291.5t-173.5 106.5q-110 0 -163.5 -96t-53.5 -290zM1146 483q0 -228 -152 -369.5t-396 -141.5q-237 0 -378 133.5t-141 349.5q0 219 148 359.5t400 140.5q239 0 379 -129.5t140 -342.5z
M916 1044h-90l-214 224l-214 -224h-90l200 378h208zM194 930z" />
    <glyph glyph-name="otilde" unicode="&#xf5;" horiz-adv-x="1226" 
d="M390 475q0 -182 54.5 -295.5t174.5 -113.5q112 0 164.5 100t52.5 297q0 185 -55.5 291.5t-173.5 106.5q-110 0 -163.5 -96t-53.5 -290zM1146 483q0 -228 -152 -369.5t-396 -141.5q-237 0 -378 133.5t-141 349.5q0 219 148 359.5t400 140.5q239 0 379 -129.5t140 -342.5z
M974 1332q-120 -220 -236 -220q-39 0 -72 15.5t-74 39.5q-19 11 -33.5 19.5t-28 14.5t-25.5 9t-25 3q-31 0 -56 -17t-86 -83l-53 44q73 118 124.5 166t107.5 48q31 0 59 -10q28 -11 79 -40q23 -13 40 -22.5t31 -16t26 -9.5t26 -3q33 0 56 16.5t84 83.5zM194 930z" />
    <glyph glyph-name="odieresis" unicode="&#xf6;" horiz-adv-x="1226" 
d="M390 475q0 -182 54.5 -295.5t174.5 -113.5q112 0 164.5 100t52.5 297q0 185 -55.5 291.5t-173.5 106.5q-110 0 -163.5 -96t-53.5 -290zM1146 483q0 -228 -152 -369.5t-396 -141.5q-237 0 -378 133.5t-141 349.5q0 219 148 359.5t400 140.5q239 0 379 -129.5t140 -342.5z
M542 1294q0 -64 -40.5 -102.5t-104.5 -38.5q-60 0 -98.5 36.5t-38.5 95.5q0 64 40.5 101.5t105.5 37.5q60 0 98 -34.5t38 -95.5zM968 1294q0 -64 -40.5 -102.5t-104.5 -38.5q-60 0 -98.5 36.5t-38.5 95.5q0 64 40.5 101.5t105.5 37.5q60 0 98 -34.5t38 -95.5zM194 930z" />
    <glyph glyph-name="divide" unicode="&#xf7;" horiz-adv-x="1130" 
d="M566 916q53 0 87 -33t34 -87t-34 -87.5t-87 -33.5q-55 0 -88.5 33.5t-33.5 87.5t33.5 87t88.5 33zM83 532h964v-141h-964v141zM566 258q53 0 87 -33t34 -87t-34 -87.5t-87 -33.5q-55 0 -88.5 33.5t-33.5 87.5t33.5 87t88.5 33z" />
    <glyph glyph-name="oslash" unicode="&#xf8;" horiz-adv-x="1226" 
d="M1146 483q0 -228 -152 -369.5t-396 -141.5q-152 0 -265 54l-75 -97l-77 54l73 94q-175 138 -175 378q0 219 148 359.5t400 140.5q155 0 268 -55l74 94l75 -52l-70 -90q172 -132 172 -369zM385 475q0 -115 21 -202l378 484q-57 107 -177 107q-113 0 -167.5 -96.5
t-54.5 -292.5zM619 63q115 0 169 101t54 299q0 109 -20 192l-377 -486q55 -106 174 -106z" />
    <glyph glyph-name="ugrave" unicode="&#xf9;" horiz-adv-x="1284" 
d="M816 80q-147 -108 -320 -108q-162 0 -244 80t-82 225v212q0 214 -4 315l-143 37l-6 41q245 37 432 77l11 -8q-6 -125 -6 -309v-308q0 -119 46.5 -172.5t131.5 -53.5q95 0 174 41v426q0 140 -4 231l-135 35l-6 41q237 37 423 77l12 -8q-7 -128 -7 -315q0 -363 1 -443
q1 -40 6 -64.5t19 -37.5t41.5 -18.5t78.5 -6.5l5 -44q-144 -50 -248 -50q-134 0 -176 108zM681 1044h-84l-248 378h242zM200 930z" />
    <glyph glyph-name="uacute" unicode="&#xfa;" horiz-adv-x="1284" 
d="M816 80q-147 -108 -320 -108q-162 0 -244 80t-82 225v212q0 214 -4 315l-143 37l-6 41q245 37 432 77l11 -8q-6 -125 -6 -309v-308q0 -119 46.5 -172.5t131.5 -53.5q95 0 174 41v426q0 140 -4 231l-135 35l-6 41q237 37 423 77l12 -8q-7 -128 -7 -315q0 -363 1 -443
q1 -40 6 -64.5t19 -37.5t41.5 -18.5t78.5 -6.5l5 -44q-144 -50 -248 -50q-134 0 -176 108zM645 1422h242l-248 -378h-84zM200 930z" />
    <glyph glyph-name="ucircumflex" unicode="&#xfb;" horiz-adv-x="1284" 
d="M816 80q-147 -108 -320 -108q-162 0 -244 80t-82 225v212q0 214 -4 315l-143 37l-6 41q245 37 432 77l11 -8q-6 -125 -6 -309v-308q0 -119 46.5 -172.5t131.5 -53.5q95 0 174 41v426q0 140 -4 231l-135 35l-6 41q237 37 423 77l12 -8q-7 -128 -7 -315q0 -363 1 -443
q1 -40 6 -64.5t19 -37.5t41.5 -18.5t78.5 -6.5l5 -44q-144 -50 -248 -50q-134 0 -176 108zM922 1044h-90l-214 224l-214 -224h-90l200 378h208zM200 930z" />
    <glyph glyph-name="udieresis" unicode="&#xfc;" horiz-adv-x="1284" 
d="M816 80q-147 -108 -320 -108q-162 0 -244 80t-82 225v212q0 214 -4 315l-143 37l-6 41q245 37 432 77l11 -8q-6 -125 -6 -309v-308q0 -119 46.5 -172.5t131.5 -53.5q95 0 174 41v426q0 140 -4 231l-135 35l-6 41q237 37 423 77l12 -8q-7 -128 -7 -315q0 -363 1 -443
q1 -40 6 -64.5t19 -37.5t41.5 -18.5t78.5 -6.5l5 -44q-144 -50 -248 -50q-134 0 -176 108zM548 1294q0 -64 -40.5 -102.5t-104.5 -38.5q-60 0 -98.5 36.5t-38.5 95.5q0 64 40.5 101.5t105.5 37.5q60 0 98 -34.5t38 -95.5zM974 1294q0 -64 -40.5 -102.5t-104.5 -38.5
q-60 0 -98.5 36.5t-38.5 95.5q0 64 40.5 101.5t105.5 37.5q60 0 98 -34.5t38 -95.5zM200 930z" />
    <glyph glyph-name="yacute" unicode="&#xfd;" horiz-adv-x="1049" 
d="M-36 932q133 -3 241 -3q140 0 298 3l5 -48l-125 -32q39 -98 74 -187t93 -225q26 -57 56 -133q30 78 61 155q81 213 149 392l-104 30l-5 48q78 -3 184 -3q92 0 176 3l5 -48l-96 -26q-32 -10 -46 -41q-35 -83 -78 -184q-130 -311 -202 -516q-46 -133 -83 -271.5t-59 -243.5
q-11 -57 -41 -78t-135 -21q-110 0 -210 8l-5 46q116 15 162 64q66 69 203 372l7 19l-53 15q-180 445 -327 789q-12 31 -45 41l-96 27zM580 1422h242l-248 -378h-84zM135 930z" />
    <glyph glyph-name="thorn" unicode="&#xfe;" horiz-adv-x="1247" 
d="M465 1499q-6 -149 -6 -447v-191q153 94 298 94q190 0 300.5 -126.5t110.5 -330.5q0 -242 -155.5 -384t-410.5 -142q-65 0 -143 14v-211q0 -99 2 -139q2 -31 27 -37l141 -37l3 -48q-166 3 -312 3q-149 0 -293 -3l-5 48l126 35q24 6 25 30q2 74 2 222v508v593q0 221 -4 399
l-147 40l-6 41q249 37 436 77zM459 86q66 -15 132 -15q136 0 203.5 101t67.5 287q0 170 -63 265t-186 95q-78 0 -154 -33v-700z" />
    <glyph glyph-name="ydieresis" unicode="&#xff;" horiz-adv-x="1049" 
d="M-36 932q133 -3 241 -3q140 0 298 3l5 -48l-125 -32q39 -98 74 -187t93 -225q26 -57 56 -133q30 78 61 155q81 213 149 392l-104 30l-5 48q78 -3 184 -3q92 0 176 3l5 -48l-96 -26q-32 -10 -46 -41q-35 -83 -78 -184q-130 -311 -202 -516q-46 -133 -83 -271.5t-59 -243.5
q-11 -57 -41 -78t-135 -21q-110 0 -210 8l-5 46q116 15 162 64q66 69 203 372l7 19l-53 15q-180 445 -327 789q-12 31 -45 41l-96 27zM483 1294q0 -64 -40.5 -102.5t-104.5 -38.5q-60 0 -98.5 36.5t-38.5 95.5q0 64 40.5 101.5t105.5 37.5q60 0 98 -34.5t38 -95.5zM909 1294
q0 -64 -40.5 -102.5t-104.5 -38.5q-60 0 -98.5 36.5t-38.5 95.5q0 64 40.5 101.5t105.5 37.5q60 0 98 -34.5t38 -95.5zM135 930z" />
    <glyph glyph-name="Amacron" unicode="&#x100;" horiz-adv-x="1371" 
d="M380 444l-71 -187q-21 -55 -32.5 -88.5t-11.5 -51.5q0 -17 9 -26t28 -14l96 -28l3 -52q-145 3 -236 3q-95 0 -217 -3l-5 50l107 32q38 11 56 36.5t40 77.5l498 1213l108 16l431 -1216q25 -70 45.5 -94.5t58.5 -35.5l98 -29l3 -50q-135 3 -272 3q-181 0 -353 -3l-5 50
l99 29q20 6 29 15t9 27q0 20 -10 52.5t-29 85.5l-66 188h-410zM596 1018q-18 -52 -39 -108l-137 -362h334l-123 361q-19 57 -35 109zM414 1557v122h561v-122h-561zM275 1400z" />
    <glyph glyph-name="amacron" unicode="&#x101;" horiz-adv-x="1097" 
d="M635 445q-157 0 -224 -40t-67 -137q0 -88 47.5 -125.5t112.5 -37.5q74 0 129 38zM146 858q213 97 410 97q180 0 269.5 -80.5t88.5 -231.5l-5 -416q-2 -51 2 -82t18.5 -47.5t43 -23.5t82.5 -8l6 -46q-140 -48 -241 -48q-136 0 -179 107q-127 -107 -269 -107
q-139 0 -229 69.5t-90 195.5q0 157 145.5 230t436.5 73l1 75q1 107 -51.5 157.5t-163.5 50.5q-103 0 -247 -45zM248 1184v122h573v-122h-573zM115 930z" />
    <glyph glyph-name="Abreve" unicode="&#x102;" horiz-adv-x="1371" 
d="M380 444l-71 -187q-21 -55 -32.5 -88.5t-11.5 -51.5q0 -17 9 -26t28 -14l96 -28l3 -52q-145 3 -236 3q-95 0 -217 -3l-5 50l107 32q38 11 56 36.5t40 77.5l498 1213l108 16l431 -1216q25 -70 45.5 -94.5t58.5 -35.5l98 -29l3 -50q-135 3 -272 3q-181 0 -353 -3l-5 50
l99 29q20 6 29 15t9 27q0 20 -10 52.5t-29 85.5l-66 188h-410zM596 1018q-18 -52 -39 -108l-137 -362h334l-123 361q-19 57 -35 109zM481 1822q15 -80 71 -123t145 -43q90 0 145 42t75 117l71 7q0 -144 -78 -232t-220 -88q-133 0 -207.5 78t-74.5 235zM275 1400z" />
    <glyph glyph-name="abreve" unicode="&#x103;" horiz-adv-x="1097" 
d="M635 445q-157 0 -224 -40t-67 -137q0 -88 47.5 -125.5t112.5 -37.5q74 0 129 38zM146 858q213 97 410 97q180 0 269.5 -80.5t88.5 -231.5l-5 -416q-2 -51 2 -82t18.5 -47.5t43 -23.5t82.5 -8l6 -46q-140 -48 -241 -48q-136 0 -179 107q-127 -107 -269 -107
q-139 0 -229 69.5t-90 195.5q0 157 145.5 230t436.5 73l1 75q1 107 -51.5 157.5t-163.5 50.5q-103 0 -247 -45zM336 1399q14 -95 66 -143t135 -48q84 0 135 47t70 137l76 7q0 -158 -75.5 -254t-212.5 -96q-128 0 -200 85.5t-72 257.5zM115 930z" />
    <glyph glyph-name="Aogonek" unicode="&#x104;" horiz-adv-x="1371" 
d="M1042 0q-116 0 -168 -59.5t-52 -144.5q0 -90 62.5 -135.5t164.5 -45.5q15 0 42 2l7 -52q-160 -55 -262 -55q-127 0 -190 55t-63 144q0 184 255 340q57 35 57 64q0 25 -10 57.5t-29 85.5l-66 188h-410l-71 -187q-21 -55 -32.5 -88.5t-11.5 -51.5q0 -17 9 -26t28 -14
l96 -28l3 -52q-145 3 -236 3q-95 0 -217 -3l-5 50l107 32q38 11 56 36.5t40 77.5l498 1213l108 16l431 -1216q25 -70 45.5 -94.5t58.5 -35.5l98 -29l3 -50q-135 3 -272 3h-74zM596 1018q-18 -52 -39 -108l-137 -362h334l-123 361q-19 57 -35 109z" />
    <glyph glyph-name="aogonek" unicode="&#x105;" horiz-adv-x="1102" 
d="M146 858q213 97 410 97q180 0 269.5 -80.5t88.5 -231.5l-5 -416q-2 -51 2 -82t18.5 -47.5t43 -23.5t82.5 -8l6 -46q-93 -32 -169 -43q-102 -65 -102 -181q0 -90 62.5 -135.5t164.5 -45.5q15 0 42 2l7 -52q-160 -55 -262 -55q-127 0 -190 52.5t-63 141.5q0 145 207 274
q-84 21 -117 101q-127 -107 -269 -107q-139 0 -229 69.5t-90 195.5q0 157 145.5 230t436.5 73l1 75q1 107 -51.5 157.5t-163.5 50.5q-103 0 -247 -45zM635 445q-157 0 -224 -40t-67 -137q0 -88 47.5 -125.5t112.5 -37.5q74 0 129 38z" />
    <glyph glyph-name="Cacute" unicode="&#x106;" horiz-adv-x="1351" 
d="M1198 1022l-55 -9l-76 287q-79 25 -171 25q-221 0 -342 -165.5t-121 -433.5q0 -286 142.5 -456t395.5 -170q141 0 297 57l13 -57q-200 -136 -452 -136q-327 0 -528.5 197t-201.5 519q0 343 221 543t577 200q176 0 360 -41l6 -10zM1127 1647l-475 -174l-31 52l350 275
l156 -138v-15zM425 1400z" />
    <glyph glyph-name="cacute" unicode="&#x107;" horiz-adv-x="992" 
d="M922 66q-166 -94 -343 -94q-219 0 -360 127t-141 339q0 231 153.5 374t391.5 143q151 0 291 -57q-36 -141 -63 -296l-55 -9l-77 250q-27 10 -73 10q-114 0 -187 -99.5t-73 -266.5q0 -195 92.5 -287.5t263.5 -92.5q82 0 172 19zM620 1422h242l-248 -378h-84zM175 930z" />
    <glyph glyph-name="Ccircumflex" unicode="&#x108;" horiz-adv-x="1351" 
d="M1198 1022l-55 -9l-76 287q-79 25 -171 25q-221 0 -342 -165.5t-121 -433.5q0 -286 142.5 -456t395.5 -170q141 0 297 57l13 -57q-200 -136 -452 -136q-327 0 -528.5 197t-201.5 519q0 343 221 543t577 200q176 0 360 -41l6 -10zM845 1620l-324 -147l-32 52l272 251h168
l272 -251l-32 -52zM425 1400z" />
    <glyph glyph-name="ccircumflex" unicode="&#x109;" horiz-adv-x="992" 
d="M922 66q-166 -94 -343 -94q-219 0 -360 127t-141 339q0 231 153.5 374t391.5 143q151 0 291 -57q-36 -141 -63 -296l-55 -9l-77 250q-27 10 -73 10q-114 0 -187 -99.5t-73 -266.5q0 -195 92.5 -287.5t263.5 -92.5q82 0 172 19zM897 1044h-90l-214 224l-214 -224h-90
l200 378h208zM175 930z" />
    <glyph glyph-name="Cdotaccent" unicode="&#x10a;" horiz-adv-x="1351" 
d="M1198 1022l-55 -9l-76 287q-79 25 -171 25q-221 0 -342 -165.5t-121 -433.5q0 -286 142.5 -456t395.5 -170q141 0 297 57l13 -57q-200 -136 -452 -136q-327 0 -528.5 197t-201.5 519q0 343 221 543t577 200q176 0 360 -41l6 -10zM988 1660q0 -62 -41 -101.5t-107 -39.5
q-61 0 -100 37t-39 97q0 64 41 101t107 37q62 0 100.5 -34t38.5 -97zM425 1400z" />
    <glyph glyph-name="cdotaccent" unicode="&#x10b;" horiz-adv-x="992" 
d="M922 66q-166 -94 -343 -94q-219 0 -360 127t-141 339q0 231 153.5 374t391.5 143q151 0 291 -57q-36 -141 -63 -296l-55 -9l-77 250q-27 10 -73 10q-114 0 -187 -99.5t-73 -266.5q0 -195 92.5 -287.5t263.5 -92.5q82 0 172 19zM744 1290q0 -68 -43 -110t-111 -42
q-63 0 -104 39.5t-41 103.5q0 70 43 110t112 40q63 0 103.5 -36.5t40.5 -104.5zM175 930z" />
    <glyph glyph-name="Ccaron" unicode="&#x10c;" horiz-adv-x="1351" 
d="M1198 1022l-55 -9l-76 287q-79 25 -171 25q-221 0 -342 -165.5t-121 -433.5q0 -286 142.5 -456t395.5 -170q141 0 297 57l13 -57q-200 -136 -452 -136q-327 0 -528.5 197t-201.5 519q0 343 221 543t577 200q176 0 360 -41l6 -10zM845 1648l324 147l32 -52l-272 -251h-168
l-272 251l32 52zM425 1400z" />
    <glyph glyph-name="ccaron" unicode="&#x10d;" horiz-adv-x="992" 
d="M922 66q-166 -94 -343 -94q-219 0 -360 127t-141 339q0 231 153.5 374t391.5 143q151 0 291 -57q-36 -141 -63 -296l-55 -9l-77 250q-27 10 -73 10q-114 0 -187 -99.5t-73 -266.5q0 -195 92.5 -287.5t263.5 -92.5q82 0 172 19zM293 1422h90l214 -224l214 224h90
l-200 -378h-208zM175 930z" />
    <glyph glyph-name="Dcaron" unicode="&#x10e;" horiz-adv-x="1617" 
d="M358 0q-129 0 -266 -3l-5 50l134 37q26 8 27 31q1 40 1.5 89.5t0.5 109.5v797q0 50 -0.5 91t-1.5 75q-1 26 -24 33l-134 39l-3 51q140 -4 268 -4q108 0 207 5t205 5q373 0 561 -159.5t188 -473.5q0 -370 -208.5 -574.5t-586.5 -204.5q-104 0 -185 3t-178 3zM550 102
q48 -9 94 -11.5t93 -2.5q217 0 330 153t113 466q0 305 -108 452.5t-340 147.5q-86 0 -182 -8v-1197zM757 1648l324 147l32 -52l-272 -251h-168l-272 251l32 52zM337 1400z" />
    <glyph glyph-name="dcaron" unicode="&#x10f;" horiz-adv-x="1412" 
d="M787 831q-54 19 -121 19q-137 0 -209 -94.5t-72 -284.5q0 -165 64 -264t180 -99q86 0 158 37v686zM629 1430q244 37 436 77l12 -8q-7 -214 -7 -460v-544q0 -131 1 -270q0 -51 4 -82t17.5 -47.5t41.5 -22.5t82 -7l6 -44q-146 -50 -249 -50q-134 0 -176 109
q-131 -109 -290 -109q-198 0 -313 130.5t-115 326.5q0 250 148.5 386.5t415.5 136.5q66 0 144 -11q0 211 -4 408l-147 40zM1176 1010q108 108 108 210q0 92 -104 145q0 54 34.5 86t90.5 32q61 0 99 -42.5t38 -118.5q0 -190 -225 -355zM1270 930z" />
    <glyph glyph-name="Dcroat" unicode="&#x110;" horiz-adv-x="1617" 
d="M358 0q-129 0 -266 -3l-5 50l134 37q26 8 27 31q1 40 1.5 89.5t0.5 109.5v371h-160v106h160v320q0 50 -0.5 91t-1.5 75q-1 26 -24 33l-134 39l-3 51q140 -4 268 -4q108 0 207 5t205 5q373 0 561 -159.5t188 -473.5q0 -370 -208.5 -574.5t-586.5 -204.5q-104 0 -185 3
t-178 3zM550 102q48 -9 94 -11.5t93 -2.5q217 0 330 153t113 466q0 305 -108 452.5t-340 147.5q-36 0 -81 -2t-101 -6v-508h273v-106h-273v-583z" />
    <glyph glyph-name="dcroat" unicode="&#x111;" horiz-adv-x="1269" 
d="M628 1430q244 37 436 77l12 -8q-5 -148 -7 -304h158v-97h-158v-603q0 -131 1 -270q0 -51 4 -82t17.5 -47.5t41.5 -22.5t77 -7l5 -44q-140 -50 -243 -50q-134 0 -176 109q-131 -109 -290 -109q-198 0 -313 128t-115 320q0 245 148.5 378t415.5 133q66 0 144 -11v178h-359
v97h358q-1 77 -3 154l-147 40zM786 811q-54 18 -121 18q-137 0 -209 -91.5t-72 -276.5q0 -161 64 -257t180 -96q86 0 158 36v667z" />
    <glyph glyph-name="Emacron" unicode="&#x112;" horiz-adv-x="1233" 
d="M353 1396h253q243 0 504 4l7 -8l-62 -333l-54 -8l-64 243h-387v-531h54q87 0 187 2q26 1 34 27l36 137l66 3q-3 -145 -3 -217q0 -70 3 -214l-66 -5l-37 141q-8 27 -31 28q-102 2 -190 2h-53v-343q0 -110 2 -218h400l126 263l61 9l-24 -374l-7 -7q-249 3 -485 3h-265
q-129 0 -266 -3l-5 50l134 37q25 7 27 31q1 40 1.5 89.5t0.5 109.5v797q0 50 -0.5 91t-1.5 75q-1 26 -24 33l-134 39l-3 51q140 -4 266 -4zM356 1557v122h561v-122h-561zM217 1400z" />
    <glyph glyph-name="emacron" unicode="&#x113;" horiz-adv-x="1101" 
d="M1022 66q-185 -94 -390 -94q-244 0 -398.5 120.5t-154.5 355.5q0 224 148.5 365.5t378.5 141.5q201 0 310.5 -108.5t109.5 -299.5q0 -29 -3 -60h-639q0 -201 98.5 -289t323.5 -88q109 0 208 19zM722 584v24q0 136 -34.5 195t-105.5 59q-85 0 -135.5 -81.5t-58.5 -196.5
h334zM303 1184v122h573v-122h-573zM170 930z" />
    <glyph glyph-name="Ebreve" unicode="&#x114;" horiz-adv-x="1233" 
d="M353 1396h253q243 0 504 4l7 -8l-62 -333l-54 -8l-64 243h-387v-531h54q87 0 187 2q26 1 34 27l36 137l66 3q-3 -145 -3 -217q0 -70 3 -214l-66 -5l-37 141q-8 27 -31 28q-102 2 -190 2h-53v-343q0 -110 2 -218h400l126 263l61 9l-24 -374l-7 -7q-249 3 -485 3h-265
q-129 0 -266 -3l-5 50l134 37q25 7 27 31q1 40 1.5 89.5t0.5 109.5v797q0 50 -0.5 91t-1.5 75q-1 26 -24 33l-134 39l-3 51q140 -4 266 -4zM423 1822q15 -80 71 -123t145 -43q90 0 145 42t75 117l71 7q0 -144 -78 -232t-220 -88q-133 0 -207.5 78t-74.5 235zM217 1400z" />
    <glyph glyph-name="ebreve" unicode="&#x115;" horiz-adv-x="1101" 
d="M1022 66q-185 -94 -390 -94q-244 0 -398.5 120.5t-154.5 355.5q0 224 148.5 365.5t378.5 141.5q201 0 310.5 -108.5t109.5 -299.5q0 -29 -3 -60h-639q0 -201 98.5 -289t323.5 -88q109 0 208 19zM722 584v24q0 136 -34.5 195t-105.5 59q-85 0 -135.5 -81.5t-58.5 -196.5
h334zM391 1399q14 -95 66 -143t135 -48q84 0 135 47t70 137l76 7q0 -158 -75.5 -254t-212.5 -96q-128 0 -200 85.5t-72 257.5zM170 930z" />
    <glyph glyph-name="Edotaccent" unicode="&#x116;" horiz-adv-x="1233" 
d="M353 1396h253q243 0 504 4l7 -8l-62 -333l-54 -8l-64 243h-387v-531h54q87 0 187 2q26 1 34 27l36 137l66 3q-3 -145 -3 -217q0 -70 3 -214l-66 -5l-37 141q-8 27 -31 28q-102 2 -190 2h-53v-343q0 -110 2 -218h400l126 263l61 9l-24 -374l-7 -7q-249 3 -485 3h-265
q-129 0 -266 -3l-5 50l134 37q25 7 27 31q1 40 1.5 89.5t0.5 109.5v797q0 50 -0.5 91t-1.5 75q-1 26 -24 33l-134 39l-3 51q140 -4 266 -4zM780 1660q0 -62 -41 -101.5t-107 -39.5q-61 0 -100 37t-39 97q0 64 41 101t107 37q62 0 100.5 -34t38.5 -97zM217 1400z" />
    <glyph glyph-name="edotaccent" unicode="&#x117;" horiz-adv-x="1101" 
d="M1022 66q-185 -94 -390 -94q-244 0 -398.5 120.5t-154.5 355.5q0 224 148.5 365.5t378.5 141.5q201 0 310.5 -108.5t109.5 -299.5q0 -29 -3 -60h-639q0 -201 98.5 -289t323.5 -88q109 0 208 19zM722 584v24q0 136 -34.5 195t-105.5 59q-85 0 -135.5 -81.5t-58.5 -196.5
h334zM739 1290q0 -68 -43 -110t-111 -42q-63 0 -104 39.5t-41 103.5q0 70 43 110t112 40q63 0 103.5 -36.5t40.5 -104.5zM170 930z" />
    <glyph glyph-name="Eogonek" unicode="&#x118;" horiz-adv-x="1233" 
d="M353 1396h253q243 0 504 4l7 -8l-62 -333l-54 -8l-64 243h-387v-531h54q87 0 187 2q26 1 34 27l36 137l66 3q-3 -145 -3 -217q0 -70 3 -214l-66 -5l-37 141q-8 27 -31 28q-102 2 -190 2h-53v-343q0 -110 2 -218h400l126 263l61 9l-24 -374l-7 -7l-51 1
q-95 0 -153.5 -58.5t-58.5 -143.5q0 -90 62.5 -135.5t164.5 -45.5q14 0 42 2l7 -52q-161 -55 -263 -55q-127 0 -190 52.5t-63 141.5q0 156 245 296h-492q-129 0 -266 -3l-5 50l134 37q25 7 27 31q1 40 1.5 89.5t0.5 109.5v797q0 50 -0.5 91t-1.5 75q-1 26 -24 33l-134 39
l-3 51q140 -4 266 -4z" />
    <glyph glyph-name="eogonek" unicode="&#x119;" horiz-adv-x="1101" 
d="M1022 66q-42 -22 -87 -39q-185 -77 -185 -231q0 -90 62.5 -135.5t164.5 -45.5q15 0 42 2l7 -52q-160 -55 -262 -55q-127 0 -190 52.5t-63 141.5q0 143 205 272q-41 -4 -82 -4q-244 0 -399.5 120.5t-155.5 355.5q0 224 148.5 365.5t378.5 141.5q201 0 310.5 -108.5
t109.5 -299.5q0 -29 -3 -60h-639q0 -201 98.5 -289t323.5 -88q109 0 208 19zM722 584v24q0 136 -34.5 195t-105.5 59q-85 0 -135.5 -81.5t-58.5 -196.5h334z" />
    <glyph glyph-name="Ecaron" unicode="&#x11a;" horiz-adv-x="1233" 
d="M353 1396h253q243 0 504 4l7 -8l-62 -333l-54 -8l-64 243h-387v-531h54q87 0 187 2q26 1 34 27l36 137l66 3q-3 -145 -3 -217q0 -70 3 -214l-66 -5l-37 141q-8 27 -31 28q-102 2 -190 2h-53v-343q0 -110 2 -218h400l126 263l61 9l-24 -374l-7 -7q-249 3 -485 3h-265
q-129 0 -266 -3l-5 50l134 37q25 7 27 31q1 40 1.5 89.5t0.5 109.5v797q0 50 -0.5 91t-1.5 75q-1 26 -24 33l-134 39l-3 51q140 -4 266 -4zM637 1648l324 147l32 -52l-272 -251h-168l-272 251l32 52zM217 1400z" />
    <glyph glyph-name="ecaron" unicode="&#x11b;" horiz-adv-x="1101" 
d="M1022 66q-185 -94 -390 -94q-244 0 -398.5 120.5t-154.5 355.5q0 224 148.5 365.5t378.5 141.5q201 0 310.5 -108.5t109.5 -299.5q0 -29 -3 -60h-639q0 -201 98.5 -289t323.5 -88q109 0 208 19zM722 584v24q0 136 -34.5 195t-105.5 59q-85 0 -135.5 -81.5t-58.5 -196.5
h334zM288 1422h90l214 -224l214 224h90l-200 -378h-208zM170 930z" />
    <glyph glyph-name="Gcircumflex" unicode="&#x11c;" horiz-adv-x="1516" 
d="M1230 1031l-56 -8l-70 276q-84 27 -196 27q-224 0 -349.5 -166.5t-125.5 -457.5q0 -304 126 -474t353 -170q54 0 116 9v263q0 50 -0.5 91t-1.5 75q-1 26 -25 33l-136 39l-3 50q142 -3 308 -3q171 0 293 3l6 -50l-119 -33q-24 -7 -26 -30q-1 -40 -1.5 -81.5t-0.5 -89.5
v-315l-7 -7q-215 -49 -409 -49q-364 0 -585.5 186t-221.5 519q0 354 221.5 554.5t604.5 200.5q184 0 362 -41l7 -9zM870 1620l-324 -147l-32 52l272 251h168l272 -251l-32 -52zM450 1400z" />
    <glyph glyph-name="gcircumflex" unicode="&#x11d;" horiz-adv-x="1117" 
d="M1107 877l-232 -59q74 -85 74 -192q0 -161 -116.5 -256.5t-306.5 -95.5q-118 0 -208 34q-39 -71 -39 -118q0 -26 26.5 -35t109.5 -9q60 0 147 1.5t158 1.5q169 0 260 -62.5t91 -189.5q0 -187 -185.5 -299.5t-419.5 -112.5q-193 0 -305.5 57.5t-112.5 148.5q0 118 156 244
q-103 42 -103 124q0 99 151 280q-152 89 -152 265q0 156 116.5 251t314.5 95q52 0 141 -12q86 -14 133 -14q164 0 296 3zM291 -78q-48 -89 -48 -165q0 -78 72.5 -122.5t197.5 -44.5q150 0 260 58.5t110 157.5q0 54 -45 86t-198 32q-60 1 -130 -2t-130 -3q-43 0 -89 3z
M384 621q0 -130 33 -201t112 -71q80 0 109.5 66.5t29.5 194.5q0 123 -32 194t-114 71q-80 0 -109 -65t-29 -189zM842 1044h-90l-214 224l-214 -224h-90l200 378h208zM120 930z" />
    <glyph glyph-name="Gbreve" unicode="&#x11e;" horiz-adv-x="1516" 
d="M1230 1031l-56 -8l-70 276q-84 27 -196 27q-224 0 -349.5 -166.5t-125.5 -457.5q0 -304 126 -474t353 -170q54 0 116 9v263q0 50 -0.5 91t-1.5 75q-1 26 -25 33l-136 39l-3 50q142 -3 308 -3q171 0 293 3l6 -50l-119 -33q-24 -7 -26 -30q-1 -40 -1.5 -81.5t-0.5 -89.5
v-315l-7 -7q-215 -49 -409 -49q-364 0 -585.5 186t-221.5 519q0 354 221.5 554.5t604.5 200.5q184 0 362 -41l7 -9zM656 1822q15 -80 71 -123t145 -43q90 0 145 42t75 117l71 7q0 -144 -78 -232t-220 -88q-133 0 -207.5 78t-74.5 235zM450 1400z" />
    <glyph glyph-name="gbreve" unicode="&#x11f;" horiz-adv-x="1117" 
d="M1107 877l-232 -59q74 -85 74 -192q0 -161 -116.5 -256.5t-306.5 -95.5q-118 0 -208 34q-39 -71 -39 -118q0 -26 26.5 -35t109.5 -9q60 0 147 1.5t158 1.5q169 0 260 -62.5t91 -189.5q0 -187 -185.5 -299.5t-419.5 -112.5q-193 0 -305.5 57.5t-112.5 148.5q0 118 156 244
q-103 42 -103 124q0 99 151 280q-152 89 -152 265q0 156 116.5 251t314.5 95q52 0 141 -12q86 -14 133 -14q164 0 296 3zM291 -78q-48 -89 -48 -165q0 -78 72.5 -122.5t197.5 -44.5q150 0 260 58.5t110 157.5q0 54 -45 86t-198 32q-60 1 -130 -2t-130 -3q-43 0 -89 3z
M384 621q0 -130 33 -201t112 -71q80 0 109.5 66.5t29.5 194.5q0 123 -32 194t-114 71q-80 0 -109 -65t-29 -189zM341 1399q14 -95 66 -143t135 -48q84 0 135 47t70 137l76 7q0 -158 -75.5 -254t-212.5 -96q-128 0 -200 85.5t-72 257.5zM120 930z" />
    <glyph glyph-name="Gdotaccent" unicode="&#x120;" horiz-adv-x="1516" 
d="M1230 1031l-56 -8l-70 276q-84 27 -196 27q-224 0 -349.5 -166.5t-125.5 -457.5q0 -304 126 -474t353 -170q54 0 116 9v263q0 50 -0.5 91t-1.5 75q-1 26 -25 33l-136 39l-3 50q142 -3 308 -3q171 0 293 3l6 -50l-119 -33q-24 -7 -26 -30q-1 -40 -1.5 -81.5t-0.5 -89.5
v-315l-7 -7q-215 -49 -409 -49q-364 0 -585.5 186t-221.5 519q0 354 221.5 554.5t604.5 200.5q184 0 362 -41l7 -9zM1013 1660q0 -62 -41 -101.5t-107 -39.5q-61 0 -100 37t-39 97q0 64 41 101t107 37q62 0 100.5 -34t38.5 -97zM450 1400z" />
    <glyph glyph-name="gdotaccent" unicode="&#x121;" horiz-adv-x="1117" 
d="M1107 877l-232 -59q74 -85 74 -192q0 -161 -116.5 -256.5t-306.5 -95.5q-118 0 -208 34q-39 -71 -39 -118q0 -26 26.5 -35t109.5 -9q60 0 147 1.5t158 1.5q169 0 260 -62.5t91 -189.5q0 -187 -185.5 -299.5t-419.5 -112.5q-193 0 -305.5 57.5t-112.5 148.5q0 118 156 244
q-103 42 -103 124q0 99 151 280q-152 89 -152 265q0 156 116.5 251t314.5 95q52 0 141 -12q86 -14 133 -14q164 0 296 3zM291 -78q-48 -89 -48 -165q0 -78 72.5 -122.5t197.5 -44.5q150 0 260 58.5t110 157.5q0 54 -45 86t-198 32q-60 1 -130 -2t-130 -3q-43 0 -89 3z
M384 621q0 -130 33 -201t112 -71q80 0 109.5 66.5t29.5 194.5q0 123 -32 194t-114 71q-80 0 -109 -65t-29 -189zM689 1290q0 -68 -43 -110t-111 -42q-63 0 -104 39.5t-41 103.5q0 70 43 110t112 40q63 0 103.5 -36.5t40.5 -104.5zM120 930z" />
    <glyph glyph-name="uni0122" unicode="&#x122;" horiz-adv-x="1516" 
d="M1230 1031l-56 -8l-70 276q-84 27 -196 27q-224 0 -349.5 -166.5t-125.5 -457.5q0 -304 126 -474t353 -170q54 0 116 9v263q0 50 -0.5 91t-1.5 75q-1 26 -25 33l-136 39l-3 50q142 -3 308 -3q171 0 293 3l6 -50l-119 -33q-24 -7 -26 -30q-1 -40 -1.5 -81.5t-0.5 -89.5
v-315l-7 -7q-215 -49 -409 -49q-364 0 -585.5 186t-221.5 519q0 354 221.5 554.5t604.5 200.5q184 0 362 -41l7 -9zM726 -465q97 82 97 169q0 73 -86 102q0 25 9 46t25 36t37.5 23.5t45.5 8.5q57 0 91.5 -36t34.5 -96q0 -154 -215 -288z" />
    <glyph glyph-name="uni0123" unicode="&#x123;" horiz-adv-x="1117" 
d="M1107 877l-232 -59q74 -85 74 -192q0 -161 -116.5 -256.5t-306.5 -95.5q-118 0 -208 34q-39 -71 -39 -118q0 -26 26.5 -35t109.5 -9q60 0 147 1.5t158 1.5q169 0 260 -62.5t91 -189.5q0 -187 -185.5 -299.5t-419.5 -112.5q-193 0 -305.5 57.5t-112.5 148.5q0 118 156 244
q-103 42 -103 124q0 99 151 280q-152 89 -152 265q0 156 116.5 251t314.5 95q52 0 141 -12q86 -14 133 -14q164 0 296 3zM291 -78q-48 -89 -48 -165q0 -78 72.5 -122.5t197.5 -44.5q150 0 260 58.5t110 157.5q0 54 -45 86t-198 32q-60 1 -130 -2t-130 -3q-43 0 -89 3z
M384 621q0 -130 33 -201t112 -71q80 0 109.5 66.5t29.5 194.5q0 123 -32 194t-114 71q-80 0 -109 -65t-29 -189zM668 1425q-97 -83 -97 -169q0 -74 86 -102q0 -51 -34 -82.5t-83 -31.5q-56 0 -91 36.5t-35 95.5q0 154 215 288zM961 932z" />
    <glyph glyph-name="Hcircumflex" unicode="&#x124;" horiz-adv-x="1695" 
d="M550 685v-371q0 -118 2 -197q1 -28 26 -35l116 -35l3 -50q-124 3 -293 3q-173 0 -312 -3l-5 50l134 37q26 8 27 31q2 81 2 199v797q0 100 -2 166q-1 26 -24 33l-134 39l-3 51q139 -4 308 -4q174 0 296 4l6 -51l-119 -34q-25 -7 -26 -31q-2 -72 -2 -169v-324h596v324
q0 97 -2 169q-1 24 -26 31l-117 34l-3 51q127 -4 300 -4q169 0 305 4l5 -51l-136 -39q-23 -7 -25 -33q-2 -66 -2 -166v-797q0 -118 2 -199q2 -23 28 -31l130 -37l3 -50q-143 3 -316 3q-169 0 -289 -3l-5 50l120 35q25 7 26 35q2 79 2 197v371h-596zM847 1620l-324 -147
l-32 52l272 251h168l272 -251l-32 -52zM427 1400z" />
    <glyph glyph-name="hcircumflex" unicode="&#x125;" horiz-adv-x="1305" 
d="M813 955q146 0 229 -79.5t83 -225.5v-351q0 -125 2 -185q1 -27 26 -34l121 -35l3 -48q-143 3 -288 3q-150 0 -270 -3l-4 48l100 30q23 7 25 30q1 15 1 63v419q0 123 -48 176.5t-143 53.5q-83 0 -171 -38v-440q0 -125 2 -229q1 -27 23 -33l104 -32l2 -48q-124 3 -270 3
q-149 0 -293 -3l-5 48l129 35q22 6 23 30q1 64 1 123v875q0 131 -4 241l-147 40l-6 41q250 37 436 77l11 -8q-6 -138 -6 -294v-351q169 101 334 101zM326 1673l-324 -147l-32 52l272 251h168l272 -251l-32 -52zM-94 1453z" />
    <glyph glyph-name="Hbar" unicode="&#x126;" horiz-adv-x="1695" 
d="M550 674v-360q0 -118 2 -197q1 -28 26 -35l116 -35l3 -50q-124 3 -293 3q-173 0 -312 -3l-5 50l134 37q26 8 27 31q2 81 2 199v681h-164v104h164v12q0 100 -2 166q-1 26 -24 33l-134 39l-3 51q139 -4 308 -4q174 0 296 4l6 -51l-119 -34q-25 -7 -26 -31q-2 -72 -2 -169
v-16h596v16q0 97 -2 169q-1 24 -26 31l-117 34l-3 51q127 -4 300 -4q169 0 305 4l5 -51l-136 -39q-23 -7 -25 -33q-2 -66 -2 -166v-12h163v-104h-163v-681q0 -118 2 -199q2 -23 28 -31l130 -37l3 -50q-143 3 -316 3q-169 0 -289 -3l-5 50l120 35q25 7 26 35q2 79 2 197v360
h-596zM1146 780v215h-596v-215h596z" />
    <glyph glyph-name="hbar" unicode="&#x127;" horiz-adv-x="1305" 
d="M813 929q146 0 229 -79.5t83 -225.5v-325q0 -125 2 -185q1 -27 26 -34l121 -35l3 -48q-143 3 -288 3q-150 0 -270 -3l-4 48l100 30q23 7 25 30q1 15 1 63v393q0 123 -48 176.5t-143 53.5q-83 0 -171 -38v-414q0 -125 2 -229q1 -27 23 -33l104 -32l2 -48q-124 3 -270 3
q-149 0 -293 -3l-5 48l129 35q22 6 23 30q1 64 1 123v865h-172v97h172q0 65 -4 154l-147 40l-6 41q250 37 436 77l11 -8q-6 -138 -6 -304h367v-97h-367v-271q169 102 334 102z" />
    <glyph glyph-name="Itilde" unicode="&#x128;" horiz-adv-x="800" 
d="M550 314q0 -60 0.5 -109t1.5 -88q1 -26 34 -35l123 -35l3 -50q-139 3 -308 3q-175 0 -312 -3l-5 50l134 37q25 7 27 31q1 40 1.5 89.5t0.5 109.5v797q0 50 -0.5 91t-1.5 75q-1 26 -24 33l-134 39l-3 51q139 -4 308 -4q174 0 312 4l5 -51l-134 -37q-24 -6 -26 -30
q-1 -36 -1.5 -77.5t-0.5 -89.5v-801zM747 1736q-116 -213 -228 -213q-38 0 -70 15t-72 38q-18 11 -32 19t-27 14t-25 9t-24 3q-30 0 -54.5 -16.5t-83.5 -80.5l-51 43q71 114 120.5 160.5t104.5 46.5q30 0 57 -10q27 -11 76 -39q22 -12 38.5 -21.5t30 -15.5t25.5 -9t25 -3
q32 0 54.5 16t81.5 81zM-19 1400z" />
    <glyph glyph-name="itilde" unicode="&#x129;" horiz-adv-x="679" 
d="M47 882q246 37 432 77l11 -8q-6 -138 -6 -294v-377q0 -119 2 -166q2 -27 25 -34l125 -35l3 -48q-148 3 -294 3q-149 0 -294 -3l-5 48l127 35q23 6 25 30q2 39 2 131v322q0 131 -4 241l-143 37zM691 1332q-120 -220 -236 -220q-39 0 -72 15.5t-74 39.5q-19 11 -33.5 19.5
t-28 14.5t-25.5 9t-25 3q-31 0 -56 -17t-86 -83l-53 44q73 118 124.5 166t107.5 48q31 0 59 -10q28 -11 79 -40q23 -13 40 -22.5t31 -16t26 -9.5t26 -3q33 0 56 16.5t84 83.5zM-89 930z" />
    <glyph glyph-name="Imacron" unicode="&#x12a;" horiz-adv-x="800" 
d="M550 314q0 -60 0.5 -109t1.5 -88q1 -26 34 -35l123 -35l3 -50q-139 3 -308 3q-175 0 -312 -3l-5 50l134 37q25 7 27 31q1 40 1.5 89.5t0.5 109.5v797q0 50 -0.5 91t-1.5 75q-1 26 -24 33l-134 39l-3 51q139 -4 308 -4q174 0 312 4l5 -51l-134 -37q-24 -6 -26 -30
q-1 -36 -1.5 -77.5t-0.5 -89.5v-801zM120 1557v122h561v-122h-561zM-19 1400z" />
    <glyph glyph-name="imacron" unicode="&#x12b;" horiz-adv-x="679" 
d="M47 882q246 37 432 77l11 -8q-6 -138 -6 -294v-377q0 -119 2 -166q2 -27 25 -34l125 -35l3 -48q-148 3 -294 3q-149 0 -294 -3l-5 48l127 35q23 6 25 30q2 39 2 131v322q0 131 -4 241l-143 37zM44 1184v122h573v-122h-573zM-89 930z" />
    <glyph glyph-name="Ibreve" unicode="&#x12c;" horiz-adv-x="800" 
d="M550 314q0 -60 0.5 -109t1.5 -88q1 -26 34 -35l123 -35l3 -50q-139 3 -308 3q-175 0 -312 -3l-5 50l134 37q25 7 27 31q1 40 1.5 89.5t0.5 109.5v797q0 50 -0.5 91t-1.5 75q-1 26 -24 33l-134 39l-3 51q139 -4 308 -4q174 0 312 4l5 -51l-134 -37q-24 -6 -26 -30
q-1 -36 -1.5 -77.5t-0.5 -89.5v-801zM187 1822q15 -80 71 -123t145 -43q90 0 145 42t75 117l71 7q0 -144 -78 -232t-220 -88q-133 0 -207.5 78t-74.5 235zM-19 1400z" />
    <glyph glyph-name="ibreve" unicode="&#x12d;" horiz-adv-x="679" 
d="M47 882q246 37 432 77l11 -8q-6 -138 -6 -294v-377q0 -119 2 -166q2 -27 25 -34l125 -35l3 -48q-148 3 -294 3q-149 0 -294 -3l-5 48l127 35q23 6 25 30q2 39 2 131v322q0 131 -4 241l-143 37zM132 1399q14 -95 66 -143t135 -48q84 0 135 47t70 137l76 7
q0 -158 -75.5 -254t-212.5 -96q-128 0 -200 85.5t-72 257.5zM-89 930z" />
    <glyph glyph-name="Iogonek" unicode="&#x12e;" horiz-adv-x="805" 
d="M550 314q0 -60 0.5 -109t1.5 -88q1 -26 34 -35l123 -35l3 -50l-60 2q-92 0 -151.5 -59t-59.5 -144q0 -90 62 -135.5t164 -45.5q15 0 42 2l8 -52q-161 -55 -263 -55q-127 0 -190 52.5t-63 141.5q0 156 246 296h-43q-175 0 -312 -3l-5 50l134 37q25 7 27 31q1 40 1.5 89.5
t0.5 109.5v797q0 50 -0.5 91t-1.5 75q-1 26 -24 33l-134 39l-3 51q139 -4 308 -4q174 0 312 4l5 -51l-134 -37q-24 -6 -26 -30q-1 -36 -1.5 -77.5t-0.5 -89.5v-801z" />
    <glyph glyph-name="iogonek" unicode="&#x12f;" horiz-adv-x="640" 
d="M25 882q246 37 432 77l11 -8q-6 -138 -6 -294v-377q0 -119 2 -166q2 -27 25 -34l125 -35l3 -48q-28 2 -53 2q-98 0 -158 -59t-60 -144q0 -90 62.5 -135.5t164.5 -45.5q15 0 42 2l8 -52q-161 -55 -263 -55q-127 0 -190 52.5t-63 141.5q0 156 246 296q-184 0 -324 -3l-5 48
l127 35q23 6 25 30q2 39 2 131v322q0 131 -4 241l-143 37zM465 1289q0 -69 -44.5 -112t-116.5 -43q-66 0 -108.5 40.5t-42.5 105.5q0 71 45 112t117 41q66 0 108 -37.5t42 -106.5z" />
    <glyph glyph-name="Idotaccent" unicode="&#x130;" horiz-adv-x="800" 
d="M550 314q0 -60 0.5 -109t1.5 -88q1 -26 34 -35l123 -35l3 -50q-139 3 -308 3q-175 0 -312 -3l-5 50l134 37q25 7 27 31q1 40 1.5 89.5t0.5 109.5v797q0 50 -0.5 91t-1.5 75q-1 26 -24 33l-134 39l-3 51q139 -4 308 -4q174 0 312 4l5 -51l-134 -37q-24 -6 -26 -30
q-1 -36 -1.5 -77.5t-0.5 -89.5v-801zM544 1660q0 -62 -41 -101.5t-107 -39.5q-61 0 -100 37t-39 97q0 64 41 101t107 37q62 0 100.5 -34t38.5 -97zM-19 1400z" />
    <glyph glyph-name="dotlessi" unicode="&#x131;" horiz-adv-x="679" 
d="M47 882q246 37 432 77l11 -8q-6 -138 -6 -294v-377q0 -119 2 -166q2 -27 25 -34l125 -35l3 -48q-148 3 -294 3q-149 0 -294 -3l-5 48l127 35q23 6 25 30q2 39 2 131v322q0 131 -4 241l-143 37z" />
    <glyph glyph-name="IJ" unicode="&#x132;" horiz-adv-x="1489" 
d="M550 314q0 -60 0.5 -109t1.5 -88q1 -26 34 -35l123 -35l3 -50q-139 3 -308 3q-175 0 -312 -3l-5 50l134 37q25 7 27 31q1 40 1.5 89.5t0.5 109.5v797q0 50 -0.5 91t-1.5 75q-1 26 -24 33l-134 39l-3 51q139 -4 308 -4q174 0 312 4l5 -51l-134 -37q-24 -6 -26 -30
q-1 -36 -1.5 -77.5t-0.5 -89.5v-801zM816 1400q140 -4 309 -4q173 0 312 4l5 -51l-134 -37q-25 -6 -27 -30q-1 -36 -1.5 -77.5t-0.5 -89.5v-904q0 -99 -9 -179t-31 -143t-61 -112.5t-100.5 -88.5t-149 -69t-205.5 -52l-19 59q97 43 151 95.5t82 119.5t35.5 151t7.5 189v930
q0 50 -0.5 91t-1.5 75q-1 26 -24 33l-135 39z" />
    <glyph glyph-name="ij" unicode="&#x133;" horiz-adv-x="1284" 
d="M487 1290q0 -69 -44.5 -112t-116.5 -43q-66 0 -108.5 40.5t-42.5 105.5q0 71 45 112t117 41q66 0 108 -37.5t42 -106.5zM47 882q246 37 432 77l11 -8q-6 -138 -6 -294v-377q0 -119 2 -166q2 -27 25 -34l125 -35l3 -48q-148 3 -294 3q-149 0 -294 -3l-5 48l127 35
q23 6 25 30q2 39 2 131v322q0 131 -4 241l-143 37zM672 882q246 37 431 77l12 -8q-6 -130 -6 -285v-535q0 -200 -108 -333t-315 -302l-57 49q140 188 168 281t28 258v484q0 121 -4 236l-143 37zM1112 1290q0 -69 -44.5 -112t-116.5 -43q-66 0 -108.5 40.5t-42.5 105.5
q0 71 44.5 112t117.5 41q66 0 108 -37.5t42 -106.5z" />
    <glyph glyph-name="Jcircumflex" unicode="&#x134;" horiz-adv-x="744" 
d="M71 1400q140 -4 309 -4q173 0 312 4l5 -51l-134 -37q-25 -6 -27 -30q-1 -36 -1.5 -77.5t-0.5 -89.5v-904q0 -99 -9 -179t-31 -143t-61 -112.5t-100.5 -88.5t-149 -69t-205.5 -52l-19 59q97 43 151 95.5t82 119.5t35.5 151t7.5 189v930q0 50 -0.5 91t-1.5 75q-1 26 -24 33
l-135 39zM386 1620l-324 -147l-32 52l272 251h168l272 -251l-32 -52zM-34 1400z" />
    <glyph glyph-name="jcircumflex" unicode="&#x135;" horiz-adv-x="644" 
d="M32 882q246 37 431 77l12 -8q-6 -130 -6 -285v-535q0 -200 -108 -333t-315 -302l-57 49q140 188 168 281t28 258v484q0 121 -4 236l-143 37zM617 1044h-90l-214 224l-214 -224h-90l200 378h208z" />
    <glyph glyph-name="uni0136" unicode="&#x136;" horiz-adv-x="1497" 
d="M550 1115v-801q0 -60 0.5 -109t1.5 -88q1 -27 26 -35l116 -35l3 -50q-124 3 -293 3q-175 0 -312 -3l-5 50l134 37q26 8 27 31q1 40 1.5 89.5t0.5 109.5v797q0 50 -0.5 91t-1.5 75q-1 26 -24 33l-134 39l-3 51q139 -4 308 -4q173 0 296 4l6 -51l-119 -34q-24 -7 -26 -31
q-1 -37 -1.5 -79t-0.5 -90zM573 699l410 451q49 53 77 89.5t28 58.5q0 19 -27 27l-87 22l-3 53q106 -4 232 -4q124 0 236 4l5 -51l-113 -31q-49 -15 -84 -46t-74 -73l-343 -383l440 -647q32 -45 57 -63.5t60 -28.5l97 -30l3 -50q-111 3 -229 3q-110 0 -237 -2
q-30 66 -163 268zM655 -465q97 82 97 169q0 73 -86 102q0 25 9 46t25 36t37.5 23.5t45.5 8.5q57 0 91.5 -36t34.5 -96q0 -154 -215 -288z" />
    <glyph glyph-name="uni0137" unicode="&#x137;" horiz-adv-x="1248" 
d="M38 1430q250 37 436 77l11 -8q-6 -138 -6 -294v-927q0 -119 2 -166q2 -27 25 -34l108 -33l4 -48q-132 3 -278 3q-149 0 -294 -3l-5 48l127 35q23 6 25 30q2 39 2 131v867q0 131 -4 241l-147 40zM1248 -3q-182 3 -270 3q-62 0 -150 -2q-33 57 -78 125q-115 177 -253 357
l384 376l-110 29l-5 47q122 -3 209 -3q71 0 232 3l5 -48q-124 -28 -170.5 -52t-102.5 -76l-183 -175l305 -428q32 -43 59.5 -63t123.5 -45zM511 -465q97 82 97 169q0 73 -86 102q0 25 9 46t25 36t37.5 23.5t45.5 8.5q57 0 91.5 -36t34.5 -96q0 -154 -215 -288z" />
    <glyph glyph-name="kgreenlandic" unicode="&#x138;" horiz-adv-x="1253" 
d="M47 882q246 37 432 77l11 -8q-6 -138 -6 -294v-379q0 -119 2 -166q2 -27 25 -34l108 -33l4 -48q-132 3 -278 3q-149 0 -294 -3l-5 48l127 35q23 6 25 30q2 39 2 131v319q0 131 -4 244l-143 37zM1253 -3q-182 3 -270 3q-62 0 -150 -2q-33 57 -78 125q-115 177 -253 357
l384 376l-110 29l-5 47q122 -3 209 -3q71 0 232 3l5 -48q-124 -28 -170.5 -52t-102.5 -76l-183 -175l305 -428q32 -43 59.5 -63t123.5 -45z" />
    <glyph glyph-name="Lacute" unicode="&#x139;" horiz-adv-x="1181" 
d="M550 1115v-791q0 -110 2 -218h391l137 284l61 9l-25 -395l-7 -7q-247 3 -483 3h-248q-149 0 -276 -3l-5 50l124 37q25 7 27 31q1 40 1.5 89.5t0.5 109.5v797q0 50 -0.5 91t-1.5 75q-1 26 -24 33l-124 39l-3 51q129 -4 298 -4q174 0 302 4l5 -51l-124 -37q-24 -6 -26 -30
q-1 -36 -1.5 -102.5t-0.5 -64.5zM683 1647l-475 -174l-31 52l350 275l156 -138v-15zM-19 1400z" />
    <glyph glyph-name="lacute" unicode="&#x13a;" horiz-adv-x="674" 
d="M38 1430q250 37 436 77l11 -8q-6 -138 -6 -294v-925q0 -119 2 -166q2 -27 25 -34l125 -35l3 -48q-148 3 -294 3q-149 0 -294 -3l-5 48l127 35q23 6 25 30q2 39 2 131v867q0 131 -4 241l-147 40zM608 1700l-475 -174l-31 52l350 275l156 -138v-15zM-94 1453z" />
    <glyph glyph-name="uni013B" unicode="&#x13b;" horiz-adv-x="1181" 
d="M550 1115v-791q0 -110 2 -218h391l137 284l61 9l-25 -395l-7 -7q-247 3 -483 3h-248q-149 0 -276 -3l-5 50l124 37q25 7 27 31q1 40 1.5 89.5t0.5 109.5v797q0 50 -0.5 91t-1.5 75q-1 26 -24 33l-124 39l-3 51q129 -4 298 -4q174 0 302 4l5 -51l-124 -37q-24 -6 -26 -30
q-1 -36 -1.5 -102.5t-0.5 -64.5zM511 -465q97 82 97 169q0 73 -86 102q0 25 9 46t25 36t37.5 23.5t45.5 8.5q57 0 91.5 -36t34.5 -96q0 -154 -215 -288z" />
    <glyph glyph-name="uni013C" unicode="&#x13c;" horiz-adv-x="674" 
d="M38 1430q250 37 436 77l11 -8q-6 -138 -6 -294v-925q0 -119 2 -166q2 -27 25 -34l125 -35l3 -48q-148 3 -294 3q-149 0 -294 -3l-5 48l127 35q23 6 25 30q2 39 2 131v867q0 131 -4 241l-147 40zM207 -465q97 82 97 169q0 73 -86 102q0 25 9 46t25 36t37.5 23.5t45.5 8.5
q57 0 91.5 -36t34.5 -96q0 -154 -215 -288z" />
    <glyph glyph-name="Lcaron" unicode="&#x13d;" horiz-adv-x="1181" 
d="M550 1115v-791q0 -110 2 -218h391l137 284l61 9l-25 -395l-7 -7q-247 3 -483 3h-248q-149 0 -276 -3l-5 50l124 37q25 7 27 31q1 40 1.5 89.5t0.5 109.5v797q0 50 -0.5 91t-1.5 75q-1 26 -24 33l-124 39l-3 51q129 -4 298 -4q174 0 302 4l5 -51l-124 -37q-24 -6 -26 -30
q-1 -36 -1.5 -102.5t-0.5 -64.5zM786 941q108 108 108 210q0 92 -104 145q0 54 34.5 86t90.5 32q61 0 99 -42.5t38 -118.5q0 -190 -225 -355z" />
    <glyph glyph-name="lcaron" unicode="&#x13e;" horiz-adv-x="816" 
d="M38 1430q250 37 436 77l11 -8q-6 -138 -6 -294v-925q0 -119 2 -166q2 -27 25 -34l125 -35l3 -48q-148 3 -294 3q-149 0 -294 -3l-5 48l127 35q23 6 25 30q2 39 2 131v867q0 131 -4 241l-147 40zM580 1010q108 108 108 210q0 92 -104 145q0 54 34.5 86t90.5 32
q61 0 99 -42.5t38 -118.5q0 -190 -225 -355z" />
    <glyph glyph-name="Ldot" unicode="&#x13f;" horiz-adv-x="1181" 
d="M550 1115v-791q0 -110 2 -218h391l137 284l61 9l-25 -395l-7 -7q-247 3 -483 3h-248q-149 0 -276 -3l-5 50l124 37q25 7 27 31q1 40 1.5 89.5t0.5 109.5v797q0 50 -0.5 91t-1.5 75q-1 26 -24 33l-124 39l-3 51q129 -4 298 -4q174 0 302 4l5 -51l-124 -37q-24 -6 -26 -30
q-1 -36 -1.5 -102.5t-0.5 -64.5zM1141 741q0 -68 -43 -110t-111 -42q-63 0 -104 39.5t-41 103.5q0 70 43 110t112 40q63 0 103.5 -36.5t40.5 -104.5z" />
    <glyph glyph-name="ldot" unicode="&#x140;" horiz-adv-x="873" 
d="M38 1430q250 37 436 77l11 -8q-6 -138 -6 -294v-925q0 -119 2 -166q2 -27 25 -34l125 -35l3 -48q-148 3 -294 3q-149 0 -294 -3l-5 48l127 35q23 6 25 30q2 39 2 131v867q0 131 -4 241l-147 40zM923 728q0 -68 -43 -110t-111 -42q-63 0 -104 39.5t-41 103.5q0 70 43 110
t112 40q63 0 103.5 -36.5t40.5 -104.5z" />
    <glyph glyph-name="Lslash" unicode="&#x141;" horiz-adv-x="1181" 
d="M550 1115v-297l354 111l6 -106l-360 -113v-386q0 -110 2 -218h391l137 284l61 9l-25 -395l-7 -7q-247 3 -483 3h-268q-129 0 -256 -3l-5 50l124 37q25 7 27 31q1 40 1.5 89.5t0.5 109.5v302l-153 -48l-6 106l159 49v388q0 50 -0.5 91t-1.5 75q-1 26 -24 33l-124 39l-3 51
q129 -4 298 -4q174 0 302 4l5 -51l-124 -37q-24 -6 -26 -30q-1 -36 -1.5 -102.5t-0.5 -64.5z" />
    <glyph glyph-name="lslash" unicode="&#x142;" horiz-adv-x="689" 
d="M13 730l192 60v318q0 131 -4 241l-147 40l-6 41q250 37 436 77l11 -8q-6 -138 -6 -294v-327l185 57l6 -98l-191 -60v-497q0 -119 2 -166q2 -27 25 -34l125 -35l3 -48q-148 3 -294 3q-149 0 -294 -3l-5 48l127 35q23 6 25 30q2 39 2 131v447l-187 -59z" />
    <glyph glyph-name="Nacute" unicode="&#x143;" horiz-adv-x="1548" 
d="M358 119q1 -29 25 -35l128 -35l3 -52q-135 3 -222 3q-86 0 -225 -3l-5 50l134 37q26 8 27 31q2 81 2 199v797q0 100 -2 166q-1 26 -24 33l-134 39l-3 51q140 -4 215 -4q98 0 186 4l665 -833q40 -50 82 -106q-2 69 -2 133v521q0 97 -2 167q-1 23 -26 30l-128 35l-3 53
q138 -4 224 -4q88 0 223 4l5 -51l-136 -39q-23 -7 -24 -33q-3 -66 -3 -166v-1111l-115 -11l-788 987q-35 45 -81 107q2 -74 2 -136v-633q0 -118 2 -195zM1067 1647l-475 -174l-31 52l350 275l156 -138v-15zM365 1400z" />
    <glyph glyph-name="nacute" unicode="&#x144;" horiz-adv-x="1310" 
d="M47 882q231 34 422 76l15 -8v-107q169 112 334 112q146 0 229 -79.5t83 -225.5v-351q0 -125 2 -185q1 -27 26 -34l121 -35l3 -48q-143 3 -288 3q-150 0 -270 -3l-4 48l100 30q23 7 25 30q1 15 1 63v419q0 123 -48 176.5t-143 53.5q-83 0 -171 -48v-430q0 -125 2 -229
q1 -27 23 -33l104 -32l2 -48q-124 3 -270 3q-149 0 -293 -3l-5 48l129 35q22 6 23 30q1 64 1 123v329q0 131 -4 242l-143 37zM675 1422h242l-248 -378h-84zM230 930z" />
    <glyph glyph-name="uni0145" unicode="&#x145;" horiz-adv-x="1548" 
d="M358 119q1 -29 25 -35l128 -35l3 -52q-135 3 -222 3q-86 0 -225 -3l-5 50l134 37q26 8 27 31q2 81 2 199v797q0 100 -2 166q-1 26 -24 33l-134 39l-3 51q140 -4 215 -4q98 0 186 4l665 -833q40 -50 82 -106q-2 69 -2 133v521q0 97 -2 167q-1 23 -26 30l-128 35l-3 53
q138 -4 224 -4q88 0 223 4l5 -51l-136 -39q-23 -7 -24 -33q-3 -66 -3 -166v-1111l-115 -11l-788 987q-35 45 -81 107q2 -74 2 -136v-633q0 -118 2 -195zM658 -465q97 82 97 169q0 73 -86 102q0 25 9 46t25 36t37.5 23.5t45.5 8.5q57 0 91.5 -36t34.5 -96q0 -154 -215 -288z
" />
    <glyph glyph-name="uni0146" unicode="&#x146;" horiz-adv-x="1310" 
d="M47 882q231 34 422 76l15 -8v-107q169 112 334 112q146 0 229 -79.5t83 -225.5v-351q0 -125 2 -185q1 -27 26 -34l121 -35l3 -48q-143 3 -288 3q-150 0 -270 -3l-4 48l100 30q23 7 25 30q1 15 1 63v419q0 123 -48 176.5t-143 53.5q-83 0 -171 -48v-430q0 -125 2 -229
q1 -27 23 -33l104 -32l2 -48q-124 3 -270 3q-149 0 -293 -3l-5 48l129 35q22 6 23 30q1 64 1 123v329q0 131 -4 242l-143 37zM536 -465q97 82 97 169q0 73 -86 102q0 25 9 46t25 36t37.5 23.5t45.5 8.5q57 0 91.5 -36t34.5 -96q0 -154 -215 -288z" />
    <glyph glyph-name="Ncaron" unicode="&#x147;" horiz-adv-x="1548" 
d="M358 119q1 -29 25 -35l128 -35l3 -52q-135 3 -222 3q-86 0 -225 -3l-5 50l134 37q26 8 27 31q2 81 2 199v797q0 100 -2 166q-1 26 -24 33l-134 39l-3 51q140 -4 215 -4q98 0 186 4l665 -833q40 -50 82 -106q-2 69 -2 133v521q0 97 -2 167q-1 23 -26 30l-128 35l-3 53
q138 -4 224 -4q88 0 223 4l5 -51l-136 -39q-23 -7 -24 -33q-3 -66 -3 -166v-1111l-115 -11l-788 987q-35 45 -81 107q2 -74 2 -136v-633q0 -118 2 -195zM785 1648l324 147l32 -52l-272 -251h-168l-272 251l32 52zM365 1400z" />
    <glyph glyph-name="ncaron" unicode="&#x148;" horiz-adv-x="1310" 
d="M47 882q231 34 422 76l15 -8v-107q169 112 334 112q146 0 229 -79.5t83 -225.5v-351q0 -125 2 -185q1 -27 26 -34l121 -35l3 -48q-143 3 -288 3q-150 0 -270 -3l-4 48l100 30q23 7 25 30q1 15 1 63v419q0 123 -48 176.5t-143 53.5q-83 0 -171 -48v-430q0 -125 2 -229
q1 -27 23 -33l104 -32l2 -48q-124 3 -270 3q-149 0 -293 -3l-5 48l129 35q22 6 23 30q1 64 1 123v329q0 131 -4 242l-143 37zM348 1422h90l214 -224l214 224h90l-200 -378h-208zM230 930z" />
    <glyph glyph-name="napostrophe" unicode="&#x149;" horiz-adv-x="1580" 
d="M317 882q231 34 422 76l15 -8v-107q169 112 334 112q146 0 229 -79.5t83 -225.5v-351q0 -125 2 -185q1 -27 26 -34l121 -35l3 -48q-143 3 -288 3q-150 0 -270 -3l-4 48l100 30q23 7 25 30q1 15 1 63v419q0 123 -48 176.5t-143 53.5q-83 0 -171 -48v-430q0 -125 2 -229
q1 -27 23 -33l104 -32l2 -48q-124 3 -270 3q-149 0 -293 -3l-5 48l129 35q22 6 23 30q1 64 1 123v329q0 131 -4 242l-143 37zM70 970q144 121 144 238q0 106 -112 161q0 65 38.5 101.5t97.5 36.5q64 0 106 -50t42 -124q0 -115 -71 -217.5t-200 -199.5z" />
    <glyph glyph-name="Eng" unicode="&#x14a;" horiz-adv-x="1548" 
d="M1338 270q0 -76 -2 -157t-12.5 -158.5t-34 -147t-66.5 -122t-109 -83t-162 -30.5q-57 0 -118 13q20 135 47 241l10 6q96 -23 160 -23q81 0 113 43t42 157l-771 967q-35 45 -81 107q2 -74 2 -136v-633q0 -118 2 -195q1 -29 25 -35l128 -35l3 -52q-135 3 -222 3
q-86 0 -225 -3l-5 50l134 37q26 8 27 31q2 81 2 199v797q0 100 -2 166q-1 26 -24 33l-134 39l-3 51q140 -4 215 -4q98 0 186 4l665 -833q40 -50 82 -106q-2 69 -2 133v521q0 97 -2 167q-1 23 -26 30l-128 35l-3 53q138 -4 224 -4q88 0 223 4l5 -51l-136 -39q-23 -7 -24 -33
q-3 -66 -3 -166v-841z" />
    <glyph glyph-name="eng" unicode="&#x14b;" horiz-adv-x="1275" 
d="M484 769v-430q0 -125 2 -229q1 -27 23 -33l104 -32l2 -48q-124 3 -270 3q-149 0 -293 -3l-5 48l129 35q22 6 23 30q1 64 1 123v329q0 131 -4 242l-143 37l-6 41q231 34 422 76l15 -8v-107q166 112 329 112q144 0 225.5 -79.5t81.5 -225.5v-600q0 -270 -113 -404
t-302 -134q-110 0 -209 38q21 99 58 202l13 2q43 -68 74 -107t61 -39q67 0 100.5 81t33.5 312v586q0 123 -46.5 176.5t-139.5 53.5q-80 0 -166 -48z" />
    <glyph glyph-name="Omacron" unicode="&#x14c;" horiz-adv-x="1697" 
d="M435 717q0 -320 108 -489.5t317 -169.5q206 0 304.5 154t98.5 484q0 310 -104 476.5t-322 166.5q-211 0 -306.5 -154.5t-95.5 -467.5zM1599 730q0 -346 -204 -556.5t-568 -210.5q-348 0 -538 194.5t-190 526.5q0 346 205 547.5t567 201.5q348 0 538 -188.5t190 -514.5z
M569 1557v122h561v-122h-561zM430 1400z" />
    <glyph glyph-name="omacron" unicode="&#x14d;" horiz-adv-x="1226" 
d="M390 475q0 -182 54.5 -295.5t174.5 -113.5q112 0 164.5 100t52.5 297q0 185 -55.5 291.5t-173.5 106.5q-110 0 -163.5 -96t-53.5 -290zM1146 483q0 -228 -152 -369.5t-396 -141.5q-237 0 -378 133.5t-141 349.5q0 219 148 359.5t400 140.5q239 0 379 -129.5t140 -342.5z
M327 1184v122h573v-122h-573zM194 930z" />
    <glyph glyph-name="Obreve" unicode="&#x14e;" horiz-adv-x="1697" 
d="M435 717q0 -320 108 -489.5t317 -169.5q206 0 304.5 154t98.5 484q0 310 -104 476.5t-322 166.5q-211 0 -306.5 -154.5t-95.5 -467.5zM1599 730q0 -346 -204 -556.5t-568 -210.5q-348 0 -538 194.5t-190 526.5q0 346 205 547.5t567 201.5q348 0 538 -188.5t190 -514.5z
M636 1822q15 -80 71 -123t145 -43q90 0 145 42t75 117l71 7q0 -144 -78 -232t-220 -88q-133 0 -207.5 78t-74.5 235zM430 1400z" />
    <glyph glyph-name="obreve" unicode="&#x14f;" horiz-adv-x="1226" 
d="M390 475q0 -182 54.5 -295.5t174.5 -113.5q112 0 164.5 100t52.5 297q0 185 -55.5 291.5t-173.5 106.5q-110 0 -163.5 -96t-53.5 -290zM1146 483q0 -228 -152 -369.5t-396 -141.5q-237 0 -378 133.5t-141 349.5q0 219 148 359.5t400 140.5q239 0 379 -129.5t140 -342.5z
M415 1399q14 -95 66 -143t135 -48q84 0 135 47t70 137l76 7q0 -158 -75.5 -254t-212.5 -96q-128 0 -200 85.5t-72 257.5zM194 930z" />
    <glyph glyph-name="Ohungarumlaut" unicode="&#x150;" horiz-adv-x="1697" 
d="M435 717q0 -320 108 -489.5t317 -169.5q206 0 304.5 154t98.5 484q0 310 -104 476.5t-322 166.5q-211 0 -306.5 -154.5t-95.5 -467.5zM1599 730q0 -346 -204 -556.5t-568 -210.5q-348 0 -538 194.5t-190 526.5q0 346 205 547.5t567 201.5q348 0 538 -188.5t190 -514.5z
M738 1776h222l-238 -288h-74zM1033 1776h222l-245 -288h-74zM430 1400z" />
    <glyph glyph-name="ohungarumlaut" unicode="&#x151;" horiz-adv-x="1226" 
d="M390 475q0 -182 54.5 -295.5t174.5 -113.5q112 0 164.5 100t52.5 297q0 185 -55.5 291.5t-173.5 106.5q-110 0 -163.5 -96t-53.5 -290zM1146 483q0 -228 -152 -369.5t-396 -141.5q-237 0 -378 133.5t-141 349.5q0 219 148 359.5t400 140.5q239 0 379 -129.5t140 -342.5z
M500 1422h222l-229 -378h-74zM803 1422h222l-235 -378h-74zM194 930z" />
    <glyph glyph-name="OE" unicode="&#x152;" horiz-adv-x="2026" 
d="M1101 1396h327q243 0 507 4l6 -8l-62 -333l-53 -8l-64 243h-388v-531h55q87 0 187 2q26 1 34 27l35 137l66 3q-3 -145 -3 -217q0 -70 3 -214l-66 -5l-37 141q-7 27 -30 28q-102 2 -190 2h-54v-343q0 -110 3 -218h400l126 263l60 9l-24 -374l-6 -7q-252 3 -488 3h-369
q-121 -32 -261 -32q-348 0 -538 193t-190 523q0 344 205 544t567 200q128 0 242 -32zM825 1333q-211 0 -306.5 -153t-95.5 -463q0 -318 108 -486t317 -168q137 0 225 67q2 93 2 184v797q0 82 -2 143q-97 79 -248 79z" />
    <glyph glyph-name="oe" unicode="&#x153;" horiz-adv-x="1814" 
d="M587 -28q-233 0 -370.5 133.5t-137.5 349.5q0 219 145 359.5t391 140.5q222 0 357 -129q142 129 350 129q199 0 308 -108.5t109 -299.5q0 -29 -3 -60h-633q0 -201 97.5 -289t320.5 -88q108 0 206 19l8 -63q-184 -94 -388 -94q-243 0 -396 131h-1q-144 -131 -363 -131z
M390 475q0 -182 52 -295.5t165 -113.5q108 0 157.5 100t49.5 297q0 185 -53 291.5t-164 106.5q-105 0 -156 -96t-51 -290zM1435 584v24q0 136 -34 195t-103 59q-84 0 -133 -81.5t-58 -196.5h328z" />
    <glyph glyph-name="Racute" unicode="&#x154;" horiz-adv-x="1444" 
d="M547 314q0 -60 0.5 -107.5t1.5 -86.5q1 -32 23 -39l104 -34l3 -50q-111 3 -275 3q-175 0 -312 -3l-5 50l134 37q25 7 27 31q1 40 1.5 89.5t0.5 109.5v797q0 50 -0.5 91t-1.5 75q-1 26 -24 33l-134 39l-3 51q140 -4 287 -4q31 0 77 1.5t112 3.5q60 2 100.5 3t63.5 1
q257 0 385.5 -86t128.5 -251q0 -149 -78.5 -240.5t-230.5 -140.5q84 -124 129.5 -201t91.5 -151.5t83.5 -131.5t70.5 -90q18 -15 34.5 -26t34.5 -19t38.5 -13.5t45.5 -10.5l4 -51q-98 -14 -224 -14q-100 0 -140 13t-71 37q-46 36 -84.5 94t-81.5 131t-88.5 155t-95.5 162
q-15 23 -24.5 38t-19 22.5t-20 11t-26.5 4.5l-42 1v-334zM547 735q53 -3 96 -3q142 0 208 71.5t66 223.5q0 147 -63.5 214.5t-197.5 67.5q-23 0 -49.5 -2t-59.5 -6v-566zM952 1647l-475 -174l-31 52l350 275l156 -138v-15zM250 1400z" />
    <glyph glyph-name="racute" unicode="&#x155;" horiz-adv-x="889" 
d="M47 882q231 34 422 76l15 -8v-108q177 113 370 113l5 -7q-32 -159 -61 -340l-58 -10q-26 99 -51 152t-78 53q-51 0 -127 -34v-429q0 -155 2 -222q1 -28 25 -35l143 -38l3 -48q-166 3 -317 3q-144 0 -288 -3l-5 48l127 35q24 7 25 30q1 43 1 123v334q0 163 -4 237l-143 37
zM505 1422h242l-248 -378h-84zM60 930z" />
    <glyph glyph-name="uni0156" unicode="&#x156;" horiz-adv-x="1444" 
d="M547 314q0 -60 0.5 -107.5t1.5 -86.5q1 -32 23 -39l104 -34l3 -50q-111 3 -275 3q-175 0 -312 -3l-5 50l134 37q25 7 27 31q1 40 1.5 89.5t0.5 109.5v797q0 50 -0.5 91t-1.5 75q-1 26 -24 33l-134 39l-3 51q140 -4 287 -4q31 0 77 1.5t112 3.5q60 2 100.5 3t63.5 1
q257 0 385.5 -86t128.5 -251q0 -149 -78.5 -240.5t-230.5 -140.5q84 -124 129.5 -201t91.5 -151.5t83.5 -131.5t70.5 -90q18 -15 34.5 -26t34.5 -19t38.5 -13.5t45.5 -10.5l4 -51q-98 -14 -224 -14q-100 0 -140 13t-71 37q-46 36 -84.5 94t-81.5 131t-88.5 155t-95.5 162
q-15 23 -24.5 38t-19 22.5t-20 11t-26.5 4.5l-42 1v-334zM547 735q53 -3 96 -3q142 0 208 71.5t66 223.5q0 147 -63.5 214.5t-197.5 67.5q-23 0 -49.5 -2t-59.5 -6v-566zM606 -465q97 82 97 169q0 73 -86 102q0 25 9 46t25 36t37.5 23.5t45.5 8.5q57 0 91.5 -36t34.5 -96
q0 -154 -215 -288z" />
    <glyph glyph-name="uni0157" unicode="&#x157;" horiz-adv-x="889" 
d="M47 882q231 34 422 76l15 -8v-108q177 113 370 113l5 -7q-32 -159 -61 -340l-58 -10q-26 99 -51 152t-78 53q-51 0 -127 -34v-429q0 -155 2 -222q1 -28 25 -35l143 -38l3 -48q-166 3 -317 3q-144 0 -288 -3l-5 48l127 35q24 7 25 30q1 43 1 123v334q0 163 -4 237l-143 37
zM211 -465q97 82 97 169q0 73 -86 102q0 25 9 46t25 36t37.5 23.5t45.5 8.5q57 0 91.5 -36t34.5 -96q0 -154 -215 -288z" />
    <glyph glyph-name="Rcaron" unicode="&#x158;" horiz-adv-x="1444" 
d="M547 314q0 -60 0.5 -107.5t1.5 -86.5q1 -32 23 -39l104 -34l3 -50q-111 3 -275 3q-175 0 -312 -3l-5 50l134 37q25 7 27 31q1 40 1.5 89.5t0.5 109.5v797q0 50 -0.5 91t-1.5 75q-1 26 -24 33l-134 39l-3 51q140 -4 287 -4q31 0 77 1.5t112 3.5q60 2 100.5 3t63.5 1
q257 0 385.5 -86t128.5 -251q0 -149 -78.5 -240.5t-230.5 -140.5q84 -124 129.5 -201t91.5 -151.5t83.5 -131.5t70.5 -90q18 -15 34.5 -26t34.5 -19t38.5 -13.5t45.5 -10.5l4 -51q-98 -14 -224 -14q-100 0 -140 13t-71 37q-46 36 -84.5 94t-81.5 131t-88.5 155t-95.5 162
q-15 23 -24.5 38t-19 22.5t-20 11t-26.5 4.5l-42 1v-334zM547 735q53 -3 96 -3q142 0 208 71.5t66 223.5q0 147 -63.5 214.5t-197.5 67.5q-23 0 -49.5 -2t-59.5 -6v-566zM670 1648l324 147l32 -52l-272 -251h-168l-272 251l32 52zM250 1400z" />
    <glyph glyph-name="rcaron" unicode="&#x159;" horiz-adv-x="889" 
d="M47 882q231 34 422 76l15 -8v-108q177 113 370 113l5 -7q-32 -159 -61 -340l-58 -10q-26 99 -51 152t-78 53q-51 0 -127 -34v-429q0 -155 2 -222q1 -28 25 -35l143 -38l3 -48q-166 3 -317 3q-144 0 -288 -3l-5 48l127 35q24 7 25 30q1 43 1 123v334q0 163 -4 237l-143 37
zM178 1422h90l214 -224l214 224h90l-200 -378h-208zM60 930z" />
    <glyph glyph-name="Sacute" unicode="&#x15a;" horiz-adv-x="1080" 
d="M772 1305q-64 25 -139 25q-106 0 -179.5 -62t-73.5 -160q0 -59 24 -101t64 -75t91.5 -59t106.5 -52q61 -29 123 -63.5t111 -82t79.5 -113.5t30.5 -160q0 -203 -153 -319t-404 -116q-181 0 -357 57l-6 9l53 360l62 10l75 -306q72 -33 160 -33q127 0 204.5 64.5t77.5 172.5
q0 61 -24 103.5t-65 76t-93 59.5t-108 52q-61 30 -122 63t-109 80t-78 112.5t-30 158.5q0 191 146 304t379 113q148 0 337 -46l6 -9l-61 -322l-55 -9zM857 1647l-475 -174l-31 52l350 275l156 -138v-15zM155 1400z" />
    <glyph glyph-name="sacute" unicode="&#x15b;" horiz-adv-x="935" 
d="M654 842q-63 15 -136 15q-91 0 -148.5 -32t-57.5 -91q0 -45 25 -69.5t86 -45.5l160 -56q143 -49 209 -118.5t66 -162.5q0 -147 -123.5 -228.5t-324.5 -81.5q-168 0 -330 69q34 134 56 260l51 8l72 -218q61 -21 153 -21q87 0 141 33t54 92q0 49 -32.5 82.5t-129.5 66.5
l-122 42q-117 41 -176 106.5t-59 160.5q0 146 115 224t317 78q166 0 300 -49q-30 -131 -51 -248l-55 -8zM505 1422h242l-248 -378h-84zM60 930z" />
    <glyph glyph-name="Scircumflex" unicode="&#x15c;" horiz-adv-x="1080" 
d="M772 1305q-64 25 -139 25q-106 0 -179.5 -62t-73.5 -160q0 -59 24 -101t64 -75t91.5 -59t106.5 -52q61 -29 123 -63.5t111 -82t79.5 -113.5t30.5 -160q0 -203 -153 -319t-404 -116q-181 0 -357 57l-6 9l53 360l62 10l75 -306q72 -33 160 -33q127 0 204.5 64.5t77.5 172.5
q0 61 -24 103.5t-65 76t-93 59.5t-108 52q-61 30 -122 63t-109 80t-78 112.5t-30 158.5q0 191 146 304t379 113q148 0 337 -46l6 -9l-61 -322l-55 -9zM575 1620l-324 -147l-32 52l272 251h168l272 -251l-32 -52zM155 1400z" />
    <glyph glyph-name="scircumflex" unicode="&#x15d;" horiz-adv-x="935" 
d="M654 842q-63 15 -136 15q-91 0 -148.5 -32t-57.5 -91q0 -45 25 -69.5t86 -45.5l160 -56q143 -49 209 -118.5t66 -162.5q0 -147 -123.5 -228.5t-324.5 -81.5q-168 0 -330 69q34 134 56 260l51 8l72 -218q61 -21 153 -21q87 0 141 33t54 92q0 49 -32.5 82.5t-129.5 66.5
l-122 42q-117 41 -176 106.5t-59 160.5q0 146 115 224t317 78q166 0 300 -49q-30 -131 -51 -248l-55 -8zM782 1044h-90l-214 224l-214 -224h-90l200 378h208zM60 930z" />
    <glyph glyph-name="Scedilla" unicode="&#x15e;" horiz-adv-x="1080" 
d="M354 -192l122 159h-23q-181 0 -357 57l-6 9l53 360l62 10l75 -306q72 -33 160 -33q127 0 204.5 64.5t77.5 172.5q0 61 -24 103.5t-65 76t-93 59.5t-108 52q-61 30 -122 63t-109 80t-78 112.5t-30 158.5q0 191 146 304t379 113q148 0 337 -46l6 -9l-61 -322l-55 -9
l-73 268q-64 25 -139 25q-106 0 -179.5 -62t-73.5 -160q0 -59 24 -101t64 -75t91.5 -59t106.5 -52q61 -29 123 -63.5t111 -82t79.5 -113.5t30.5 -160q0 -179 -117.5 -289t-318.5 -139l-59 -79q117 -50 117 -134q0 -112 -213 -255l-38 41q98 80 98 148q0 74 -121 105z" />
    <glyph glyph-name="scedilla" unicode="&#x15f;" horiz-adv-x="935" 
d="M654 842q-63 15 -136 15q-91 0 -148.5 -32t-57.5 -91q0 -45 25 -69.5t86 -45.5l160 -56q143 -49 209 -118.5t66 -162.5q0 -132 -97 -209t-251 -95l-60 -83q117 -50 117 -134q0 -112 -213 -255l-38 41q98 80 98 148q0 74 -121 105l-4 8l126 164h-5q-168 0 -330 69
q34 134 56 260l51 8l72 -218q61 -21 153 -21q87 0 141 33t54 92q0 49 -32.5 82.5t-129.5 66.5l-122 42q-117 41 -176 106.5t-59 160.5q0 146 115 224t317 78q166 0 300 -49q-30 -131 -51 -248l-55 -8z" />
    <glyph glyph-name="Scaron" unicode="&#x160;" horiz-adv-x="1080" 
d="M772 1305q-64 25 -139 25q-106 0 -179.5 -62t-73.5 -160q0 -59 24 -101t64 -75t91.5 -59t106.5 -52q61 -29 123 -63.5t111 -82t79.5 -113.5t30.5 -160q0 -203 -153 -319t-404 -116q-181 0 -357 57l-6 9l53 360l62 10l75 -306q72 -33 160 -33q127 0 204.5 64.5t77.5 172.5
q0 61 -24 103.5t-65 76t-93 59.5t-108 52q-61 30 -122 63t-109 80t-78 112.5t-30 158.5q0 191 146 304t379 113q148 0 337 -46l6 -9l-61 -322l-55 -9zM575 1648l324 147l32 -52l-272 -251h-168l-272 251l32 52zM155 1400z" />
    <glyph glyph-name="scaron" unicode="&#x161;" horiz-adv-x="935" 
d="M654 842q-63 15 -136 15q-91 0 -148.5 -32t-57.5 -91q0 -45 25 -69.5t86 -45.5l160 -56q143 -49 209 -118.5t66 -162.5q0 -147 -123.5 -228.5t-324.5 -81.5q-168 0 -330 69q34 134 56 260l51 8l72 -218q61 -21 153 -21q87 0 141 33t54 92q0 49 -32.5 82.5t-129.5 66.5
l-122 42q-117 41 -176 106.5t-59 160.5q0 146 115 224t317 78q166 0 300 -49q-30 -131 -51 -248l-55 -8zM178 1422h90l214 -224l214 224h90l-200 -378h-208zM60 930z" />
    <glyph glyph-name="uni0162" unicode="&#x162;" horiz-adv-x="1269" 
d="M484 -192l148 192q-171 0 -327 -3l-5 50l160 44q25 8 26 32q2 75 2 193v977h-288l-92 -266l-56 -9l-26 374l7 8q246 -4 471 -4h279q225 0 474 4l6 -8l-66 -366l-56 -9l-65 276h-289v-977q0 -118 2 -193q1 -24 27 -32l157 -44l3 -50q-126 3 -253 3l-78 -105
q117 -50 117 -134q0 -112 -213 -255l-38 41q98 80 98 148q0 74 -121 105z" />
    <glyph glyph-name="uni0163" unicode="&#x163;" horiz-adv-x="798" 
d="M273 -192l129 168q-116 10 -177.5 67.5t-61.5 164.5q0 208 6 607l-135 35l-9 54l167 15l95 235q85 15 155 29l14 -7q-3 -121 -3 -257h280v-109h-280q-6 -312 -6 -529q0 -101 31 -139.5t119 -38.5q68 0 148 8l8 -60q-138 -67 -260 -77l-59 -79q117 -50 117 -134
q0 -112 -213 -255l-38 41q98 80 98 148q0 74 -121 105z" />
    <glyph glyph-name="Tcaron" unicode="&#x164;" horiz-adv-x="1269" 
d="M641 0q-176 0 -336 -3l-5 50l160 44q25 8 26 32q2 75 2 193v977h-288l-92 -266l-56 -9l-26 374l7 8q246 -4 471 -4h279q225 0 474 4l6 -8l-66 -366l-56 -9l-65 276h-289v-977q0 -118 2 -193q1 -24 27 -32l157 -44l3 -50q-166 3 -335 3zM634 1648l324 147l32 -52
l-272 -251h-168l-272 251l32 52zM214 1400z" />
    <glyph glyph-name="tcaron" unicode="&#x165;" horiz-adv-x="798" 
d="M453 810q-6 -312 -6 -529q0 -101 31 -139.5t119 -38.5q68 0 148 8l8 -60q-159 -78 -297 -78q-140 0 -216.5 58.5t-76.5 176.5q0 208 6 607l-135 35l-9 54l167 15l95 235q85 15 155 29l14 -7q-3 -121 -3 -257h280v-109h-280zM582 1010q108 108 108 210q0 92 -104 145
q0 54 34.5 86t90.5 32q61 0 99 -42.5t38 -118.5q0 -190 -225 -355zM676 930z" />
    <glyph glyph-name="Tbar" unicode="&#x166;" horiz-adv-x="1269" 
d="M638 0q-176 0 -336 -3l-5 50l160 44q25 8 26 32q2 75 2 193v327h-248v106h248v544h-288l-92 -266l-56 -9l-26 374l7 8q246 -4 471 -4h279q225 0 474 4l6 -8l-66 -366l-56 -9l-65 276h-289v-544h247v-106h-247v-327q0 -118 2 -193q1 -24 27 -32l157 -44l3 -50
q-166 3 -335 3z" />
    <glyph glyph-name="tbar" unicode="&#x167;" horiz-adv-x="798" 
d="M35 624h132q1 89 3 191l-135 35l-9 54l167 15l95 236q85 14 155 28l14 -7q-3 -121 -3 -257h280v-109h-281q-2 -99 -2 -186h283v-97h-285q-1 -135 -1 -246q0 -101 31 -139.5t119 -38.5q68 0 149 8l8 -60q-160 -78 -298 -78q-140 0 -216.5 58.5t-76.5 176.5q0 125 2 319
h-131v97z" />
    <glyph glyph-name="Utilde" unicode="&#x168;" horiz-adv-x="1570" 
d="M50 1400q139 -4 308 -4q174 0 308 4l5 -51l-130 -37q-24 -6 -26 -30q-1 -36 -1.5 -77.5t-0.5 -89.5v-551q0 -273 82 -377.5t266 -104.5q181 0 271.5 110.5t90.5 358.5v564q0 48 -1 89.5t-2 77.5q-1 23 -26 30l-124 35l-3 53q133 -4 230 -4q90 0 226 4l5 -51l-136 -39
q-24 -7 -25 -33q-1 -34 -1.5 -75t-0.5 -91v-508q0 -344 -141.5 -493.5t-411.5 -149.5q-307 0 -453 142.5t-146 456.5v552q0 50 -0.5 91t-1.5 75q-1 26 -24 33l-134 39zM1186 1736q-116 -213 -228 -213q-38 0 -70 15t-72 38q-18 11 -32 19t-27 14t-25 9t-24 3
q-30 0 -54.5 -16.5t-83.5 -80.5l-51 43q71 114 120.5 160.5t104.5 46.5q30 0 57 -10q27 -11 76 -39q22 -12 38.5 -21.5t30 -15.5t25.5 -9t25 -3q32 0 54.5 16t81.5 81zM420 1400z" />
    <glyph glyph-name="utilde" unicode="&#x169;" horiz-adv-x="1284" 
d="M816 80q-147 -108 -320 -108q-162 0 -244 80t-82 225v212q0 214 -4 315l-143 37l-6 41q245 37 432 77l11 -8q-6 -125 -6 -309v-308q0 -119 46.5 -172.5t131.5 -53.5q95 0 174 41v426q0 140 -4 231l-135 35l-6 41q237 37 423 77l12 -8q-7 -128 -7 -315q0 -363 1 -443
q1 -40 6 -64.5t19 -37.5t41.5 -18.5t78.5 -6.5l5 -44q-144 -50 -248 -50q-134 0 -176 108zM980 1332q-120 -220 -236 -220q-39 0 -72 15.5t-74 39.5q-19 11 -33.5 19.5t-28 14.5t-25.5 9t-25 3q-31 0 -56 -17t-86 -83l-53 44q73 118 124.5 166t107.5 48q31 0 59 -10
q28 -11 79 -40q23 -13 40 -22.5t31 -16t26 -9.5t26 -3q33 0 56 16.5t84 83.5zM200 930z" />
    <glyph glyph-name="Umacron" unicode="&#x16a;" horiz-adv-x="1570" 
d="M50 1400q139 -4 308 -4q174 0 308 4l5 -51l-130 -37q-24 -6 -26 -30q-1 -36 -1.5 -77.5t-0.5 -89.5v-551q0 -273 82 -377.5t266 -104.5q181 0 271.5 110.5t90.5 358.5v564q0 48 -1 89.5t-2 77.5q-1 23 -26 30l-124 35l-3 53q133 -4 230 -4q90 0 226 4l5 -51l-136 -39
q-24 -7 -25 -33q-1 -34 -1.5 -75t-0.5 -91v-508q0 -344 -141.5 -493.5t-411.5 -149.5q-307 0 -453 142.5t-146 456.5v552q0 50 -0.5 91t-1.5 75q-1 26 -24 33l-134 39zM559 1557v122h561v-122h-561zM420 1400z" />
    <glyph glyph-name="umacron" unicode="&#x16b;" horiz-adv-x="1284" 
d="M816 80q-147 -108 -320 -108q-162 0 -244 80t-82 225v212q0 214 -4 315l-143 37l-6 41q245 37 432 77l11 -8q-6 -125 -6 -309v-308q0 -119 46.5 -172.5t131.5 -53.5q95 0 174 41v426q0 140 -4 231l-135 35l-6 41q237 37 423 77l12 -8q-7 -128 -7 -315q0 -363 1 -443
q1 -40 6 -64.5t19 -37.5t41.5 -18.5t78.5 -6.5l5 -44q-144 -50 -248 -50q-134 0 -176 108zM333 1184v122h573v-122h-573zM200 930z" />
    <glyph glyph-name="Ubreve" unicode="&#x16c;" horiz-adv-x="1570" 
d="M50 1400q139 -4 308 -4q174 0 308 4l5 -51l-130 -37q-24 -6 -26 -30q-1 -36 -1.5 -77.5t-0.5 -89.5v-551q0 -273 82 -377.5t266 -104.5q181 0 271.5 110.5t90.5 358.5v564q0 48 -1 89.5t-2 77.5q-1 23 -26 30l-124 35l-3 53q133 -4 230 -4q90 0 226 4l5 -51l-136 -39
q-24 -7 -25 -33q-1 -34 -1.5 -75t-0.5 -91v-508q0 -344 -141.5 -493.5t-411.5 -149.5q-307 0 -453 142.5t-146 456.5v552q0 50 -0.5 91t-1.5 75q-1 26 -24 33l-134 39zM626 1822q15 -80 71 -123t145 -43q90 0 145 42t75 117l71 7q0 -144 -78 -232t-220 -88q-133 0 -207.5 78
t-74.5 235zM420 1400z" />
    <glyph glyph-name="ubreve" unicode="&#x16d;" horiz-adv-x="1284" 
d="M816 80q-147 -108 -320 -108q-162 0 -244 80t-82 225v212q0 214 -4 315l-143 37l-6 41q245 37 432 77l11 -8q-6 -125 -6 -309v-308q0 -119 46.5 -172.5t131.5 -53.5q95 0 174 41v426q0 140 -4 231l-135 35l-6 41q237 37 423 77l12 -8q-7 -128 -7 -315q0 -363 1 -443
q1 -40 6 -64.5t19 -37.5t41.5 -18.5t78.5 -6.5l5 -44q-144 -50 -248 -50q-134 0 -176 108zM421 1399q14 -95 66 -143t135 -48q84 0 135 47t70 137l76 7q0 -158 -75.5 -254t-212.5 -96q-128 0 -200 85.5t-72 257.5zM200 930z" />
    <glyph glyph-name="Uring" unicode="&#x16e;" horiz-adv-x="1570" 
d="M50 1400q139 -4 308 -4q174 0 308 4l5 -51l-130 -37q-24 -6 -26 -30q-1 -36 -1.5 -77.5t-0.5 -89.5v-551q0 -273 82 -377.5t266 -104.5q181 0 271.5 110.5t90.5 358.5v564q0 48 -1 89.5t-2 77.5q-1 23 -26 30l-124 35l-3 53q133 -4 230 -4q90 0 226 4l5 -51l-136 -39
q-24 -7 -25 -33q-1 -34 -1.5 -75t-0.5 -91v-508q0 -344 -141.5 -493.5t-411.5 -149.5q-307 0 -453 142.5t-146 456.5v552q0 50 -0.5 91t-1.5 75q-1 26 -24 33l-134 39zM835 1468q-101 0 -161 45.5t-60 128.5q0 88 68 141t163 53t158 -49.5t63 -133.5q0 -85 -65 -135
t-166 -50zM840 1534q43 0 71 27t28 85t-27.5 91t-71.5 33t-71.5 -28.5t-27.5 -85.5q0 -58 27.5 -90t71.5 -32zM420 1400z" />
    <glyph glyph-name="uring" unicode="&#x16f;" horiz-adv-x="1284" 
d="M816 80q-147 -108 -320 -108q-162 0 -244 80t-82 225v212q0 214 -4 315l-143 37l-6 41q245 37 432 77l11 -8q-6 -125 -6 -309v-308q0 -119 46.5 -172.5t131.5 -53.5q95 0 174 41v426q0 140 -4 231l-135 35l-6 41q237 37 423 77l12 -8q-7 -128 -7 -315q0 -363 1 -443
q1 -40 6 -64.5t19 -37.5t41.5 -18.5t78.5 -6.5l5 -44q-144 -50 -248 -50q-134 0 -176 108zM615 1044q-105 0 -168 48.5t-63 137.5q0 93 71 149.5t170 56.5t165 -53t66 -142q0 -90 -68 -143.5t-173 -53.5zM620 1114q45 0 74 28.5t29 91.5q0 61 -28.5 96.5t-74.5 35.5
t-74.5 -30t-28.5 -92q0 -61 28.5 -95.5t74.5 -34.5zM200 930z" />
    <glyph glyph-name="Uhungarumlaut" unicode="&#x170;" horiz-adv-x="1570" 
d="M50 1400q139 -4 308 -4q174 0 308 4l5 -51l-130 -37q-24 -6 -26 -30q-1 -36 -1.5 -77.5t-0.5 -89.5v-551q0 -273 82 -377.5t266 -104.5q181 0 271.5 110.5t90.5 358.5v564q0 48 -1 89.5t-2 77.5q-1 23 -26 30l-124 35l-3 53q133 -4 230 -4q90 0 226 4l5 -51l-136 -39
q-24 -7 -25 -33q-1 -34 -1.5 -75t-0.5 -91v-508q0 -344 -141.5 -493.5t-411.5 -149.5q-307 0 -453 142.5t-146 456.5v552q0 50 -0.5 91t-1.5 75q-1 26 -24 33l-134 39zM728 1776h222l-238 -288h-74zM1023 1776h222l-245 -288h-74zM420 1400z" />
    <glyph glyph-name="uhungarumlaut" unicode="&#x171;" horiz-adv-x="1284" 
d="M816 80q-147 -108 -320 -108q-162 0 -244 80t-82 225v212q0 214 -4 315l-143 37l-6 41q245 37 432 77l11 -8q-6 -125 -6 -309v-308q0 -119 46.5 -172.5t131.5 -53.5q95 0 174 41v426q0 140 -4 231l-135 35l-6 41q237 37 423 77l12 -8q-7 -128 -7 -315q0 -363 1 -443
q1 -40 6 -64.5t19 -37.5t41.5 -18.5t78.5 -6.5l5 -44q-144 -50 -248 -50q-134 0 -176 108zM506 1422h222l-229 -378h-74zM809 1422h222l-235 -378h-74zM200 930z" />
    <glyph glyph-name="Uogonek" unicode="&#x172;" horiz-adv-x="1570" 
d="M50 1400q139 -4 308 -4q174 0 308 4l5 -51l-130 -37q-24 -6 -26 -30q-1 -36 -1.5 -77.5t-0.5 -89.5v-551q0 -273 82 -377.5t266 -104.5q181 0 271.5 110.5t90.5 358.5v564q0 48 -1 89.5t-2 77.5q-1 23 -26 30l-124 35l-3 53q133 -4 230 -4q90 0 226 4l5 -51l-136 -39
q-24 -7 -25 -33q-1 -34 -1.5 -75t-0.5 -91v-508q0 -280 -89 -423.5t-253 -191.5q-48 -14 -93 -61.5t-45 -130.5q0 -90 62.5 -135.5t164.5 -45.5q15 0 42 2l8 -52q-161 -55 -263 -55q-127 0 -190 52.5t-63 141.5q0 134 189 259l-1 2q-18 -4 -29 -4q-300 -1 -446 141.5
t-146 456.5v552q0 50 -0.5 91t-1.5 75q-1 26 -24 33l-134 39z" />
    <glyph glyph-name="uogonek" unicode="&#x173;" horiz-adv-x="1289" 
d="M816 80q-147 -108 -320 -108q-162 0 -244 80t-82 225v212q0 214 -4 315l-143 37l-6 41q245 37 432 77l11 -8q-6 -125 -6 -309v-308q0 -119 46.5 -172.5t131.5 -53.5q95 0 174 41v426q0 140 -4 231l-135 35l-6 41q237 37 423 77l12 -8q-7 -128 -7 -315q0 -363 1 -443
q1 -40 6 -64.5t19 -37.5t41.5 -18.5t78.5 -6.5l5 -44q-83 -28 -152 -41q-120 -58 -120 -185q0 -90 62.5 -135.5t164.5 -45.5q15 0 42 2l8 -52q-161 -55 -263 -55q-127 0 -190 52.5t-63 141.5q0 144 207 273q-87 19 -120 103z" />
    <glyph glyph-name="Wcircumflex" unicode="&#x174;" horiz-adv-x="2009" 
d="M1425 543q17 -54 27 -107q16 55 33 104l208 599q20 59 28.5 90.5t8.5 50.5q0 17 -9.5 26t-28.5 14l-96 27l-3 53q145 -4 236 -4q95 0 217 4l5 -51l-107 -31q-38 -12 -57.5 -37t-38.5 -78l-431 -1203l-109 -9l-253 793q-20 63 -41 136q-24 -72 -46 -135l-276 -785l-108 -9
l-390 1200q-23 69 -44.5 93.5t-59.5 36.5l-97 28l-3 51q135 -4 272 -4q180 0 352 4l6 -51l-99 -28q-20 -6 -29 -15t-9 -27q0 -20 7.5 -52t24.5 -87l186 -597q16 -54 27 -107q16 55 32 104l296 861l101 9zM1075 1620l-324 -147l-32 52l272 251h168l272 -251l-32 -52z
M655 1400z" />
    <glyph glyph-name="wcircumflex" unicode="&#x175;" horiz-adv-x="1563" 
d="M918 934q59 -177 164 -485q21 -62 43 -133q23 69 47 133q74 199 144 405l-104 30l-5 48q73 -3 183 -3q89 0 178 3l5 -48l-108 -29q-25 -8 -39 -39q-74 -181 -174.5 -434t-151.5 -386l-128 -14q-53 146 -143 401q-26 80 -48 146q-26 -68 -53 -146q-97 -254 -149 -387
l-128 -14q-53 146 -152 398.5t-169 430.5q-16 35 -44 45l-100 28l-3 48q131 -3 276 -3q138 0 264 3l6 -48l-107 -30q58 -185 139 -405q21 -62 43 -133q23 69 48 133q98 275 166 476zM1116 1044h-90l-214 224l-214 -224h-90l200 378h208zM394 930z" />
    <glyph glyph-name="Ycircumflex" unicode="&#x176;" horiz-adv-x="1264" 
d="M744 757l192 382q27 50 43 85t16 57q0 30 -45 42l-90 24l-3 53q111 -4 233 -4q111 0 219 4l5 -51l-106 -31q-36 -12 -55.5 -35.5t-39.5 -59.5l-316 -585v-324q0 -60 0.5 -109t1.5 -88q1 -26 35 -35l112 -35l3 -50q-129 3 -298 3q-174 0 -302 -3l-5 50l124 37q25 7 27 31
q1 40 2 89.5t1 109.5v300l-325 582q-37 61 -60.5 87.5t-62.5 38.5l-96 27l-4 51q99 -4 281 -4q200 0 379 4l5 -51l-102 -25q-23 -5 -34 -14.5t-11 -24.5q0 -21 14 -51t39 -71zM689 1620l-324 -147l-32 52l272 251h168l272 -251l-32 -52zM269 1400z" />
    <glyph glyph-name="ycircumflex" unicode="&#x177;" horiz-adv-x="1049" 
d="M-36 932q133 -3 241 -3q140 0 298 3l5 -48l-125 -32q39 -98 74 -187t93 -225q26 -57 56 -133q30 78 61 155q81 213 149 392l-104 30l-5 48q78 -3 184 -3q92 0 176 3l5 -48l-96 -26q-32 -10 -46 -41q-35 -83 -78 -184q-130 -311 -202 -516q-46 -133 -83 -271.5t-59 -243.5
q-11 -57 -41 -78t-135 -21q-110 0 -210 8l-5 46q116 15 162 64q66 69 203 372l7 19l-53 15q-180 445 -327 789q-12 31 -45 41l-96 27zM857 1044h-90l-214 224l-214 -224h-90l200 378h208zM135 930z" />
    <glyph glyph-name="Ydieresis" unicode="&#x178;" horiz-adv-x="1264" 
d="M744 757l192 382q27 50 43 85t16 57q0 30 -45 42l-90 24l-3 53q111 -4 233 -4q111 0 219 4l5 -51l-106 -31q-36 -12 -55.5 -35.5t-39.5 -59.5l-316 -585v-324q0 -60 0.5 -109t1.5 -88q1 -26 35 -35l112 -35l3 -50q-129 3 -298 3q-174 0 -302 -3l-5 50l124 37q25 7 27 31
q1 40 2 89.5t1 109.5v300l-325 582q-37 61 -60.5 87.5t-62.5 38.5l-96 27l-4 51q99 -4 281 -4q200 0 379 4l5 -51l-102 -25q-23 -5 -34 -14.5t-11 -24.5q0 -21 14 -51t39 -71zM612 1655q0 -61 -37.5 -97.5t-97.5 -36.5q-58 0 -94 34.5t-36 90.5q0 61 38 95.5t99 34.5
q57 0 92.5 -31.5t35.5 -89.5zM1031 1655q0 -61 -38 -97.5t-98 -36.5q-57 0 -93 34.5t-36 90.5q0 61 37.5 95.5t98.5 34.5q58 0 93.5 -31.5t35.5 -89.5zM269 1400z" />
    <glyph glyph-name="Zacute" unicode="&#x179;" horiz-adv-x="1207" 
d="M70 -3l-5 50l693 1248h-489l-74 -243l-56 -8l-53 348l6 8q255 -4 480 -4h262q143 0 287 4l5 -51l-691 -1246h503l141 292l58 9l-27 -400l-6 -7q-284 3 -504 3h-268q-140 0 -262 -3zM902 1647l-475 -174l-31 52l350 275l156 -138v-15zM200 1400z" />
    <glyph glyph-name="zacute" unicode="&#x17a;" horiz-adv-x="1041" 
d="M75 9q153 245 248 404t252 420h-315l-65 -204l-49 -7q-22 156 -49 301l3 9q200 -3 377 -3q274 0 467 3l8 -11q-132 -213 -245 -403.5t-247 -418.5h318l125 210l53 7q-18 -157 -25 -312l-7 -7q-172 3 -383 3q-295 0 -459 -3zM560 1422h242l-248 -378h-84zM115 930z" />
    <glyph glyph-name="Zdotaccent" unicode="&#x17b;" horiz-adv-x="1207" 
d="M70 -3l-5 50l693 1248h-489l-74 -243l-56 -8l-53 348l6 8q255 -4 480 -4h262q143 0 287 4l5 -51l-691 -1246h503l141 292l58 9l-27 -400l-6 -7q-284 3 -504 3h-268q-140 0 -262 -3zM763 1660q0 -62 -41 -101.5t-107 -39.5q-61 0 -100 37t-39 97q0 64 41 101t107 37
q62 0 100.5 -34t38.5 -97zM200 1400z" />
    <glyph glyph-name="zdotaccent" unicode="&#x17c;" horiz-adv-x="1041" 
d="M75 9q153 245 248 404t252 420h-315l-65 -204l-49 -7q-22 156 -49 301l3 9q200 -3 377 -3q274 0 467 3l8 -11q-132 -213 -245 -403.5t-247 -418.5h318l125 210l53 7q-18 -157 -25 -312l-7 -7q-172 3 -383 3q-295 0 -459 -3zM684 1290q0 -68 -43 -110t-111 -42
q-63 0 -104 39.5t-41 103.5q0 70 43 110t112 40q63 0 103.5 -36.5t40.5 -104.5zM115 930z" />
    <glyph glyph-name="Zcaron" unicode="&#x17d;" horiz-adv-x="1207" 
d="M70 -3l-5 50l693 1248h-489l-74 -243l-56 -8l-53 348l6 8q255 -4 480 -4h262q143 0 287 4l5 -51l-691 -1246h503l141 292l58 9l-27 -400l-6 -7q-284 3 -504 3h-268q-140 0 -262 -3zM620 1648l324 147l32 -52l-272 -251h-168l-272 251l32 52zM200 1400z" />
    <glyph glyph-name="zcaron" unicode="&#x17e;" horiz-adv-x="1041" 
d="M75 9q153 245 248 404t252 420h-315l-65 -204l-49 -7q-22 156 -49 301l3 9q200 -3 377 -3q274 0 467 3l8 -11q-132 -213 -245 -403.5t-247 -418.5h318l125 210l53 7q-18 -157 -25 -312l-7 -7q-172 3 -383 3q-295 0 -459 -3zM233 1422h90l214 -224l214 224h90l-200 -378
h-208zM115 930z" />
    <glyph glyph-name="longs" unicode="&#x17f;" horiz-adv-x="678" 
d="M483 282q0 -94 2 -164q2 -28 26 -35l137 -38l3 -48q-161 3 -307 3q-149 0 -294 -3l-5 48l123 33q28 8 29 32q3 62 3 131v574l-146 35l-9 54l156 13q0 280 126.5 435t351.5 155q119 0 217 -28q-32 -141 -53 -283l-55 -11l-61 224q-16 3 -36 3q-105 0 -156.5 -99.5
t-51.5 -366.5v-664z" />
    <glyph glyph-name="florin" unicode="&#x192;" horiz-adv-x="1130" 
d="M123 678v105h208l5 27q24 133 71.5 237.5t120 176.5t170 110t220.5 38q115 0 235 -37l6 -10l-56 -312l-46 -9l-63 250q-42 23 -86 23q-66 0 -110.5 -29t-75.5 -83.5t-53 -133t-43 -177.5l-15 -71h286v-105h-308l-124 -599q-31 -147 -75 -256.5t-102 -176.5t-136.5 -98
t-180.5 -31q-78 0 -181 21l50 210l14 4q117 -135 169 -135q28 0 50.5 17.5t42 60.5t37.5 114.5t37 178.5l122 690h-189z" />
    <glyph glyph-name="Ohorn" unicode="&#x1a0;" horiz-adv-x="2004" 
d="M1599 730q0 -346 -204 -556.5t-568 -210.5q-348 0 -538 194.5t-190 526.5q0 346 205 547.5t567 201.5q276 0 452 -118.5t240 -329.5q43 11 72.5 28t47.5 44t25.5 65t7.5 92q0 38 -3 81.5t-8 100.5q47 0 112 1t148 3q6 -45 7.5 -83t1.5 -74q0 -68 -14.5 -122.5t-56.5 -97
t-118.5 -73t-200.5 -49.5q15 -80 15 -171zM435 717q0 -320 108 -489.5t317 -169.5q206 0 304.5 154t98.5 484q0 310 -104 476.5t-322 166.5q-211 0 -306.5 -154.5t-95.5 -467.5z" />
    <glyph glyph-name="ohorn" unicode="&#x1a1;" horiz-adv-x="1521" 
d="M1146 483q0 -228 -152 -369.5t-396 -141.5q-237 0 -378 133.5t-141 349.5q0 219 148 359.5t400 140.5q210 0 341.5 -99.5t165.5 -255.5q34 10 56.5 26t35.5 40t18 58t5 79q0 28 -1.5 58.5t-4.5 73.5l246 9q4 -37 5.5 -59.5t1.5 -46.5q0 -71 -12.5 -127t-59.5 -96
q-40 -33 -107 -56t-173 -38q2 -19 2 -38zM390 475q0 -182 54.5 -295.5t174.5 -113.5q112 0 164.5 100t52.5 297q0 185 -55.5 291.5t-173.5 106.5q-110 0 -163.5 -96t-53.5 -290z" />
    <glyph glyph-name="Uhorn" unicode="&#x1af;" horiz-adv-x="1924" 
d="M50 1400q139 -4 308 -4q174 0 308 4l5 -51l-130 -37q-24 -6 -26 -30q-1 -36 -1.5 -77.5t-0.5 -89.5v-551q0 -273 82 -377.5t266 -104.5q181 0 271.5 110.5t90.5 358.5v564q0 48 -1 89.5t-2 77.5q-1 23 -26 30l-124 35l-3 53q133 -4 230 -4q76 0 191 4l5 -51l-106 -39
q-19 -7 -20 -33q-1 -34 -1.5 -75t-0.5 -91v-147q79 10 131 24.5t83 41.5t44 71t13 113q0 38 -3 81.5t-8 100.5q47 0 112.5 1t147.5 3q6 -45 7.5 -83t1.5 -74q0 -51 -7.5 -94.5t-28 -80t-58 -66t-96 -53t-142 -40.5t-197.5 -28v-278q0 -344 -141.5 -493.5t-411.5 -149.5
q-307 0 -453 142.5t-146 456.5v552q0 50 -0.5 91t-1.5 75q-1 26 -24 33l-134 39z" />
    <glyph glyph-name="uhorn" unicode="&#x1b0;" horiz-adv-x="1550" 
d="M1089 586q58 8 95 23t57.5 39t28.5 62t8 93q0 28 -1.5 58.5t-4.5 73.5l246 9q4 -37 5.5 -59.5t1.5 -46.5q0 -71 -12.5 -127t-59.5 -95.5t-133 -66.5t-231 -42q0 -253 1 -314q1 -40 6 -64.5t19 -37.5t41.5 -18.5t78.5 -6.5l5 -44q-144 -50 -248 -50q-134 0 -176 108
q-147 -108 -320 -108q-162 0 -244 80t-82 225v212q0 214 -4 315l-143 37l-6 41q245 37 432 77l11 -8q-6 -125 -6 -309v-308q0 -119 46.5 -172.5t131.5 -53.5q95 0 174 41v426q0 140 -4 231l-135 35l-6 41q237 37 423 77l12 -8q-7 -128 -7 -315v-50z" />
    <glyph glyph-name="Aringacute" unicode="&#x1fa;" horiz-adv-x="1371" 
d="M380 444l-71 -187q-21 -55 -32.5 -88.5t-11.5 -51.5q0 -17 9 -26t28 -14l96 -28l3 -52q-145 3 -236 3q-95 0 -217 -3l-5 50l107 32q38 11 56 36.5t40 77.5l498 1213l108 16l431 -1216q25 -70 45.5 -94.5t58.5 -35.5l98 -29l3 -50q-135 3 -272 3q-181 0 -353 -3l-5 50
l99 29q20 6 29 15t9 27q0 20 -10 52.5t-29 85.5l-66 188h-410zM596 1018q-18 -52 -39 -108l-137 -362h334l-123 361q-19 57 -35 109zM697 1459q-97 0 -154.5 43.5t-57.5 123.5q0 84 65 134.5t156 50.5t151 -47.5t60 -127.5q0 -81 -62 -129t-158 -48zM701 1522q42 0 68.5 26
t26.5 81q0 56 -26.5 87.5t-68.5 31.5t-68 -27t-26 -82t26 -86t68 -31zM953 1971l-428 -157l-28 47l315 248l141 -125v-13z" />
    <glyph glyph-name="aringacute" unicode="&#x1fb;" horiz-adv-x="1097" 
d="M635 445q-157 0 -224 -40t-67 -137q0 -88 47.5 -125.5t112.5 -37.5q74 0 129 38zM146 858q213 97 410 97q180 0 269.5 -80.5t88.5 -231.5l-5 -416q-2 -51 2 -82t18.5 -47.5t43 -23.5t82.5 -8l6 -46q-140 -48 -241 -48q-136 0 -179 107q-127 -107 -269 -107
q-139 0 -229 69.5t-90 195.5q0 157 145.5 230t436.5 73l1 75q1 107 -51.5 157.5t-163.5 50.5q-103 0 -247 -45zM530 1025q-105 0 -168 48.5t-63 137.5q0 93 71 149.5t170 56.5t165 -53t66 -142q0 -90 -68 -143.5t-173 -53.5zM535 1095q45 0 74 28.5t29 91.5q0 61 -28.5 96.5
t-74.5 35.5t-74.5 -30t-28.5 -92q0 -61 28.5 -95.5t74.5 -34.5zM115 911zM560 1852h242l-248 -378h-84zM115 1360z" />
    <glyph glyph-name="AEacute" unicode="&#x1fc;" horiz-adv-x="1897" 
d="M384 -3q-149 3 -239 3q-48 0 -106.5 -0.5t-107.5 -2.5l-5 50l105 32q24 7 40 16.5t28 23t22.5 31.5t22.5 41l573 1073q6 11 7.5 15.5t1.5 8.5q0 14 -19 20l-141 41l-3 51q70 -2 136.5 -3t129.5 -1h461q112 0 232 1t252 3l7 -8l-62 -333l-54 -8l-64 243h-367v-551h34
q45 0 90.5 0.5t96.5 1.5q26 1 34 27l36 137l66 3q-3 -146 -3 -217q0 -70 3 -214l-66 -5l-37 141q-8 27 -31 28q-51 1 -98 1.5t-92 0.5h-33v-323q0 -55 0.5 -109.5t1.5 -108.5h380l126 263l61 9l-24 -374l-7 -7q-249 3 -485 3h-245q-130 0 -266 -3l-5 50l134 37q25 7 27 31
q1 40 1.5 89.5t0.5 109.5v333h-415l-218 -432q-20 -38 -30.5 -63t-10.5 -41q0 -14 7.5 -21.5t24.5 -12.5l89 -28zM934 1294h-87l-279 -551h366v551zM1462 1647l-475 -174l-31 52l350 275l156 -138v-15zM760 1400z" />
    <glyph glyph-name="aeacute" unicode="&#x1fd;" horiz-adv-x="1640" 
d="M146 858q213 97 409 97q191 0 280 -102q133 102 318 102q197 0 304.5 -113.5t107.5 -313.5q0 -31 -3 -63h-639q0 -190 98.5 -272.5t323.5 -82.5q109 0 208 19l8 -63q-182 -94 -383 -94q-281 0 -438 150q-167 -150 -355 -150q-151 0 -241.5 72.5t-90.5 203.5
q0 163 145.5 238.5t436.5 75.5l1 69q1 99 -51.5 145.5t-163.5 46.5q-103 0 -247 -45zM635 465q-157 0 -224 -42.5t-67 -146.5q0 -94 48.5 -132.5t113.5 -38.5q107 0 191 72q-62 108 -62 271v17zM1261 562v26q0 147 -35 210.5t-105 63.5q-85 0 -135.5 -87.5t-58.5 -212.5h334
zM865 1422h242l-248 -378h-84zM420 930z" />
    <glyph glyph-name="Oslashacute" unicode="&#x1fe;" horiz-adv-x="1697" 
d="M1599 730q0 -346 -204 -556.5t-568 -210.5q-243 0 -408 94l-127 -165l-86 67l123 161q-230 197 -230 564q0 346 205 547.5t567 201.5q235 0 398 -86l110 143l90 -62l-108 -141q238 -193 238 -557zM860 58q206 0 304.5 154t98.5 484q0 233 -59 386l-658 -859
q108 -165 314 -165zM435 717q0 -232 57 -385l656 857q-104 150 -311 150q-211 0 -306.5 -154.5t-95.5 -467.5zM1132 1647l-475 -174l-31 52l350 275l156 -138v-15zM430 1400z" />
    <glyph glyph-name="oslashacute" unicode="&#x1ff;" horiz-adv-x="1226" 
d="M1146 483q0 -228 -152 -369.5t-396 -141.5q-152 0 -265 54l-75 -97l-77 54l73 94q-175 138 -175 378q0 219 148 359.5t400 140.5q155 0 268 -55l74 94l75 -52l-70 -90q172 -132 172 -369zM385 475q0 -115 21 -202l378 484q-57 107 -177 107q-113 0 -167.5 -96.5
t-54.5 -292.5zM619 63q115 0 169 101t54 299q0 109 -20 192l-377 -486q55 -106 174 -106zM639 1422h242l-248 -378h-84zM194 930z" />
    <glyph glyph-name="uni0218" unicode="&#x218;" horiz-adv-x="1080" 
d="M772 1305q-64 25 -139 25q-106 0 -179.5 -62t-73.5 -160q0 -59 24 -101t64 -75t91.5 -59t106.5 -52q61 -29 123 -63.5t111 -82t79.5 -113.5t30.5 -160q0 -203 -153 -319t-404 -116q-181 0 -357 57l-6 9l53 360l62 10l75 -306q72 -33 160 -33q127 0 204.5 64.5t77.5 172.5
q0 61 -24 103.5t-65 76t-93 59.5t-108 52q-61 30 -122 63t-109 80t-78 112.5t-30 158.5q0 191 146 304t379 113q148 0 337 -46l6 -9l-61 -322l-55 -9zM381 -465q97 82 97 169q0 73 -86 102q0 25 9 46t25 36t37.5 23.5t45.5 8.5q57 0 91.5 -36t34.5 -96q0 -154 -215 -288z
" />
    <glyph glyph-name="uni0219" unicode="&#x219;" horiz-adv-x="935" 
d="M654 842q-63 15 -136 15q-91 0 -148.5 -32t-57.5 -91q0 -45 25 -69.5t86 -45.5l160 -56q143 -49 209 -118.5t66 -162.5q0 -147 -123.5 -228.5t-324.5 -81.5q-168 0 -330 69q34 134 56 260l51 8l72 -218q61 -21 153 -21q87 0 141 33t54 92q0 49 -32.5 82.5t-129.5 66.5
l-122 42q-117 41 -176 106.5t-59 160.5q0 146 115 224t317 78q166 0 300 -49q-30 -131 -51 -248l-55 -8zM311 -465q97 82 97 169q0 73 -86 102q0 25 9 46t25 36t37.5 23.5t45.5 8.5q57 0 91.5 -36t34.5 -96q0 -154 -215 -288z" />
    <glyph glyph-name="uni021A" unicode="&#x21a;" horiz-adv-x="1269" 
d="M641 0q-176 0 -336 -3l-5 50l160 44q25 8 26 32q2 75 2 193v977h-288l-92 -266l-56 -9l-26 374l7 8q246 -4 471 -4h279q225 0 474 4l6 -8l-66 -366l-56 -9l-65 276h-289v-977q0 -118 2 -193q1 -24 27 -32l157 -44l3 -50q-166 3 -335 3zM506 -465q97 82 97 169
q0 73 -86 102q0 25 9 46t25 36t37.5 23.5t45.5 8.5q57 0 91.5 -36t34.5 -96q0 -154 -215 -288z" />
    <glyph glyph-name="uni021B" unicode="&#x21b;" horiz-adv-x="798" 
d="M453 810q-6 -312 -6 -529q0 -101 31 -139.5t119 -38.5q68 0 148 8l8 -60q-159 -78 -297 -78q-140 0 -216.5 58.5t-76.5 176.5q0 208 6 607l-135 35l-9 54l167 15l95 235q85 15 155 29l14 -7q-3 -121 -3 -257h280v-109h-280zM296 -465q97 82 97 169q0 73 -86 102
q0 25 9 46t25 36t37.5 23.5t45.5 8.5q57 0 91.5 -36t34.5 -96q0 -154 -215 -288z" />
    <glyph glyph-name="circumflex" unicode="&#x2c6;" horiz-adv-x="840" 
d="M722 1044h-90l-214 224l-214 -224h-90l200 378h208zM0 930z" />
    <glyph glyph-name="caron" unicode="&#x2c7;" horiz-adv-x="840" 
d="M118 1422h90l214 -224l214 224h90l-200 -378h-208zM0 930z" />
    <glyph glyph-name="breve" unicode="&#x2d8;" horiz-adv-x="840" 
d="M221 1399q14 -95 66 -143t135 -48q84 0 135 47t70 137l76 7q0 -158 -75.5 -254t-212.5 -96q-128 0 -200 85.5t-72 257.5zM0 930z" />
    <glyph glyph-name="dotaccent" unicode="&#x2d9;" horiz-adv-x="840" 
d="M569 1290q0 -68 -43 -110t-111 -42q-63 0 -104 39.5t-41 103.5q0 70 43 110t112 40q63 0 103.5 -36.5t40.5 -104.5zM0 930z" />
    <glyph glyph-name="ring" unicode="&#x2da;" horiz-adv-x="840" 
d="M415 1044q-105 0 -168 48.5t-63 137.5q0 93 71 149.5t170 56.5t165 -53t66 -142q0 -90 -68 -143.5t-173 -53.5zM420 1114q45 0 74 28.5t29 91.5q0 61 -28.5 96.5t-74.5 35.5t-74.5 -30t-28.5 -92q0 -61 28.5 -95.5t74.5 -34.5zM0 930z" />
    <glyph glyph-name="ogonek" unicode="&#x2db;" horiz-adv-x="840" 
d="M482 11l78 -11q-140 -69 -140 -204q0 -90 62.5 -135.5t164.5 -45.5q15 0 42 2l7 -52q-160 -55 -262 -55q-127 0 -190 52.5t-63 141.5q0 145 222 294v3z" />
    <glyph glyph-name="tilde" unicode="&#x2dc;" horiz-adv-x="840" 
d="M780 1332q-120 -220 -236 -220q-39 0 -72 15.5t-74 39.5q-19 11 -33.5 19.5t-28 14.5t-25.5 9t-25 3q-31 0 -56 -17t-86 -83l-53 44q73 118 124.5 166t107.5 48q31 0 59 -10q28 -11 79 -40q23 -13 40 -22.5t31 -16t26 -9.5t26 -3q33 0 56 16.5t84 83.5zM0 930z" />
    <glyph glyph-name="hungarumlaut" unicode="&#x2dd;" horiz-adv-x="840" 
d="M306 1422h222l-229 -378h-74zM609 1422h222l-235 -378h-74zM0 930z" />
    <glyph glyph-name="gravecomb" unicode="&#x300;" 
d="M-358 1044h-84l-248 378h242zM-839 930z" />
    <glyph glyph-name="acutecomb" unicode="&#x301;" 
d="M-394 1422h242l-248 -378h-84zM-839 930z" />
    <glyph glyph-name="uni0302" unicode="&#x302;" 
d="M-117 1044h-90l-214 224l-214 -224h-90l200 378h208zM-839 930z" />
    <glyph glyph-name="tildecomb" unicode="&#x303;" 
d="M-59 1332q-120 -220 -236 -220q-39 0 -72 15.5t-74 39.5q-19 11 -33.5 19.5t-28 14.5t-25.5 9t-25 3q-31 0 -56 -17t-86 -83l-53 44q73 118 124.5 166t107.5 48q31 0 59 -10q28 -11 79 -40q23 -13 40 -22.5t31 -16t26 -9.5t26 -3q33 0 56 16.5t84 83.5zM-839 930z" />
    <glyph glyph-name="uni0304" unicode="&#x304;" 
d="M-706 1184v122h573v-122h-573zM-839 930z" />
    <glyph glyph-name="uni0306" unicode="&#x306;" 
d="M-618 1399q14 -95 66 -143t135 -48q84 0 135 47t70 137l76 7q0 -158 -75.5 -254t-212.5 -96q-128 0 -200 85.5t-72 257.5zM-839 930z" />
    <glyph glyph-name="uni0307" unicode="&#x307;" 
d="M-270 1290q0 -68 -43 -110t-111 -42q-63 0 -104 39.5t-41 103.5q0 70 43 110t112 40q63 0 103.5 -36.5t40.5 -104.5zM-839 930z" />
    <glyph glyph-name="uni0308" unicode="&#x308;" 
d="M-491 1294q0 -64 -40.5 -102.5t-104.5 -38.5q-60 0 -98.5 36.5t-38.5 95.5q0 64 40.5 101.5t105.5 37.5q60 0 98 -34.5t38 -95.5zM-65 1294q0 -64 -40.5 -102.5t-104.5 -38.5q-60 0 -98.5 36.5t-38.5 95.5q0 64 40.5 101.5t105.5 37.5q60 0 98 -34.5t38 -95.5zM-839 930z
" />
    <glyph glyph-name="hookabovecomb" unicode="&#x309;" 
d="M-474 1044q-1 7 -1.5 13.5t-0.5 13.5q0 42 18.5 72.5t40 56.5t40 51.5t18.5 57.5q0 40 -18.5 55t-44.5 15q-28 0 -55 -10l-34 -113l-53 -4l-30 153q45 21 96 33t103 12q39 0 74.5 -7t63 -22.5t43.5 -40t16 -58.5q0 -32 -11 -56t-28.5 -44t-39 -38t-42 -38.5t-37.5 -45
t-26 -56.5h-92z" />
    <glyph glyph-name="uni030A" unicode="&#x30a;" 
d="M-424 1044q-105 0 -168 48.5t-63 137.5q0 93 71 149.5t170 56.5t165 -53t66 -142q0 -90 -68 -143.5t-173 -53.5zM-419 1114q45 0 74 28.5t29 91.5q0 61 -28.5 96.5t-74.5 35.5t-74.5 -30t-28.5 -92q0 -61 28.5 -95.5t74.5 -34.5zM-839 930z" />
    <glyph glyph-name="uni030B" unicode="&#x30b;" 
d="M-533 1422h222l-229 -378h-74zM-230 1422h222l-235 -378h-74zM-839 930z" />
    <glyph glyph-name="uni030C" unicode="&#x30c;" 
d="M-721 1422h90l214 -224l214 224h90l-200 -378h-208zM-839 930z" />
    <glyph glyph-name="uni0312" unicode="&#x312;" 
d="M-292 1425q-97 -83 -97 -169q0 -74 86 -102q0 -51 -34 -82.5t-83 -31.5q-56 0 -91 36.5t-35 95.5q0 154 215 288zM1 932z" />
    <glyph glyph-name="uni0315" unicode="&#x315;" horiz-adv-x="142" 
d="M-94 1010q108 108 108 210q0 92 -104 145q0 54 34.5 86t90.5 32q61 0 99 -42.5t38 -118.5q0 -190 -225 -355zM0 930z" />
    <glyph glyph-name="uni031B" unicode="&#x31b;" 
d="M-195 586q61 8 100 23t60.5 39t30 62t8.5 93q0 28 -1.5 58.5t-4.5 73.5l246 9q4 -37 5.5 -59.5t1.5 -46.5q0 -71 -13 -127t-61 -95.5t-136 -66.5t-236 -42v79z" />
    <glyph glyph-name="dotbelowcomb" unicode="&#x323;" 
d="M-270 -290q0 -68 -43 -110t-111 -42q-63 0 -104 39.5t-41 103.5q0 70 43 110t112 40q63 0 103.5 -36.5t40.5 -104.5z" />
    <glyph glyph-name="uni0326" unicode="&#x326;" 
d="M-549 -465q97 82 97 169q0 73 -86 102q0 25 9 46t25 36t37.5 23.5t45.5 8.5q57 0 91.5 -36t34.5 -96q0 -154 -215 -288z" />
    <glyph glyph-name="uni0327" unicode="&#x327;" 
d="M-600 -192l148 192h91l-78 -105q117 -50 117 -134q0 -112 -213 -255l-38 41q98 80 98 148q0 74 -121 105z" />
    <glyph glyph-name="uni0328" unicode="&#x328;" 
d="M-357 11l78 -11q-140 -69 -140 -204q0 -90 62.5 -135.5t164.5 -45.5q15 0 42 2l7 -52q-160 -55 -262 -55q-127 0 -190 52.5t-63 141.5q0 145 222 294v3z" />
    <glyph glyph-name="uni0344" unicode="&#x344;" 
d="M-453 1449h259l-233 -421h-75zM38 1221q0 -62 -39 -100t-101 -38q-58 0 -94.5 36t-36.5 94q0 63 39 99.5t102 36.5q57 0 93.5 -33.5t36.5 -94.5zM-559 1221q0 -62 -38.5 -100t-100.5 -38q-58 0 -95 36t-37 94q0 63 39 99.5t102 36.5q58 0 94 -33.5t36 -94.5zM-839 930z
" />
    <glyph glyph-name="uni0374" unicode="&#x374;" horiz-adv-x="584" 
d="M549 1436l-340 -448l-79 22l144 439h266zM0 930z" />
    <glyph glyph-name="uni0375" unicode="&#x375;" horiz-adv-x="494" 
d="M30 -470l340 448l79 -22l-144 -439h-266z" />
    <glyph glyph-name="uni037E" unicode="&#x37e;" horiz-adv-x="586" 
d="M143 -269q180 133 180 266q0 118 -131 184q0 74 43 115t110 41q72 0 119 -56t47 -141q0 -130 -79.5 -245.5t-237.5 -224.5zM354 1007q68 0 112.5 -42.5t44.5 -112.5q0 -69 -44.5 -113t-112.5 -44q-71 0 -115 44t-44 113q0 70 44 112.5t115 42.5z" />
    <glyph glyph-name="tonos" unicode="&#x384;" horiz-adv-x="840" 
d="M420 1449h269l-247 -421h-85zM0 930z" />
    <glyph glyph-name="dieresistonos" unicode="&#x385;" horiz-adv-x="840" 
d="M386 1449h259l-233 -421h-75zM877 1221q0 -62 -39 -100t-101 -38q-58 0 -94.5 36t-36.5 94q0 63 39 99.5t102 36.5q57 0 93.5 -33.5t36.5 -94.5zM280 1221q0 -62 -38.5 -100t-100.5 -38q-58 0 -95 36t-37 94q0 63 39 99.5t102 36.5q58 0 94 -33.5t36 -94.5zM0 930z" />
    <glyph glyph-name="Alphatonos" unicode="&#x386;" horiz-adv-x="1371" 
d="M380 444l-71 -187q-21 -55 -32.5 -88.5t-11.5 -51.5q0 -17 9 -26t28 -14l96 -28l3 -52q-145 3 -236 3q-95 0 -217 -3l-5 50l107 32q38 11 56 36.5t40 77.5l498 1213l108 16l431 -1216q25 -70 45.5 -94.5t58.5 -35.5l98 -29l3 -50q-135 3 -272 3q-181 0 -353 -3l-5 50
l99 29q20 6 29 15t9 27q0 20 -10 52.5t-29 85.5l-66 188h-410zM596 1018q-18 -52 -39 -108l-137 -362h334l-123 361q-19 57 -35 109zM199 1449h269l-247 -421h-85zM-221 930z" />
    <glyph glyph-name="anoteleia" unicode="&#x387;" horiz-adv-x="586" 
d="M299 1007q68 0 112.5 -42.5t44.5 -112.5q0 -69 -44.5 -113t-112.5 -44q-71 0 -115 44t-44 113q0 70 44 112.5t115 42.5z" />
    <glyph glyph-name="Epsilontonos" unicode="&#x388;" horiz-adv-x="1409" 
d="M529 1396h253q243 0 504 4l7 -8l-62 -333l-54 -8l-64 243h-387v-531h54q87 0 187 2q26 1 34 27l36 137l66 3q-3 -145 -3 -217q0 -70 3 -214l-66 -5l-37 141q-8 27 -31 28q-102 2 -190 2h-53v-343q0 -110 2 -218h400l126 263l61 9l-24 -374l-7 -7q-249 3 -485 3h-265
q-129 0 -266 -3l-5 50l134 37q25 7 27 31q1 40 1.5 89.5t0.5 109.5v797q0 50 -0.5 91t-1.5 75q-1 26 -24 33l-134 39l-3 51q140 -4 266 -4zM-26 1449h269l-247 -421h-85zM-446 930z" />
    <glyph glyph-name="Etatonos" unicode="&#x389;" horiz-adv-x="1871" 
d="M726 685v-371q0 -118 2 -197q1 -28 26 -35l116 -35l3 -50q-124 3 -293 3q-173 0 -312 -3l-5 50l134 37q26 8 27 31q2 81 2 199v797q0 100 -2 166q-1 26 -24 33l-134 39l-3 51q139 -4 308 -4q174 0 296 4l6 -51l-119 -34q-25 -7 -26 -31q-2 -72 -2 -169v-324h596v324
q0 97 -2 169q-1 24 -26 31l-117 34l-3 51q127 -4 300 -4q169 0 305 4l5 -51l-136 -39q-23 -7 -25 -33q-2 -66 -2 -166v-797q0 -118 2 -199q2 -23 28 -31l130 -37l3 -50q-143 3 -316 3q-169 0 -289 -3l-5 50l120 35q25 7 26 35q2 79 2 197v371h-596zM-26 1449h269l-247 -421
h-85zM-446 930z" />
    <glyph glyph-name="Iotatonos" unicode="&#x38a;" horiz-adv-x="977" 
d="M727 314q0 -60 0.5 -109t1.5 -88q1 -26 34 -35l123 -35l3 -50q-139 3 -308 3q-175 0 -312 -3l-5 50l134 37q25 7 27 31q1 40 1.5 89.5t0.5 109.5v797q0 50 -0.5 91t-1.5 75q-1 26 -24 33l-134 39l-3 51q139 -4 308 -4q174 0 312 4l5 -51l-134 -37q-24 -6 -26 -30
q-1 -36 -1.5 -77.5t-0.5 -89.5v-801zM-26 1449h269l-247 -421h-85zM-446 930z" />
    <glyph glyph-name="Omicrontonos" unicode="&#x38c;" horiz-adv-x="1767" 
d="M505 717q0 -320 108 -489.5t317 -169.5q206 0 304.5 154t98.5 484q0 310 -104 476.5t-322 166.5q-211 0 -306.5 -154.5t-95.5 -467.5zM1669 730q0 -346 -204 -556.5t-568 -210.5q-348 0 -538 194.5t-190 526.5q0 346 205 547.5t567 201.5q348 0 538 -188.5t190 -514.5z
M4 1449h269l-247 -421h-85zM-416 930z" />
    <glyph glyph-name="Upsilontonos" unicode="&#x38e;" horiz-adv-x="1513" 
d="M993 757l192 382q27 50 43 85t16 57q0 30 -45 42l-90 24l-3 53q111 -4 233 -4q111 0 219 4l5 -51l-106 -31q-36 -12 -55.5 -35.5t-39.5 -59.5l-316 -585v-324q0 -60 0.5 -109t1.5 -88q1 -26 35 -35l112 -35l3 -50q-129 3 -298 3q-174 0 -302 -3l-5 50l124 37q25 7 27 31
q1 40 2 89.5t1 109.5v300l-325 582q-37 61 -60.5 87.5t-62.5 38.5l-96 27l-4 51q99 -4 281 -4q200 0 379 4l5 -51l-102 -25q-23 -5 -34 -14.5t-11 -24.5q0 -21 14 -51t39 -71zM-86 1449h269l-247 -421h-85zM-506 930z" />
    <glyph glyph-name="Omegatonos" unicode="&#x38f;" horiz-adv-x="1703" 
d="M777 0q-309 0 -610 -3l-6 9l-36 423l57 10l116 -232h329v6q-408 351 -408 658q0 250 196.5 406t496.5 156q292 0 482 -151t190 -396q0 -304 -416 -673v-6h333l116 220l60 10l-35 -431l-6 -9q-299 3 -611 3l-15 186q222 322 222 646q0 230 -88.5 369.5t-248.5 139.5
q-157 0 -241 -135.5t-84 -363.5q0 -335 222 -656zM4 1449h269l-247 -421h-85zM-416 930z" />
    <glyph glyph-name="iotadieresistonos" unicode="&#x390;" horiz-adv-x="679" 
d="M459 493q0 -201 4 -288q2 -67 22.5 -88t61 -29t112.5 -9l5 -50q-166 -54 -275 -54q-209 0 -209 181v484q0 150 -11 265q151 23 285 54l12 -8q-7 -131 -7 -285v-173zM294 1449h259l-233 -421h-75zM785 1221q0 -62 -39 -100t-101 -38q-58 0 -94.5 36t-36.5 94q0 63 39 99.5
t102 36.5q57 0 93.5 -33.5t36.5 -94.5zM188 1221q0 -62 -38.5 -100t-100.5 -38q-58 0 -95 36t-37 94q0 63 39 99.5t102 36.5q58 0 94 -33.5t36 -94.5zM-92 930z" />
    <glyph glyph-name="Alpha" unicode="&#x391;" horiz-adv-x="1371" 
d="M380 444l-71 -187q-21 -55 -32.5 -88.5t-11.5 -51.5q0 -17 9 -26t28 -14l96 -28l3 -52q-145 3 -236 3q-95 0 -217 -3l-5 50l107 32q38 11 56 36.5t40 77.5l498 1213l108 16l431 -1216q25 -70 45.5 -94.5t58.5 -35.5l98 -29l3 -50q-135 3 -272 3q-181 0 -353 -3l-5 50
l99 29q20 6 29 15t9 27q0 20 -10 52.5t-29 85.5l-66 188h-410zM596 1018q-18 -52 -39 -108l-137 -362h334l-123 361q-19 57 -35 109z" />
    <glyph glyph-name="Beta" unicode="&#x392;" horiz-adv-x="1354" 
d="M87 1400q140 -4 288 -4q54 2 169 6t158 4q253 0 381.5 -81.5t128.5 -234.5q0 -240 -284 -332q165 -23 254.5 -115t89.5 -230q0 -200 -161 -309.5t-456 -109.5q-58 0 -121.5 3t-158.5 3q-146 0 -283 -3l-5 50l134 37q25 7 27 31q1 40 1.5 89.5t0.5 109.5v797q0 50 -0.5 91
t-1.5 75q-1 26 -24 33l-134 39zM548 692v-598q56 -9 118 -9q137 0 208 79.5t71 230.5t-72 224.5t-233 73.5q-47 0 -92 -1zM548 782q51 -1 97 -1q128 0 189.5 61.5t61.5 208.5q0 138 -63.5 198t-183.5 60q-19 0 -44.5 -1.5t-56.5 -5.5v-520z" />
    <glyph glyph-name="Gamma" unicode="&#x393;" horiz-adv-x="1157" 
d="M550 314q0 -118 2 -193q1 -24 26 -32l147 -42l3 -50q-155 3 -324 3q-173 0 -312 -3l-5 50l134 37q26 8 27 31q2 81 2 199v797q0 50 -0.5 91t-1.5 75q-1 26 -24 33l-134 39l-3 51q140 -4 266 -4h239q242 0 504 4l6 -8l-70 -385l-51 -8l-80 295h-351v-980z" />
    <glyph glyph-name="uni0394" unicode="&#x394;" horiz-adv-x="1341" 
d="M1236 -3q-163 3 -290 3h-616q-114 0 -263 -3l-5 50l567 1359l107 24l494 -1383zM271 210h590l-244 705q-11 33 -34 111q-27 -78 -39 -111z" />
    <glyph glyph-name="Epsilon" unicode="&#x395;" horiz-adv-x="1233" 
d="M353 1396h253q243 0 504 4l7 -8l-62 -333l-54 -8l-64 243h-387v-531h54q87 0 187 2q26 1 34 27l36 137l66 3q-3 -145 -3 -217q0 -70 3 -214l-66 -5l-37 141q-8 27 -31 28q-102 2 -190 2h-53v-343q0 -110 2 -218h400l126 263l61 9l-24 -374l-7 -7q-249 3 -485 3h-265
q-129 0 -266 -3l-5 50l134 37q25 7 27 31q1 40 1.5 89.5t0.5 109.5v797q0 50 -0.5 91t-1.5 75q-1 26 -24 33l-134 39l-3 51q140 -4 266 -4z" />
    <glyph glyph-name="Zeta" unicode="&#x396;" horiz-adv-x="1207" 
d="M70 -3l-5 50l693 1248h-489l-74 -243l-56 -8l-53 348l6 8q255 -4 480 -4h262q143 0 287 4l5 -51l-691 -1246h503l141 292l58 9l-27 -400l-6 -7q-284 3 -504 3h-268q-140 0 -262 -3z" />
    <glyph glyph-name="Eta" unicode="&#x397;" horiz-adv-x="1695" 
d="M550 685v-371q0 -118 2 -197q1 -28 26 -35l116 -35l3 -50q-124 3 -293 3q-173 0 -312 -3l-5 50l134 37q26 8 27 31q2 81 2 199v797q0 100 -2 166q-1 26 -24 33l-134 39l-3 51q139 -4 308 -4q174 0 296 4l6 -51l-119 -34q-25 -7 -26 -31q-2 -72 -2 -169v-324h596v324
q0 97 -2 169q-1 24 -26 31l-117 34l-3 51q127 -4 300 -4q169 0 305 4l5 -51l-136 -39q-23 -7 -25 -33q-2 -66 -2 -166v-797q0 -118 2 -199q2 -23 28 -31l130 -37l3 -50q-143 3 -316 3q-169 0 -289 -3l-5 50l120 35q25 7 26 35q2 79 2 197v371h-596z" />
    <glyph glyph-name="Theta" unicode="&#x398;" horiz-adv-x="1707" 
d="M849 607q-75 0 -177 -2q-26 -1 -33 -26l-21 -86l-61 -2q3 125 3 226q0 98 -3 216l61 5l21 -81q7 -26 30 -28q104 -2 181 -2q74 0 176 2q27 2 34 27l21 78l61 3q-3 -119 -3 -220q0 -98 3 -222l-61 -5l-22 87q-8 27 -31 28q-104 2 -179 2zM430 717q0 -321 111 -491.5
t325 -170.5q212 0 312 154.5t100 486.5q0 311 -106.5 478.5t-328.5 167.5q-218 0 -315.5 -155t-97.5 -470zM1609 730q0 -346 -205.5 -556.5t-571.5 -210.5q-350 0 -541.5 194.5t-191.5 526.5q0 346 206.5 547.5t570.5 201.5q351 0 542 -188.5t191 -514.5z" />
    <glyph glyph-name="Iota" unicode="&#x399;" horiz-adv-x="800" 
d="M550 314q0 -60 0.5 -109t1.5 -88q1 -26 34 -35l123 -35l3 -50q-139 3 -308 3q-175 0 -312 -3l-5 50l134 37q25 7 27 31q1 40 1.5 89.5t0.5 109.5v797q0 50 -0.5 91t-1.5 75q-1 26 -24 33l-134 39l-3 51q139 -4 308 -4q174 0 312 4l5 -51l-134 -37q-24 -6 -26 -30
q-1 -36 -1.5 -77.5t-0.5 -89.5v-801z" />
    <glyph glyph-name="Kappa" unicode="&#x39a;" horiz-adv-x="1497" 
d="M550 1115v-801q0 -60 0.5 -109t1.5 -88q1 -27 26 -35l116 -35l3 -50q-124 3 -293 3q-175 0 -312 -3l-5 50l134 37q26 8 27 31q1 40 1.5 89.5t0.5 109.5v797q0 50 -0.5 91t-1.5 75q-1 26 -24 33l-134 39l-3 51q139 -4 308 -4q173 0 296 4l6 -51l-119 -34q-24 -7 -26 -31
q-1 -37 -1.5 -79t-0.5 -90zM573 699l410 451q49 53 77 89.5t28 58.5q0 19 -27 27l-87 22l-3 53q106 -4 232 -4q124 0 236 4l5 -51l-113 -31q-49 -15 -84 -46t-74 -73l-343 -383l440 -647q32 -45 57 -63.5t60 -28.5l97 -30l3 -50q-111 3 -229 3q-110 0 -237 -2
q-30 66 -163 268z" />
    <glyph glyph-name="Lambda" unicode="&#x39b;" horiz-adv-x="1360" 
d="M627 909q-19 57 -34 109q-18 -52 -39 -108l-244 -653q-20 -55 -31.5 -88.5t-11.5 -51.5q0 -17 9 -26t28 -14l96 -28l3 -52q-145 3 -236 3q-95 0 -217 -3l-5 50l107 32q38 11 56 36.5t40 77.5l492 1213l107 16l428 -1216q25 -70 45.5 -94.5t58.5 -35.5l97 -29l4 -50
q-136 3 -272 3q-181 0 -353 -3l-5 50l98 29q20 6 29 15t9 27q0 20 -10 52.5t-28 85.5z" />
    <glyph glyph-name="Mu" unicode="&#x39c;" horiz-adv-x="1915" 
d="M1340 1400q138 -4 249 -4q99 0 233 4l6 -51l-137 -39q-23 -7 -24 -33q-2 -66 -2 -166v-797q0 -118 2 -199q1 -23 27 -31l130 -37l4 -50q-143 3 -317 3q-169 0 -283 -3l-5 50l115 35q24 7 25 36q3 78 3 196v640q0 52 3 199q-34 -86 -72 -178l-398 -975l-90 -8l-380 947
q-34 81 -70 181q2 -142 2 -187v-619q0 -118 2 -196q1 -29 26 -36l110 -35l3 -50q-118 3 -205 3q-86 0 -225 -3l-5 50l134 37q26 8 27 31q2 81 2 199v797q0 100 -2 166q-1 26 -24 33l-134 39l-3 51q166 -4 249 -4q114 0 233 4l349 -881q23 -57 41 -108q20 51 42 108z" />
    <glyph glyph-name="Nu" unicode="&#x39d;" horiz-adv-x="1548" 
d="M358 119q1 -29 25 -35l128 -35l3 -52q-135 3 -222 3q-86 0 -225 -3l-5 50l134 37q26 8 27 31q2 81 2 199v797q0 100 -2 166q-1 26 -24 33l-134 39l-3 51q140 -4 215 -4q98 0 186 4l665 -833q40 -50 82 -106q-2 69 -2 133v521q0 97 -2 167q-1 23 -26 30l-128 35l-3 53
q138 -4 224 -4q88 0 223 4l5 -51l-136 -39q-23 -7 -24 -33q-3 -66 -3 -166v-1111l-115 -11l-788 987q-35 45 -81 107q2 -74 2 -136v-633q0 -118 2 -195z" />
    <glyph glyph-name="Xi" unicode="&#x39e;" horiz-adv-x="1338" 
d="M669 607q-91 0 -193 -2q-26 -1 -34 -26l-21 -86l-60 -2q3 125 3 226q0 98 -3 216l60 5l21 -81q8 -26 31 -28q104 -2 197 -2q91 0 192 2q27 2 34 27l21 78l61 3q-3 -119 -3 -220q0 -98 3 -222l-61 -5l-22 87q-7 27 -30 28q-104 2 -196 2zM143 988l-21 404l8 8
q259 -4 484 -4h109q225 0 487 4l6 -8l-61 -395l-56 -8l-41 189h-802l-56 -183zM1235 417l23 -413l-7 -7q-280 3 -484 3h-193q-225 0 -487 -3l-7 7l64 403l57 8l37 -180h889l52 173z" />
    <glyph glyph-name="Omicron" unicode="&#x39f;" horiz-adv-x="1697" 
d="M435 717q0 -320 108 -489.5t317 -169.5q206 0 304.5 154t98.5 484q0 310 -104 476.5t-322 166.5q-211 0 -306.5 -154.5t-95.5 -467.5zM1599 730q0 -346 -204 -556.5t-568 -210.5q-348 0 -538 194.5t-190 526.5q0 346 205 547.5t567 201.5q348 0 538 -188.5t190 -514.5z
" />
    <glyph glyph-name="Pi" unicode="&#x3a0;" horiz-adv-x="1662" 
d="M552 117q1 -28 26 -35l116 -35l3 -50q-124 3 -293 3q-173 0 -312 -3l-5 50l134 37q26 8 27 31q2 81 2 199v797q0 100 -2 166q-1 26 -24 33l-134 39l-3 51q139 -4 267 -4h952q128 0 263 4l6 -51l-137 -39q-23 -7 -24 -33q-2 -66 -2 -166v-797q0 -118 2 -199q1 -23 27 -31
l130 -37l4 -50q-143 3 -317 3q-169 0 -288 -3l-6 50l120 35q25 7 26 35q3 79 3 197v973h-563v-973q0 -118 2 -197z" />
    <glyph glyph-name="Rho" unicode="&#x3a1;" horiz-adv-x="1314" 
d="M550 682q57 -11 113 -11q131 0 199.5 80.5t68.5 243.5q0 158 -65 235.5t-205 77.5q-55 0 -111 -8v-618zM550 314q0 -60 0.5 -107.5t1.5 -85.5q1 -23 26 -32l147 -42l3 -50q-155 3 -324 3q-175 0 -312 -3l-5 50l134 37q26 8 27 31q1 40 1.5 89.5t0.5 109.5v797
q0 50 -0.5 91t-1.5 75q-1 26 -24 33l-134 39l-3 51q140 -4 277 -4q94 0 182.5 4t161.5 4q270 0 409 -93.5t139 -277.5q0 -217 -144.5 -337.5t-407.5 -120.5q-71 0 -154 11v-272z" />
    <glyph glyph-name="Sigma" unicode="&#x3a3;" horiz-adv-x="1295" 
d="M55 42l526 625l-512 684l-5 49q163 -4 306 -4h304q225 0 485 5l7 -8l-66 -355l-53 -8l-69 264h-510l372 -496l-480 -575h661l118 248l61 10l-32 -477l-7 -7q-301 3 -520 3h-304q-151 0 -278 -3z" />
    <glyph glyph-name="Tau" unicode="&#x3a4;" horiz-adv-x="1269" 
d="M515 0q-176 0 -336 -3l-5 50l160 44q25 8 26 32q2 75 2 193v977h-288l-92 -266l-56 -9l-26 374l7 8q246 -4 471 -4h279q225 0 474 4l6 -8l-66 -366l-56 -9l-65 276h-289v-977q0 -118 2 -193q1 -24 27 -32l157 -44l3 -50q-166 3 -335 3z" />
    <glyph glyph-name="Upsilon" unicode="&#x3a5;" horiz-adv-x="1264" 
d="M744 757l192 382q27 50 43 85t16 57q0 30 -45 42l-90 24l-3 53q111 -4 233 -4q111 0 219 4l5 -51l-106 -31q-36 -12 -55.5 -35.5t-39.5 -59.5l-316 -585v-324q0 -60 0.5 -109t1.5 -88q1 -26 35 -35l112 -35l3 -50q-129 3 -298 3q-174 0 -302 -3l-5 50l124 37q25 7 27 31
q1 40 2 89.5t1 109.5v300l-325 582q-37 61 -60.5 87.5t-62.5 38.5l-96 27l-4 51q99 -4 281 -4q200 0 379 4l5 -51l-102 -25q-23 -5 -34 -14.5t-11 -24.5q0 -21 14 -51t39 -71z" />
    <glyph glyph-name="Phi" unicode="&#x3a6;" horiz-adv-x="1622" 
d="M1582 730q0 -220 -175 -356.5t-453 -155.5v-105q0 -24 36 -34l123 -35l3 -47q-139 3 -301 3q-168 0 -305 -3l-6 47l135 37q29 8 29 31v103q-290 16 -459 142t-169 340t168.5 348t459.5 155v85q0 25 -26 34l-135 39l-3 47q140 -3 304 -3q165 0 303 3l5 -47l-134 -37
q-28 -7 -28 -31v-88q294 -12 461 -138t167 -334zM954 1116v-815q152 13 234 110t82 297q0 177 -80 282.5t-236 125.5zM352 720q0 -190 86.5 -294.5t229.5 -122.5v814q-161 -12 -238.5 -111.5t-77.5 -285.5z" />
    <glyph glyph-name="Chi" unicode="&#x3a7;" horiz-adv-x="1404" 
d="M1436 -3q-139 3 -309 3q-159 0 -351 -3l-7 50l89 24q21 6 30 15.5t9 23.5q0 24 -18 56.5t-39 66.5l-217 343l-197 -307q-31 -47 -55 -88t-24 -69q0 -14 7 -23.5t28 -15.5l86 -24l3 -52q-112 3 -241 3q-116 0 -235 -3l-5 50l115 32q37 12 64 35.5t58 71.5l331 492
l-342 543q-33 52 -56.5 72.5t-55.5 28.5l-104 27l-4 51q141 -4 325 -4q159 0 336 4l6 -51l-88 -24q-21 -5 -30 -14.5t-9 -24.5q0 -24 18.5 -56.5t39.5 -66.5l171 -272l154 237q32 46 56 89t24 67q0 27 -40 39l-88 24l-3 53q111 -4 239 -4q124 0 234 4l6 -51l-112 -31
q-39 -12 -62.5 -36t-63.5 -83l-280 -410l380 -601q41 -65 62.5 -84.5t58.5 -28.5l103 -28z" />
    <glyph glyph-name="Psi" unicode="&#x3a8;" horiz-adv-x="1878" 
d="M793 499q-121 4 -213.5 18t-160 43.5t-113 74t-72.5 111t-38.5 155.5t-11.5 205q0 38 -0.5 87t-1.5 84q-1 26 -24 33l-134 39l-4 51q139 -4 299 -4q82 0 158 2q-1 -68 -2.5 -146t-1.5 -148q0 -105 4.5 -183t17.5 -133.5t36 -92.5t58 -59t86 -31.5t118 -12.5v519
q0 50 -0.5 91t-1.5 79q-1 26 -24 34l-114 34l-3 51q118 -4 286 -4q169 0 288 4l5 -51l-114 -32q-24 -7 -26 -31q-1 -40 -1.5 -81.5t-0.5 -89.5v-524q102 4 164.5 25.5t96.5 78t46 154t12 255.5q0 70 -1.5 148t-4.5 146q76 -2 157 -2q160 0 295 4l6 -51l-137 -39
q-23 -7 -24 -33q-1 -35 -1.5 -84t-0.5 -87q0 -175 -29 -288t-98.5 -182.5t-186.5 -99.5t-294 -36v-186q0 -60 0.5 -106.5t1.5 -86.5q1 -25 35 -35l133 -39l3 -50q-151 3 -316 3q-171 0 -318 -3l-5 50l143 41q25 8 27 32q1 40 1.5 87t0.5 107v185z" />
    <glyph glyph-name="uni03A9" unicode="&#x3a9;" horiz-adv-x="1682" 
d="M717 0q-309 0 -610 -3l-6 9l-36 423l57 10l116 -232h329v6q-408 351 -408 658q0 250 196.5 406t496.5 156q292 0 482 -151t190 -396q0 -304 -416 -673v-6h333l116 220l60 10l-35 -431l-6 -9q-299 3 -611 3l-15 186q222 322 222 646q0 230 -88.5 369.5t-248.5 139.5
q-157 0 -241 -135.5t-84 -363.5q0 -335 222 -656z" />
    <glyph glyph-name="Iotadieresis" unicode="&#x3aa;" horiz-adv-x="800" 
d="M550 314q0 -60 0.5 -109t1.5 -88q1 -26 34 -35l123 -35l3 -50q-139 3 -308 3q-175 0 -312 -3l-5 50l134 37q25 7 27 31q1 40 1.5 89.5t0.5 109.5v797q0 50 -0.5 91t-1.5 75q-1 26 -24 33l-134 39l-3 51q139 -4 308 -4q174 0 312 4l5 -51l-134 -37q-24 -6 -26 -30
q-1 -36 -1.5 -77.5t-0.5 -89.5v-801zM324 1655q0 -61 -37.5 -97.5t-97.5 -36.5q-58 0 -94 34.5t-36 90.5q0 61 38 95.5t99 34.5q57 0 92.5 -31.5t35.5 -89.5zM743 1655q0 -61 -38 -97.5t-98 -36.5q-57 0 -93 34.5t-36 90.5q0 61 37.5 95.5t98.5 34.5q58 0 93.5 -31.5
t35.5 -89.5zM-19 1400z" />
    <glyph glyph-name="Upsilondieresis" unicode="&#x3ab;" horiz-adv-x="1264" 
d="M744 757l192 382q27 50 43 85t16 57q0 30 -45 42l-90 24l-3 53q111 -4 233 -4q111 0 219 4l5 -51l-106 -31q-36 -12 -55.5 -35.5t-39.5 -59.5l-316 -585v-324q0 -60 0.5 -109t1.5 -88q1 -26 35 -35l112 -35l3 -50q-129 3 -298 3q-174 0 -302 -3l-5 50l124 37q25 7 27 31
q1 40 2 89.5t1 109.5v300l-325 582q-37 61 -60.5 87.5t-62.5 38.5l-96 27l-4 51q99 -4 281 -4q200 0 379 4l5 -51l-102 -25q-23 -5 -34 -14.5t-11 -24.5q0 -21 14 -51t39 -71zM612 1655q0 -61 -37.5 -97.5t-97.5 -36.5q-58 0 -94 34.5t-36 90.5q0 61 38 95.5t99 34.5
q57 0 92.5 -31.5t35.5 -89.5zM1031 1655q0 -61 -38 -97.5t-98 -36.5q-57 0 -93 34.5t-36 90.5q0 61 37.5 95.5t98.5 34.5q58 0 93.5 -31.5t35.5 -89.5zM269 1400z" />
    <glyph glyph-name="alphatonos" unicode="&#x3ac;" horiz-adv-x="1239" 
d="M910 353q52 -153 133 -213.5t209 -60.5l6 -52q-165 -45 -285 -45q-43 0 -80.5 44.5t-80.5 185.5q-181 -240 -362 -240q-167 0 -266 131t-99 317q0 217 124.5 377t317.5 160q131 0 202.5 -88t111.5 -271h2q37 129 55 292q146 30 280 67l9 -8q-127 -343 -277 -596zM770 401
q-40 218 -91.5 325.5t-127.5 107.5q-96 0 -142.5 -112t-46.5 -265q0 -150 44 -242t130 -92q53 0 111.5 64.5t122.5 213.5zM633 1449h269l-247 -421h-85zM213 930z" />
    <glyph glyph-name="epsilontonos" unicode="&#x3ad;" horiz-adv-x="990" 
d="M732 423q-62 11 -110 11q-99 0 -159 -40t-60 -116q0 -88 70 -129.5t211 -41.5q114 0 245 37l7 -52q-73 -56 -184 -88t-236 -32q-181 0 -299.5 69.5t-118.5 198.5q0 83 58 145.5t149 86.5q-92 37 -137.5 87.5t-45.5 121.5q0 134 123 205t326 71q178 0 348 -60
q-29 -122 -51 -246l-54 -8l-60 190q-60 20 -127 20q-109 0 -172 -38.5t-63 -113.5q0 -77 62.5 -119.5t177.5 -42.5q44 0 91 6zM577 1449h269l-247 -421h-85zM157 930z" />
    <glyph glyph-name="etatonos" unicode="&#x3ae;" horiz-adv-x="1245" 
d="M469 759v-476q0 -117 6 -279q-144 -13 -273 -31l-14 7q2 156 2 286v196q0 62 -0.5 119.5t-2.5 139.5q-1 37 -7 60t-22 36.5t-46 18t-78 4.5l-7 46q178 55 278 55q149 0 161 -106q184 120 335 120q141 0 215 -85t74 -221v-649q0 -301 15 -463q-140 -15 -280 -38l-14 7
v1084q0 117 -41.5 169t-128.5 52q-92 0 -172 -52zM616 1449h269l-247 -421h-85zM196 930z" />
    <glyph glyph-name="iotatonos" unicode="&#x3af;" horiz-adv-x="639" 
d="M449 493q0 -201 4 -288q2 -67 22.5 -88t61 -29t112.5 -9l5 -50q-166 -54 -275 -54q-209 0 -209 181v484q0 150 -11 265q151 23 285 54l12 -8q-7 -131 -7 -285v-173zM316 1449h269l-247 -421h-85zM-104 930z" />
    <glyph glyph-name="upsilondieresistonos" unicode="&#x3b0;" horiz-adv-x="1153" 
d="M189 741q0 57 -37 78t-125 20l-7 46q164 55 283 55q170 0 170 -132q0 -13 -10 -143q-9 -144 -9 -226q0 -195 45 -269t133 -74q91 0 138.5 81t47.5 281q0 232 -91 451q67 12 131.5 24t127.5 26l12 -8q62 -188 62 -371q0 -278 -127.5 -443t-355.5 -165q-199 0 -300.5 117
t-101.5 360q0 56 9 191q5 81 5 101zM554 1449h259l-233 -421h-75zM1045 1221q0 -62 -39 -100t-101 -38q-58 0 -94.5 36t-36.5 94q0 63 39 99.5t102 36.5q57 0 93.5 -33.5t36.5 -94.5zM448 1221q0 -62 -38.5 -100t-100.5 -38q-58 0 -95 36t-37 94q0 63 39 99.5t102 36.5
q58 0 94 -33.5t36 -94.5zM168 930z" />
    <glyph glyph-name="alpha" unicode="&#x3b1;" horiz-adv-x="1239" 
d="M910 353q52 -153 133 -213.5t209 -60.5l6 -52q-165 -45 -285 -45q-43 0 -80.5 44.5t-80.5 185.5q-181 -240 -362 -240q-167 0 -266 131t-99 317q0 217 124.5 377t317.5 160q131 0 202.5 -88t111.5 -271h2q37 129 55 292q146 30 280 67l9 -8q-127 -343 -277 -596zM770 401
q-40 218 -91.5 325.5t-127.5 107.5q-96 0 -142.5 -112t-46.5 -265q0 -150 44 -242t130 -92q53 0 111.5 64.5t122.5 213.5z" />
    <glyph glyph-name="beta" unicode="&#x3b2;" horiz-adv-x="1272" 
d="M456 -464q-162 -18 -271 -37l-15 7v1347q0 359 142 505t385 146q184 0 302.5 -94t118.5 -239q0 -250 -275 -360l1 -8q164 -31 257.5 -132t93.5 -253q0 -195 -152 -319.5t-364 -124.5q-123 0 -239 44q0 -348 16 -482zM513 816q157 15 240.5 84.5t83.5 218.5
q0 121 -53 200.5t-141 79.5q-105 0 -154 -96t-49 -334v-856q91 -35 172 -35q122 0 197.5 88t75.5 245t-83 242t-243 85q-19 0 -34 -1z" />
    <glyph glyph-name="gamma" unicode="&#x3b3;" horiz-adv-x="1091" 
d="M351 -494q48 284 48 464q0 32 -13 98t-35.5 147.5t-52 171.5t-62 170t-65.5 143t-64 93q-14 14 -30 23t-34.5 14.5t-42 7.5t-53.5 2l-7 46q183 55 281 55q52 0 87 -12.5t66 -48.5q64 -76 146 -308q59 -167 88 -298q11 -51 19 -112q16 62 29 113q80 294 138 630
q148 23 286 54l11 -9q-76 -188 -228 -503q-122 -255 -207 -441q4 -60 4 -141q0 -119 -21 -330q-139 -14 -274 -36z" />
    <glyph glyph-name="delta" unicode="&#x3b4;" horiz-adv-x="1147" 
d="M968 1117q-292 259 -440 259q-25 0 -41 -11t-16 -33q0 -18 8.5 -34.5t30 -40t58.5 -57t93 -84.5q44 -41 91.5 -88t92.5 -98.5t85 -108.5t70.5 -118.5t48 -126.5t17.5 -134q0 -205 -153 -338.5t-367 -133.5q-204 0 -340 119.5t-136 310.5q0 179 121.5 317.5t322.5 198.5
q-139 125 -200.5 206.5t-61.5 163.5q0 103 76 158t211 55q267 0 569 -185l2 -11q-67 -84 -142 -186zM584 847q-225 -114 -225 -420q0 -154 54 -256t155 -102t155 87t54 224q0 71 -12.5 134.5t-36.5 120.5t-60 109.5t-84 102.5z" />
    <glyph glyph-name="epsilon" unicode="&#x3b5;" horiz-adv-x="990" 
d="M732 423q-62 11 -110 11q-99 0 -159 -40t-60 -116q0 -88 70 -129.5t211 -41.5q114 0 245 37l7 -52q-73 -56 -184 -88t-236 -32q-181 0 -299.5 69.5t-118.5 198.5q0 83 58 145.5t149 86.5q-92 37 -137.5 87.5t-45.5 121.5q0 134 123 205t326 71q178 0 348 -60
q-29 -122 -51 -246l-54 -8l-60 190q-60 20 -127 20q-109 0 -172 -38.5t-63 -113.5q0 -77 62.5 -119.5t177.5 -42.5q44 0 91 6z" />
    <glyph glyph-name="zeta" unicode="&#x3b6;" horiz-adv-x="938" 
d="M933 1361q-243 -176 -399 -441.5t-156 -498.5q0 -70 23 -110.5t62 -65.5t87.5 -39t101.5 -30q47 -14 90.5 -33t77.5 -48t53.5 -70t19.5 -97q0 -155 -258 -418l-64 42q105 175 105 259q0 40 -26 68t-68 47.5t-92.5 34.5t-96.5 28q-58 17 -112 42t-97.5 66.5t-69.5 104.5
t-26 157q0 199 136 418.5t354 427.5q26 25 71 59q-93 -33 -157 -39l-276 -24q-10 129 -30 228l6 7q154 -5 312 -5h134q146 0 285 5z" />
    <glyph glyph-name="eta" unicode="&#x3b7;" horiz-adv-x="1245" 
d="M469 759v-476q0 -117 6 -279q-144 -13 -273 -31l-14 7q2 156 2 286v196q0 62 -0.5 119.5t-2.5 139.5q-1 37 -7 60t-22 36.5t-46 18t-78 4.5l-7 46q178 55 278 55q149 0 161 -106q184 120 335 120q141 0 215 -85t74 -221v-649q0 -301 15 -463q-140 -15 -280 -38l-14 7
v1084q0 117 -41.5 169t-128.5 52q-92 0 -172 -52z" />
    <glyph glyph-name="theta" unicode="&#x3b8;" horiz-adv-x="1208" 
d="M1109 720q0 -351 -133.5 -549.5t-388.5 -198.5q-234 0 -360 195t-126 542q0 346 145.5 544.5t378.5 198.5q227 0 355.5 -198t128.5 -534zM820 681h-430q2 -279 61.5 -440.5t166.5 -161.5q103 0 152 137.5t50 447.5v17zM815 795q-15 271 -70 410.5t-142 139.5
q-95 0 -150 -141.5t-62 -408.5h424z" />
    <glyph glyph-name="iota" unicode="&#x3b9;" horiz-adv-x="639" 
d="M449 493q0 -201 4 -288q2 -67 22.5 -88t61 -29t112.5 -9l5 -50q-166 -54 -275 -54q-209 0 -209 181v484q0 150 -11 265q151 23 285 54l12 -8q-7 -131 -7 -285v-173z" />
    <glyph glyph-name="kappa" unicode="&#x3ba;" horiz-adv-x="1222" 
d="M469 302q0 -59 1.5 -136t4.5 -162q-145 -15 -273 -31l-14 7q1 96 1.5 169.5t0.5 121.5v193q0 63 -1 127t-2 127q-1 38 -7 61.5t-22 37.5t-46 18.5t-78 4.5l-7 46q180 55 282 55q160 0 160 -144v-349l125 165q60 79 109 141t98 104t107 64t137 22q69 0 131 -13
q-27 -107 -67 -235l-8 -2q-88 25 -156 25q-82 0 -141 -32t-128 -117l273 -345q64 -82 113.5 -113.5t143.5 -38.5l6 -49q-180 -48 -275 -48q-74 0 -133 30.5t-114 112.5q-99 147 -175 243z" />
    <glyph glyph-name="lambda" unicode="&#x3bb;" horiz-adv-x="1136" 
d="M72 -27l-14 7l571 960q-10 39 -21.5 78.5t-24.5 76.5q-27 77 -72 120t-125 43q-67 0 -170 -26l-8 2l-48 232q128 28 225 28q52 0 97 -12t82 -40.5t66 -75t50 -114.5q12 -42 24.5 -91.5t25 -110t27 -133.5t32.5 -163q10 -46 21 -101t23.5 -112.5t25.5 -116.5t24 -99
q18 -66 42 -112t60 -75.5t86.5 -44t121.5 -17.5l6 -52q-146 -42 -254 -42q-43 0 -69.5 15t-49.5 59q-16 28 -40 115t-88 435q-29 -65 -61 -127l-253 -472q-143 -12 -312 -34z" />
    <glyph glyph-name="uni03BC" unicode="&#x3bc;" horiz-adv-x="1267" 
d="M170 -494v1136q0 142 -11 263q152 22 285 54l12 -8q-7 -131 -7 -285v-318q0 -105 45 -149.5t119 -44.5q52 0 101 25t84 70v393q0 144 -12 263q153 22 286 54l12 -8q-7 -131 -7 -285v-184q0 -201 3 -290q3 -57 21 -78q20 -20 59 -27t108 -8l6 -49q-168 -55 -279 -55
q-88 0 -137.5 36.5t-59.5 121.5q-38 -81 -95 -124t-119 -43q-93 0 -160 95q8 -233 43 -524q-149 -16 -283 -38z" />
    <glyph glyph-name="nu" unicode="&#x3bd;" horiz-adv-x="1072" 
d="M741 909q149 25 259 50l11 -8q14 -36 14 -78q0 -63 -23 -141.5t-60.5 -162t-84 -168.5t-95 -162t-93.5 -141t-76 -107l-129 -14q-45 127 -87.5 244t-89.5 239q-15 36 -35 85.5t-42.5 99t-46.5 92t-46 64.5q-25 25 -58 32t-88 7l-6 46q180 55 284 55q51 0 86.5 -17.5
t62.5 -66.5q13 -21 36.5 -71t52 -116t59 -140t55.5 -143q22 -63 43 -135q36 62 59 123q32 84 46.5 169t14.5 166q0 108 -23 199z" />
    <glyph glyph-name="xi" unicode="&#x3be;" horiz-adv-x="969" 
d="M876 802q-258 -58 -381.5 -163.5t-123.5 -229.5q0 -56 22 -92.5t58.5 -60.5t84 -39.5t97.5 -31.5q53 -16 103.5 -35t91 -48t65.5 -70t25 -103q0 -155 -259 -419l-64 42q105 173 105 259q0 36 -21.5 61t-57 44t-82.5 33t-97 30q-63 19 -126.5 43t-115 63t-83.5 97t-32 145
q0 145 100.5 252.5t296.5 197.5q-135 18 -208.5 75t-73.5 143q0 75 60.5 141t195.5 141q86 43 142 69l-2 5q-66 -22 -123 -36l-274 -57q-10 117 -31 230l6 7q199 -5 391 -5h100q123 0 270 5l9 -74q-220 -64 -348.5 -167t-128.5 -202q0 -84 79 -127.5t225 -43.5q50 0 95 4z
" />
    <glyph glyph-name="omicron" unicode="&#x3bf;" horiz-adv-x="1220" 
d="M389 475q0 -182 53.5 -295.5t170.5 -113.5q109 0 160.5 100t51.5 297q0 185 -54.5 291.5t-169.5 106.5q-107 0 -159.5 -96t-52.5 -290zM1135 483q0 -228 -151 -369.5t-392 -141.5q-236 0 -374.5 133.5t-138.5 349.5q0 219 146 359.5t396 140.5q236 0 375 -129.5
t139 -342.5z" />
    <glyph glyph-name="pi" unicode="&#x3c0;" horiz-adv-x="1266" 
d="M967 698q-6 -95 -9.5 -186t-3.5 -179q0 -77 10 -125.5t36.5 -76.5t72 -38.5t117.5 -12.5l7 -51q-167 -55 -267 -55q-126 0 -183.5 55.5t-57.5 180.5q0 170 82 488h-245l-49 -363q-27 -204 -37 -331q-150 -13 -273 -31l-13 7q30 138 75 312l102 406h-289l-6 37
q144 96 276 194h595q223 0 334 3l7 -9q-19 -104 -35 -234q-122 9 -246 9z" />
    <glyph glyph-name="rho" unicode="&#x3c1;" horiz-adv-x="1221" 
d="M429 23q0 -297 17 -486q-143 -15 -283 -38l-14 7v942q0 233 134 370t378 137q215 0 345 -121.5t130 -323.5q0 -234 -145 -381.5t-366 -147.5q-104 0 -196 42zM429 119q67 -39 136 -39q127 0 197 103t70 286q0 181 -58.5 277.5t-162.5 96.5q-96 0 -139 -74t-43 -244v-406z
" />
    <glyph glyph-name="sigma1" unicode="&#x3c2;" horiz-adv-x="987" 
d="M736 842q-31 11 -77 11q-69 0 -119 -33t-82.5 -86t-48.5 -118.5t-16 -131.5q0 -74 20 -125.5t52 -88t73.5 -61.5t85 -45.5t85 -39.5t73.5 -45t52 -61.5t20 -87.5q0 -38 -14.5 -82t-46 -95t-80.5 -111.5t-118 -131.5l-64 42q54 90 79 149t25 102q0 40 -23.5 67.5t-62 49.5
t-88 42t-101 45t-101 59t-88 84t-62 119.5t-23.5 165.5q0 118 43 214t117 164t174.5 105t215.5 37q76 0 148.5 -14t142.5 -43q-17 -66 -31.5 -134.5t-30.5 -151.5l-54 -8z" />
    <glyph glyph-name="sigma" unicode="&#x3c3;" horiz-adv-x="1237" 
d="M1201 689q-218 17 -339 19q207 -129 207 -330q0 -165 -136.5 -285.5t-347.5 -120.5q-212 0 -358 132t-146 329q0 240 175.5 368t472.5 128q376 0 499 3l7 -10q-20 -107 -34 -233zM720 708q-184 -5 -270.5 -77t-86.5 -231q0 -139 65 -237t176 -98q91 0 142 83.5t51 218.5
q0 96 -18 174t-59 167z" />
    <glyph glyph-name="tau" unicode="&#x3c4;" horiz-adv-x="1001" 
d="M567 698q-14 -184 -14 -365q0 -142 33.5 -185t121.5 -43q69 0 158 15l7 -52q-178 -94 -335 -94q-134 0 -199.5 54t-65.5 179q0 170 94 491h-365l-7 37q144 96 276 194h292q287 0 412 3l6 -9q-19 -104 -34 -234q-195 9 -380 9z" />
    <glyph glyph-name="upsilon" unicode="&#x3c5;" horiz-adv-x="1153" 
d="M189 741q0 57 -37 78t-125 20l-7 46q164 55 283 55q170 0 170 -132q0 -13 -10 -143q-9 -144 -9 -226q0 -195 45 -269t133 -74q91 0 138.5 81t47.5 281q0 232 -91 451q67 12 131.5 24t127.5 26l12 -8q62 -188 62 -371q0 -278 -127.5 -443t-355.5 -165q-199 0 -300.5 117
t-101.5 360q0 56 9 191q5 81 5 101z" />
    <glyph glyph-name="phi" unicode="&#x3c6;" horiz-adv-x="1525" 
d="M687 -498l-10 9q-3 214 -8 460q-284 14 -439.5 144.5t-155.5 341.5q0 210 154.5 345t411.5 156q-10 240 -22 386q141 23 269 52l9 -7q-12 -220 -20 -429q262 -13 415.5 -140t153.5 -334q0 -222 -163.5 -358t-430.5 -155q-4 -234 -7 -442zM645 876q-124 -16 -203 -111.5
t-79 -286.5q0 -178 76.5 -289.5t229.5 -133.5q-9 424 -24 821zM851 54q150 16 227.5 119t77.5 292q0 178 -78.5 284t-206.5 126q-11 -401 -20 -821z" />
    <glyph glyph-name="chi" unicode="&#x3c7;" horiz-adv-x="1130" 
d="M790 903q171 22 329 56l12 -9q-211 -324 -469 -774q64 -172 115 -284q30 -63 54 -109.5t48 -79.5t49.5 -54t56.5 -33t70 -18t89 -9l7 -49q-143 -42 -237 -42q-41 0 -70.5 10.5t-52.5 35.5t-44.5 68.5t-45.5 109.5q-36 94 -122 327q-128 -237 -265 -512q-179 -15 -316 -38
l-14 7q243 466 475 855q-37 94 -79 183q-44 94 -85.5 153t-89 91.5t-103.5 43.5t-128 10l-6 49q169 49 275 49q33 0 59.5 -16t47 -41.5t37.5 -58t34 -65.5q47 -98 120 -275q116 216 249 419z" />
    <glyph glyph-name="psi" unicode="&#x3c8;" horiz-adv-x="1520" 
d="M20 839l-6 46q163 55 283 55q85 0 124.5 -32.5t39.5 -99.5q0 -13 -9 -143q-7 -100 -7 -181q0 -178 64 -271t213 -116q-14 631 -51 1247q141 23 269 52l10 -7q-33 -654 -47 -1290q156 26 223 129.5t67 259.5q0 184 -76 421q126 22 254 50l11 -8q46 -190 46 -371
q0 -257 -140 -410.5t-387 -185.5q-3 -228 -4 -453l-156 -29l-11 9q-1 234 -5 466q-263 11 -408.5 133t-145.5 339q0 96 7 191q5 74 5 101q0 57 -37 78t-126 20z" />
    <glyph glyph-name="omega" unicode="&#x3c9;" horiz-adv-x="1591" 
d="M653 615q138 28 265 63l10 -7q-25 -175 -25 -315q0 -112 36.5 -179.5t102.5 -67.5q82 0 126 92.5t44 238.5q0 140 -32 251t-88 218l78 34q146 -75 242.5 -210t96.5 -286q0 -186 -123.5 -330.5t-313.5 -144.5q-109 0 -180.5 52t-103.5 146h-6q-43 -101 -121.5 -149.5
t-200.5 -48.5q-177 0 -284 121.5t-107 299.5q0 161 98 312.5t262 237.5l83 -34q-143 -199 -143 -451q0 -151 45 -250.5t124 -99.5q66 0 103.5 66t37.5 176q0 132 -26 265z" />
    <glyph glyph-name="iotadieresis" unicode="&#x3ca;" horiz-adv-x="639" 
d="M449 493q0 -201 4 -288q2 -67 22.5 -88t61 -29t112.5 -9l5 -50q-166 -54 -275 -54q-209 0 -209 181v484q0 150 -11 265q151 23 285 54l12 -8q-7 -131 -7 -285v-173zM244 1225q0 -64 -40.5 -102.5t-104.5 -38.5q-60 0 -98.5 36.5t-38.5 95.5q0 64 40.5 101.5t105.5 37.5
q60 0 98 -34.5t38 -95.5zM670 1225q0 -64 -40.5 -102.5t-104.5 -38.5q-60 0 -98.5 36.5t-38.5 95.5q0 64 40.5 101.5t105.5 37.5q60 0 98 -34.5t38 -95.5zM-104 861z" />
    <glyph glyph-name="upsilondieresis" unicode="&#x3cb;" horiz-adv-x="1153" 
d="M189 741q0 57 -37 78t-125 20l-7 46q164 55 283 55q170 0 170 -132q0 -13 -10 -143q-9 -144 -9 -226q0 -195 45 -269t133 -74q91 0 138.5 81t47.5 281q0 232 -91 451q67 12 131.5 24t127.5 26l12 -8q62 -188 62 -371q0 -278 -127.5 -443t-355.5 -165q-199 0 -300.5 117
t-101.5 360q0 56 9 191q5 81 5 101zM514 1225q0 -64 -40.5 -102.5t-104.5 -38.5q-60 0 -98.5 36.5t-38.5 95.5q0 64 40.5 101.5t105.5 37.5q60 0 98 -34.5t38 -95.5zM940 1225q0 -64 -40.5 -102.5t-104.5 -38.5q-60 0 -98.5 36.5t-38.5 95.5q0 64 40.5 101.5t105.5 37.5
q60 0 98 -34.5t38 -95.5zM166 861z" />
    <glyph glyph-name="omicrontonos" unicode="&#x3cc;" horiz-adv-x="1220" 
d="M389 475q0 -182 53.5 -295.5t170.5 -113.5q109 0 160.5 100t51.5 297q0 185 -54.5 291.5t-169.5 106.5q-107 0 -159.5 -96t-52.5 -290zM1135 483q0 -228 -151 -369.5t-392 -141.5q-236 0 -374.5 133.5t-138.5 349.5q0 219 146 359.5t396 140.5q236 0 375 -129.5
t139 -342.5zM611 1449h269l-247 -421h-85zM191 930z" />
    <glyph glyph-name="upsilontonos" unicode="&#x3cd;" horiz-adv-x="1153" 
d="M189 741q0 57 -37 78t-125 20l-7 46q164 55 283 55q170 0 170 -132q0 -13 -10 -143q-9 -144 -9 -226q0 -195 45 -269t133 -74q91 0 138.5 81t47.5 281q0 232 -91 451q67 12 131.5 24t127.5 26l12 -8q62 -188 62 -371q0 -278 -127.5 -443t-355.5 -165q-199 0 -300.5 117
t-101.5 360q0 56 9 191q5 81 5 101zM586 1449h269l-247 -421h-85zM166 930z" />
    <glyph glyph-name="omegatonos" unicode="&#x3ce;" horiz-adv-x="1591" 
d="M653 615q138 28 265 63l10 -7q-25 -175 -25 -315q0 -112 36.5 -179.5t102.5 -67.5q82 0 126 92.5t44 238.5q0 140 -32 251t-88 218l78 34q146 -75 242.5 -210t96.5 -286q0 -186 -123.5 -330.5t-313.5 -144.5q-109 0 -180.5 52t-103.5 146h-6q-43 -101 -121.5 -149.5
t-200.5 -48.5q-177 0 -284 121.5t-107 299.5q0 161 98 312.5t262 237.5l83 -34q-143 -199 -143 -451q0 -151 45 -250.5t124 -99.5q66 0 103.5 66t37.5 176q0 132 -26 265zM788 1449h269l-247 -421h-85zM368 930z" />
    <glyph glyph-name="uni03DE" unicode="&#x3de;" horiz-adv-x="1116" 
d="M55 651l183 488q20 56 31.5 89t11.5 52q0 17 -9.5 26t-28.5 14l-95 27l-3 53q145 -4 236 -4q95 0 216 4l6 -51l-108 -31q-37 -12 -55 -37t-40 -78l-152 -374h555q114 0 263 3l5 -50l-197 -525q-20 -56 -31.5 -89t-11.5 -52q0 -17 9.5 -26t28.5 -14l95 -27l3 -53
q-145 4 -236 4q-95 0 -216 -4l-6 51l108 31q37 12 55 37t40 78l166 411h-555q-114 0 -263 -3z" />
    <glyph glyph-name="uni03DF" unicode="&#x3df;" horiz-adv-x="921" 
d="M410 -330l250 764h-296q-114 0 -264 -2l-8 38l255 916l145 14l15 -18l-234 -717h299q114 0 264 2l3 -38l-269 -964l-144 -14z" />
    <glyph glyph-name="uni0400" unicode="&#x400;" horiz-adv-x="1233" 
d="M353 1396h253q243 0 504 4l7 -8l-62 -333l-54 -8l-64 243h-387v-531h54q87 0 187 2q26 1 34 27l36 137l66 3q-3 -145 -3 -217q0 -70 3 -214l-66 -5l-37 141q-8 27 -31 28q-102 2 -190 2h-53v-343q0 -110 2 -218h400l126 263l61 9l-24 -374l-7 -7q-249 3 -485 3h-265
q-129 0 -266 -3l-5 50l134 37q25 7 27 31q1 40 1.5 89.5t0.5 109.5v797q0 50 -0.5 91t-1.5 75q-1 26 -24 33l-134 39l-3 51q140 -4 266 -4zM355 1662l156 138l350 -275l-31 -52l-475 174v15zM217 1400z" />
    <glyph glyph-name="uni0401" unicode="&#x401;" horiz-adv-x="1233" 
d="M353 1396h253q243 0 504 4l7 -8l-62 -333l-54 -8l-64 243h-387v-531h54q87 0 187 2q26 1 34 27l36 137l66 3q-3 -145 -3 -217q0 -70 3 -214l-66 -5l-37 141q-8 27 -31 28q-102 2 -190 2h-53v-343q0 -110 2 -218h400l126 263l61 9l-24 -374l-7 -7q-249 3 -485 3h-265
q-129 0 -266 -3l-5 50l134 37q25 7 27 31q1 40 1.5 89.5t0.5 109.5v797q0 50 -0.5 91t-1.5 75q-1 26 -24 33l-134 39l-3 51q140 -4 266 -4zM560 1655q0 -61 -37.5 -97.5t-97.5 -36.5q-58 0 -94 34.5t-36 90.5q0 61 38 95.5t99 34.5q57 0 92.5 -31.5t35.5 -89.5zM979 1655
q0 -61 -38 -97.5t-98 -36.5q-57 0 -93 34.5t-36 90.5q0 61 37.5 95.5t98.5 34.5q58 0 93.5 -31.5t35.5 -89.5zM217 1400z" />
    <glyph glyph-name="uni0402" unicode="&#x402;" horiz-adv-x="1578" 
d="M786 -1q-63 1 -137 1q-187 0 -347 -3l-5 50l160 44q25 8 26 32q2 75 2 193v977h-291l-92 -266l-53 -9l-26 374l7 8q246 -4 471 -4h290q229 0 484 4l6 -8l-66 -366l-54 -9l-67 276h-310v-508q134 22 253 22q226 0 353.5 -97t127.5 -287q0 -201 -135 -326t-342 -125
q-91 0 -184 26q21 108 47 191l11 6q114 -128 160 -128q53 0 95 96t42 225q0 157 -72 235t-220 78q-65 0 -136 -11v-388q0 -67 0.5 -143.5t1.5 -159.5z" />
    <glyph glyph-name="uni0403" unicode="&#x403;" horiz-adv-x="1157" 
d="M550 314q0 -118 2 -193q1 -24 26 -32l147 -42l3 -50q-155 3 -324 3q-173 0 -312 -3l-5 50l134 37q26 8 27 31q2 81 2 199v797q0 50 -0.5 91t-1.5 75q-1 26 -24 33l-134 39l-3 51q140 -4 266 -4h239q242 0 504 4l6 -8l-70 -385l-51 -8l-80 295h-351v-980zM910 1647
l-475 -174l-31 52l350 275l156 -138v-15zM208 1400z" />
    <glyph glyph-name="uni0404" unicode="&#x404;" horiz-adv-x="1418" 
d="M1181 1025l-75 276q-89 28 -199 28q-228 0 -351 -142t-139 -407h620v-117h-621q10 -281 140.5 -441.5t380.5 -160.5q90 0 168 28l136 282l57 9l-22 -354l-6 -8q-208 -55 -385 -55q-397 0 -593 178.5t-196 534.5q0 361 211.5 555t617.5 194q189 0 366 -41l6 -10l-64 -340z
" />
    <glyph glyph-name="uni0405" unicode="&#x405;" horiz-adv-x="1080" 
d="M772 1305q-64 25 -139 25q-106 0 -179.5 -62t-73.5 -160q0 -59 24 -101t64 -75t91.5 -59t106.5 -52q61 -29 123 -63.5t111 -82t79.5 -113.5t30.5 -160q0 -203 -153 -319t-404 -116q-181 0 -357 57l-6 9l53 360l62 10l75 -306q72 -33 160 -33q127 0 204.5 64.5t77.5 172.5
q0 61 -24 103.5t-65 76t-93 59.5t-108 52q-61 30 -122 63t-109 80t-78 112.5t-30 158.5q0 191 146 304t379 113q148 0 337 -46l6 -9l-61 -322l-55 -9z" />
    <glyph glyph-name="uni0406" unicode="&#x406;" horiz-adv-x="800" 
d="M550 314q0 -60 0.5 -109t1.5 -88q1 -26 34 -35l123 -35l3 -50q-139 3 -308 3q-175 0 -312 -3l-5 50l134 37q25 7 27 31q1 40 1.5 89.5t0.5 109.5v797q0 50 -0.5 91t-1.5 75q-1 26 -24 33l-134 39l-3 51q139 -4 308 -4q174 0 312 4l5 -51l-134 -37q-24 -6 -26 -30
q-1 -36 -1.5 -77.5t-0.5 -89.5v-801z" />
    </font>
</defs>
</svg>
